<svg width="30" height="50" fill="none" xmlns="http://www.w3.org/2000/svg"><path opacity=".3" d="M1 46.5l-.3-.004a.3.3 0 00.305.303L1 46.5zm25.506-.148l3.024 1.38-.06-3.464-2.975 1.484.01.6zM1.19 1.944a.3.3 0 10.6.007l-.6-.007zm.558 3.798a.3.3 0 00-.6-.006l.6.006zm-.62 1.89a.3.3 0 00.6.006l-.6-.006zm.557 3.798a.3.3 0 10-.6-.007l.6.007zm-.62 1.89a.3.3 0 10.6.006l-.6-.007zm.558 3.797a.3.3 0 10-.6-.006l.6.006zm-.62 1.89a.3.3 0 10.6.006l-.6-.006zm.557 3.798a.3.3 0 10-.6-.007l.6.007zm-.62 1.89a.3.3 0 10.6.006l-.6-.007zm.558 3.797a.3.3 0 10-.6-.006l.6.006zm-.62 1.89a.3.3 0 10.6.006l-.6-.006zm.557 3.798a.3.3 0 10-.6-.007l.6.007zm-.62 1.89a.3.3 0 10.6.006l-.6-.007zm.558 3.797a.3.3 0 10-.6-.006l.6.006zm-.62 1.89a.3.3 0 10.6.006l-.6-.006zm.557 3.798a.3.3 0 10-.6-.007l.6.007zm.645 1.228a.3.3 0 00-.01-.6l.01.6zm3.79-.667a.3.3 0 00.01.6l-.01-.6zm1.91.567a.3.3 0 00-.01-.6l.01.6zm3.79-.667a.3.3 0 00.01.6l-.01-.6zm1.91.567a.3.3 0 00-.01-.6l.01.6zm3.79-.667a.3.3 0 00.01.6l-.01-.6zm1.91.567a.3.3 0 00-.01-.6l.01.6zm3.79-.667a.3.3 0 00.01.6l-.01-.6zm1.91.567a.3.3 0 00-.01-.6l.01.6zm3.79-.667a.3.3 0 00.01.6l-.01-.6zM1.2.996l-.01.948.6.007.01-.948-.6-.007zm-.052 4.74l-.02 1.896.6.006.02-1.896-.6-.006zm-.063 5.687l-.02 1.896.6.007.02-1.896-.6-.007zm-.062 5.688l-.02 1.896.6.006.02-1.896-.6-.006zM.96 22.798l-.02 1.896.6.007.02-1.896-.6-.007zm-.062 5.688l-.02 1.896.6.006.02-1.896-.6-.006zm-.063 5.687l-.02 1.896.6.007.02-1.896-.6-.007zm-.062 5.688l-.02 1.896.6.006.02-1.896-.6-.006zM.71 45.548l-.01.948.6.007.01-.948-.6-.007zm.295 1.252l.95-.017-.01-.6-.95.017.01.6zm4.75-.084l1.9-.033-.01-.6-1.9.033.01.6zm5.7-.1l1.9-.033-.01-.6-1.9.033.01.6zm5.7-.1l1.9-.033-.01-.6-1.9.033.01.6zm5.7-.1l1.9-.033-.01-.6-1.9.033.01.6zM1 46.5l-.6-.007a.6.6 0 00.61.606L1 46.5zm22.511.205l6.05 2.758-.122-6.927-5.949 2.969.021 1.2zM.89 1.94a.6.6 0 101.2.013L.89 1.94zm1.158 3.805a.6.6 0 00-1.2-.014l1.2.014zM.828 7.628a.6.6 0 101.2.014l-1.2-.014zm1.157 3.805a.6.6 0 00-1.2-.013l1.2.013zm-1.22 1.883a.6.6 0 101.2.013l-1.2-.013zm1.158 3.805a.6.6 0 00-1.2-.013l1.2.013zm-1.22 1.882a.6.6 0 101.2.014l-1.2-.014zm1.157 3.805a.6.6 0 00-1.2-.013l1.2.013zM.64 24.691a.6.6 0 101.2.013l-1.2-.013zm1.158 3.805a.6.6 0 00-1.2-.013l1.2.013zm-1.22 1.882a.6.6 0 101.2.014l-1.2-.014zm1.157 3.805a.6.6 0 00-1.2-.013l1.2.013zm-1.22 1.883a.6.6 0 101.2.013l-1.2-.013zm1.158 3.805a.6.6 0 00-1.2-.014l1.2.014zm-1.22 1.882a.6.6 0 101.199.014l-1.2-.014zm1.157 3.805a.6.6 0 00-1.2-.013l1.2.013zm.35 1.525a.6.6 0 00-.02-1.2l.02 1.2zm3.78-1.267a.6.6 0 10.02 1.2l-.02-1.2zm1.92 1.167a.6.6 0 00-.02-1.2l.02 1.2zm3.78-1.267a.6.6 0 00.02 1.2l-.02-1.2zm1.92 1.167a.6.6 0 00-.02-1.2l.02 1.2zm3.78-1.267a.6.6 0 00.02 1.2l-.02-1.2zm1.92 1.167a.6.6 0 00-.02-1.2l.02 1.2zm3.78-1.267a.6.6 0 00.02 1.2l-.02-1.2zm1.92 1.167a.6.6 0 00-.02-1.2l.02 1.2zm3.78-1.267a.6.6 0 00.02 1.2l-.02-1.2zM.9.993l-.01.948 1.2.013.01-.948L.9.993zm-.052 4.74l-.02 1.895 1.2.014.02-1.896-1.2-.014zM.785 11.42l-.02 1.896 1.2.013.02-1.896-1.2-.013zm-.062 5.688l-.02 1.895 1.2.014.02-1.896-1.2-.013zM.66 22.795l-.02 1.896 1.2.013.02-1.896-1.2-.013zm-.062 5.688l-.02 1.895 1.2.014.02-1.896-1.2-.013zM.535 34.17l-.02 1.896 1.2.013.02-1.896-1.2-.013zm-.062 5.688l-.02 1.895 1.199.014.02-1.896-1.199-.014zM.41 45.544l-.01.948 1.2.013.01-.948-1.2-.013zm.6 1.554l.95-.016-.02-1.2-.95.017.02 1.2zm4.75-.083l1.9-.033-.02-1.2-1.9.033.02 1.2zm5.7-.1l1.9-.033-.02-1.2-1.9.033.02 1.2zm5.7-.1l1.9-.033-.02-1.2-1.9.033.02 1.2zm5.7-.1l1.9-.033-.02-1.2-1.9.033.02 1.2z" fill="#fff"/></svg>