<svg width="90" height="89" fill="none" xmlns="http://www.w3.org/2000/svg"><path opacity=".05" d="M48 2.098l39.235 44.515L42.72 85.848 3.485 41.333 48 2.098z" fill="#1D92FF"/><path opacity=".3" d="M47.62 1.169l40.362 45.793-45.794 40.362L1.826 41.531 47.62 1.169z" stroke="#002547" stroke-width=".3"/><circle opacity=".3" cx="47.5" cy="1.549" r="1.5" fill="#002547"/><circle opacity=".3" cx="42.301" cy="87.249" r="1" fill="#002547"/><circle opacity=".3" cx="1.5" cy="41.549" r="1.5" fill="#002547"/><circle opacity=".3" cx="88.5" cy="46.549" r="1.5" fill="#002547"/><path d="M45.499 38.765a4.832 4.832 0 00-4.834 4.833 4.832 4.832 0 004.834 4.834 4.832 4.832 0 004.833-4.834 4.832 4.832 0 00-4.833-4.833zM56.3 42.39a10.868 10.868 0 00-9.594-9.594v-2.49H44.29v2.49a10.868 10.868 0 00-9.594 9.594h-2.489v2.417h2.49A10.868 10.868 0 0044.29 54.4v2.489h2.417V54.4a10.868 10.868 0 009.594-9.593h2.49V42.39H56.3zm-10.8 9.667a8.452 8.452 0 01-8.459-8.459A8.452 8.452 0 0145.5 35.14a8.452 8.452 0 018.458 8.458 8.452 8.452 0 01-8.458 8.459z" fill="#002547"/></svg>