<svg width="90" height="89" fill="none" xmlns="http://www.w3.org/2000/svg"><path opacity=".05" d="M48 2.098l39.235 44.515L42.72 85.848 3.485 41.333 48 2.098z" fill="#1D92FF"/><path opacity=".3" d="M47.62 1.169l40.362 45.793-45.794 40.362L1.826 41.531 47.62 1.169z" stroke="#002547" stroke-width=".3"/><circle opacity=".3" cx="47.5" cy="1.549" r="1.5" fill="#002547"/><circle opacity=".3" cx="42.301" cy="87.249" r="1" fill="#002547"/><circle opacity=".3" cx="1.5" cy="41.549" r="1.5" fill="#002547"/><circle opacity=".3" cx="88.5" cy="46.549" r="1.5" fill="#002547"/><path d="M44.5 36.723a7.87 7.87 0 00-7.875 7.875h2.25a5.627 5.627 0 015.625-5.625 5.627 5.627 0 015.625 5.625h2.25a7.87 7.87 0 00-7.875-7.875zm1.125 10.45a2.815 2.815 0 001.688-2.575 2.814 2.814 0 00-5.626 0c0 1.147.698 2.137 1.688 2.576v3.712l-3.836 3.837 1.586 1.586 3.375-3.375 3.375 3.375 1.586-1.586-3.836-3.837v-3.712zM44.5 32.224c-6.829 0-12.375 5.546-12.375 12.375h2.25c0-5.592 4.534-10.125 10.125-10.125s10.125 4.533 10.125 10.125h2.25c0-6.83-5.546-12.375-12.375-12.375z" fill="#002547"/></svg>