<svg width="90" height="89" fill="none" xmlns="http://www.w3.org/2000/svg"><path opacity=".05" d="M48 2.098l39.235 44.515L42.72 85.848 3.485 41.333 48 2.098z" fill="#1D92FF"/><path opacity=".3" d="M47.62 1.169l40.362 45.793-45.794 40.362L1.826 41.531 47.62 1.169z" stroke="#002547" stroke-width=".3"/><circle opacity=".3" cx="47.5" cy="1.549" r="1.5" fill="#002547"/><circle opacity=".3" cx="42.301" cy="87.249" r="1" fill="#002547"/><circle opacity=".3" cx="1.5" cy="41.549" r="1.5" fill="#002547"/><circle opacity=".3" cx="88.5" cy="46.549" r="1.5" fill="#002547"/><path d="M57.585 37.46l-1.704-1.704-3.444 3.879c-2.489-2.804-5.933-4.495-9.824-4.495-3.492 0-6.694 1.401-9.195 3.625l1.716 1.715c2.054-1.8 4.652-2.924 7.48-2.924 3.31 0 6.15 1.523 8.18 3.915l-3.48 3.915-4.834-4.833-9.062 9.075 1.813 1.812 7.25-7.262 4.833 4.833 4.894-5.498a14.828 14.828 0 011.74 5.498h2.428c-.265-2.779-1.148-5.304-2.465-7.419l3.674-4.132z" fill="#002547"/></svg>