<svg width="90" height="89" fill="none" xmlns="http://www.w3.org/2000/svg"><path opacity=".05" d="M48 2.098l39.235 44.515L42.72 85.848 3.485 41.333 48 2.098z" fill="#1D92FF"/><path opacity=".3" d="M47.62 1.169l40.362 45.793-45.794 40.362L1.826 41.531 47.62 1.169z" stroke="#002547" stroke-width=".3"/><circle opacity=".3" cx="47.5" cy="1.549" r="1.5" fill="#002547"/><circle opacity=".3" cx="42.301" cy="87.249" r="1" fill="#002547"/><circle opacity=".3" cx="1.5" cy="41.549" r="1.5" fill="#002547"/><circle opacity=".3" cx="88.5" cy="46.549" r="1.5" fill="#002547"/><path d="M57.79 40.179a8.452 8.452 0 00-8.458-8.458 8.452 8.452 0 00-8.459 8.458 8.435 8.435 0 007.045 8.325v4.761h-9.667V49.64h1.209v-4.833c0-.665-.544-1.208-1.209-1.208h-3.625c-.664 0-1.208.543-1.208 1.208v4.833h1.208v6.042H53.96v-2.417h-3.625v-4.688a8.457 8.457 0 007.455-8.398zM36.44 42.39a1.81 1.81 0 001.812-1.812 1.81 1.81 0 00-1.812-1.813 1.81 1.81 0 00-1.813 1.813 1.81 1.81 0 001.813 1.812z" fill="#002547"/></svg>