<svg width="1250" height="207" fill="none" xmlns="http://www.w3.org/2000/svg"><mask id="a" style="mask-type:alpha" maskUnits="userSpaceOnUse" x="0" y="0" width="1250" height="207"><path d="M0 10.049c0-5.523 4.477-10 10-10h1230c5.52 0 10 4.477 10 10v186c0 5.523-4.48 10-10 10H10c-5.523 0-10-4.477-10-10v-186z" fill="#1D92FF"/></mask><g mask="url(#a)" fill="#006ED5"><path opacity=".2" d="M1120 26.049c-319.438 118.499-812.242 165.499-917 174.5 9.591 10.5 18.443 10.5 18.443 10.5s651.417-63.501 898.557-185zm-308-16C492.562 128.548-.242 175.548-105 184.549c9.59 10.5 18.443 10.5 18.443 10.5S564.86 131.548 812 10.049z"/></g></svg>