<svg width="201" height="193" fill="none" xmlns="http://www.w3.org/2000/svg"><path d="M170.905 57.887v-2.194l-1.899-1.096-66.843-38.592-1.9-1.097-1.9 1.097-66.842 38.591-1.9 1.097v81.57l1.9 1.097 66.843 38.592 1.899 1.097 1.9-1.097 66.843-38.592 1.899-1.096V57.887z" fill="#009EFF" stroke="#F7F7F7" stroke-width="7.599"/><path d="M91.93 112.984v-11.568h7.226V90.938H91.93V57.073H75.46L53.195 92.028v9.388H80v11.568h11.93zM79.999 90.938H64.874L80 67.635v23.303zm47.277 23.052c15.965 0 23.19-14.502 23.19-28.92 0-14.417-7.225-28.835-23.19-28.835-16.048 0-23.19 14.418-23.19 28.835 0 14.418 7.142 28.92 23.19 28.92zm0-10.562c-8.066 0-11.091-8.047-11.091-18.358 0-10.31 3.025-18.273 11.091-18.273 7.982 0 11.007 7.963 11.007 18.273 0 10.31-3.025 18.358-11.007 18.358zm-35.72 29.482v-9.548c0-2.708-1.45-3.994-3.885-3.994-2.025 0-3.775 1.204-4.541 2.408-.493-1.505-1.724-2.408-3.666-2.408-2.025 0-3.776 1.259-4.323 2.052v-1.724h-3.474v13.214h3.474v-8.891c.52-.739 1.532-1.559 2.736-1.559 1.422 0 1.97.875 1.97 2.106v8.344h3.501v-8.918c.493-.712 1.505-1.532 2.736-1.532 1.423 0 1.97.875 1.97 2.106v8.344h3.502zm5.13-14.636c1.15 0 2.08-.93 2.08-2.079s-.93-2.052-2.08-2.052c-1.12 0-2.078.903-2.078 2.052s.957 2.079 2.079 2.079zm1.752 14.636v-13.214h-3.475v13.214h3.475zm6.919 0v-18.247h-3.474v18.247h3.474zm9.656.328c2.051 0 4.131-.629 5.444-1.833l-1.532-2.243c-.848.821-2.408 1.313-3.529 1.313-2.244 0-3.584-1.395-3.803-3.064h9.821v-.766c0-4.322-2.681-7.277-6.62-7.277-4.022 0-6.84 3.092-6.84 6.922 0 4.24 3.037 6.948 7.059 6.948zm3.036-8.179h-6.511c.164-1.314 1.095-2.928 3.256-2.928 2.298 0 3.173 1.669 3.255 2.928zm10.635 8.179c3.666 0 5.718-1.833 5.718-4.24 0-5.335-7.824-3.693-7.824-5.663 0-.739.82-1.313 2.079-1.313 1.614 0 3.119.684 3.912 1.532l1.395-2.38c-1.313-1.04-3.091-1.806-5.335-1.806-3.474 0-5.416 1.943-5.416 4.159 0 5.197 7.851 3.419 7.851 5.608 0 .821-.711 1.422-2.216 1.422-1.641 0-3.611-.902-4.568-1.805l-1.505 2.435c1.395 1.285 3.611 2.051 5.909 2.051z" fill="#fff"/></svg>