<svg width="260" height="167" fill="none" xmlns="http://www.w3.org/2000/svg"><g clip-path="url(#clip0_405_9860)"><path fill-rule="evenodd" clip-rule="evenodd" d="M22.382.687c7.603 2.092 15.267 4.122 23.087 5.997-1.17 6.06-2.995 11.466-3.701 17.991-4.823-1.084-9.514-2.746-14.628-1.764-.784-.717-1.743-.155-2.643-.352-1.384-.304-2.458-1.395-3.701-1.412-1.12 1.06-3.103.299-3.877-.529.393-1.635.36-4.193-1.763-3.88-.098-1.806-2.474-.421-2.643-1.94.372-.686 1.437-.679 1.41-1.764.273-.744-.979.038-.705-.706-.193-.839.573-.72 1.233-.705-1.28-2.384-1.406-6.803-.88-9.525 2.043 1.717 4.157 3.364 7.577 3.704.186-.411.449-1.656.881-1.235.566.834-.41.026-.528.706.215 1.02.74 1.729 1.41 2.293-.248-2.39.595-4.997-.529-6.88z" fill="#999"/><path fill-rule="evenodd" clip-rule="evenodd" d="M45.822 6.684c1.157.37 2.596.459 3.7.882-.426 1.984-.733 4.087-1.41 5.82.543 1.106 1.481 2.259.706 3.705.23.887.799 1.434 1.586 1.764.83 1.698.936 4.12 3.172 4.41-.464 2.24-1.523 3.884-2.115 5.997.186.637.67.976 1.058 1.41.924-.01 1.45-1.18 2.115-.881-.035 2.915.635 5.126 2.29 6.35-.346.972-.12 2.011.53 2.47 1.07-.933 3.754-.429 5.64-.177 1.006.184.547-1.098 1.585-.882 1.566 1.832.28 4.65-.176 7.584-.5 3.217-.67 6.472-1.234 9.172-9.517-1.175-18.1-3.285-26.964-5.115 1.021-4.564 1.962-9.208 3.525-13.229-.244-.402-.402-.891-1.234-.705.33-1.318.593-2.7 2.115-2.823.598-1.812 1.618-3.201 2.82-4.41-.303-2.102-1.58-2.564-1.234-5.467.542-4.536 2.962-11.574 3.525-15.875z" fill="#999"/><path fill-rule="evenodd" clip-rule="evenodd" d="M49.875 7.566c15.431 3.429 31.996 5.723 49.17 7.408-.597 8.28-1.332 16.423-2.115 24.518-10.528-.928-20.689-2.223-30.665-3.704-.314.862-.43 1.92-.529 2.998-.67-.27-.318-1.563-1.233-1.587-1.027-.264-.63.897-1.41.882-1.792-.346-4.93-.63-5.64 0-.498-.536-.256-1.129-.176-1.94-1.713-1.402-2.291-3.94-2.467-6.88-1.187-.07-1.245.989-2.291 1.059-1.578-2.06 1.341-4.432 1.41-7.056-2.67-.739-2.244-4.574-4.583-5.644.146-1.235.24-3.068-.705-4.057.409-2.002.861-3.96 1.234-5.997zm202.496 2.646c.678 3.025 1.821 5.585 2.467 8.643h1.763c.412.88.212 2.373 1.233 2.645.614-.052-.015-.477.353-.529 1.105.07 1.21 1.14 1.762 1.764-.663 1.924-2.525 2.647-3.701 4.057-.463.052-.139-.684-.705-.53-.83.28-1.693 1.089-1.586 1.764-.279.015-.672-.084-.705.177-.413-.057-.171-.77-.529-.882-1.164.153-.105 2.162-.528 3.175-.295.234-.591.467-1.234.353.175 1.401-1.64 2.12-2.291 1.587-1.164 1.212-1.038 3.338-1.586 5.468-.7-.357-.751-1.365-1.763-1.41-.76-4.237-2.473-7.52-3.348-11.642.335.075.443.38.881.352-.277-2.393 1.04-3.192 1.41-4.938-.663-.542-.824-2.672 0-3.175-.576-3.012 1.071-5.1 1.939-7.232.669.212.416 1.347 1.409 1.235 1.322-1.312 2.834-2.27 4.759-.882zm-115.964 3.704c.415-.004.519.304 1.058.176.585 1.178.302 3.225 1.233 4.057 1.244.225 2.936.002 3.349 1.058 1.259.261 1.629-.368 2.115-.881 2.241-.034 3.198 2.044 5.287 1.587.098 1.46 1.673.476 1.41 1.587 1.639.553 2.669-.319 3.524-1.058.535-.005.171.887.705.882 2.113-.87 3.177.772 4.935.353-1.741 1.198-3.571 1.51-5.111 2.646-2.325 1.713-3.524 4.651-6.168 5.997v3.528c-.867 1.072-2.366 1.512-2.467 3.351.041.605.941.351 1.057.882-.632 1.394-.431 2.683-.353 4.586.65.816 1.789 1.15 2.644 1.764.707.509 1.042 1.133 1.762 1.764 1.101.963 3.257 1.07 2.82 3.704-7.558.373-15.336.526-23.263.53-.516-4.424 1.39-11.27-1.762-13.053.271-.493.942-.586 1.233-1.059.562-2.029-.561-3.771-.881-5.644-.352-2.062.119-4.356-.352-6.35-.268-1.131-.932-1.872-1.058-2.822-.213-1.605.592-3.803-.353-5.116 2.319-.202 5.621.137 8.46 0 .406-.475.063-1.701.176-2.47z" fill="#999"/><path fill-rule="evenodd" clip-rule="evenodd" d="M127.419 16.209c.866 1.649.13 3.396.353 5.291.121 1.032.79 1.874 1.057 2.999.454 1.912.034 4.211.353 6.173.238 1.47 1.262 2.868.881 4.41-11.212.05-21.566-.758-32.075-1.411.297-6.464.94-12.583 1.586-18.697 9.035.659 18.031 1.357 27.845 1.235zM16.214 17.267c.585.622.803 2.572.176 3.352.54.576 1.344.888 1.939 1.41.874-.065 2.145.266 2.29-.529 1.22.052 2.274 1.093 3.526 1.411.373.095 1.091-.262 1.586-.176.565.098.658.512 1.057.53 2.22.095 4.425-.429 6.697-.177 2.923.323 5.555 1.676 8.46 1.94.038 1.54 1.24 1.272 1.233 2.47-.009 1.441-2.566 2.312-2.467 4.233-1.33.608-2.198 1.68-2.467 3.351-.194.84 1.05.243 1.057.882-1.352 4.115-2.3 8.634-3.348 13.053-11.358-2.156-21.637-5.39-32.076-8.467-.765-1.495.406-3.251.177-5.291 4.072-5.038 6.187-12.034 8.635-18.697 1.675-1.003 1.96.656 3.525.705zm151.916 7.056c-1.455.953-2.683 2.136-2.996 4.233.54.368.884-.68 1.41-.882 2.1-.045 2.61 1.503 3.701 2.47.548.419.963-.4 1.41-.354.586.062.838.851 1.938.353 1.018-.46 1.359-1.53 2.468-1.764 1.468-.31 2.816.1 3.877-.882.397.132.069.99.176 1.411 1.085 1.246 2.775-.184 4.053-.353-.143 1.555.056 2.768 1.234 2.999-2.522.48-4.072.744-6.873.176-.355 1.703-3.933.18-3.701 2.47-.741-1.294-1.859.803-2.644-.177-1.069 1.222-1.275 3.31-2.114 4.763-.982-.546-.939-2.118-1.058-3.528-.2-.447-.781-.512-1.41-.53.128-.538-.18-.642-.176-1.058-3.602.019-5.614-1.553-8.988-1.764-.45-.372-.491-1.154-1.234-1.234.987-.483 1.989-.95 2.644-1.764 4.236-.052 3.882-4.698 8.283-4.585zm72.609 1.057c.329-.168.589.53.705 0 1.428 3.452 2.562 7.197 3.525 11.113.73.563 1.327 1.259 1.939 1.94-1.322 2.21-4.375 3.611-7.579 3.352-.259-2.942.263-6.189 0-9.349.367-.75 1.203-1.03 1.587-1.764-.123-1.71-1.081-3.616-.177-5.291z" fill="#999"/><path fill-rule="evenodd" clip-rule="evenodd" d="M239.858 27.321c.65 2.061 1.068 4.07-1.057 4.762.757 3.025-.441 7.085.352 9.878a8.345 8.345 0 01-2.996.706c-.446-1.847-.13-4.456-1.938-4.94-.23-2.684-.988-5.423-1.586-8.466 2.313-.742 4.971-1.139 7.225-1.94zm-84.417 1.235c-.161.78-.724 1.156-.881 1.94.159.426.995.075 1.057-.176 1.044.483 2.221.834 2.644 1.94 3.385.14 5.284 1.767 8.812 1.764-.131.726.559 1.194 1.586 1.235-.038 1.742.339 3.07 1.057 4.056-.682.618-1.875 2.384-1.057 3.352 1.464-1.474 2.527-3.35 3.701-5.116-1.357 5.217-3.674 11.25-1.939 17.64-4.95-.1-11.072 1.737-14.804-.354-.469-.832-.787-2.23-.176-3.175-.714-.872-1.007-2.167-1.058-3.704-2.239-1.933-4.365-3.98-7.049-5.468-.069-1.832-.26-2.927.353-4.233-.064-.642-.417-.994-1.058-1.058.29-1.474 1.2-2.327 2.467-2.823.063-1.465-.222-3.28.353-4.233 2.56.796 4.128-1.686 5.992-1.587z" fill="#999"/><path fill-rule="evenodd" clip-rule="evenodd" d="M231.928 29.438c1.293 2.493 1.487 5.812 1.938 8.466.162.308.551.39 1.058.353 1.176 2.464.516 5.75.881 8.82.263 2.212 1.547 4.491.529 6.35.386.748.27 1.116.176 2.116 1.673-1.77 4.909-1.435 6.521-3.528.15.262.443.38.881.353-2.139 1.975-4.17 4.058-7.931 4.41-.258.153-.559.264-.529.705-.221-.755.872-1.711.529-3.175-1.916-.61-3.641-1.412-5.639-1.94-.564-1.14-1.319-2.09-2.291-2.822-6.792 1.257-13.192 2.907-20.268 3.88-.013-2.894 2.359-3.4 3.349-5.291-.245-1.166-1.391-1.43-1.586-2.646 2.261-2.25 6.543-.945 9.516-1.94 1.215-.607 1.568-2.077 2.996-2.47-.201-1.163-.701-1.545-.176-2.646-.292-.354-1.158-.133-1.233-.705.105-1.365 1.262-1.676 1.938-2.47.523-1.829 1.857-2.845 2.82-4.233 2.013-.69 4.6-.805 6.521-1.587zm-43.002 7.761c-.234-.23-.656-.233-.705.176.82 1.002 1.324 2.32 1.057 4.41-1.297.23-.541 2.515-2.114 2.47-.138 1.254.174 2.058 1.057 2.292 1.568-.664 1.531-2.936 3.172-3.528 2.212 1.562 3.434 5.955 2.82 9.173-.883.13.234-.65-.352-.706-1.291 1.765-1.962 4.152-2.82 6.35-4.886.858-9.714.822-14.98 1.411 1.008-2.39 1.946-3.884 1.762-6.35-.159-2.124-1.965-3.656-2.115-5.468-.016-.199.105-1.773.176-2.646.096-1.17 1.301-2.518.353-3.704.808-.403.866-.865.881-1.764 1.024-.21 1.332-1.136 1.762-1.94.397.639-.409 1.584-.176 2.646 1.541.042 1.304-1.924 1.058-3.175.329-.67 1.651-.347 1.938-1.059-.459-.187-.943-.35-1.057-.882 1.725-3.025 4.764.75 7.402.53.03.85.85.912.881 1.764zm-58.863-1.588c.147 1.088-.959.922-1.234 1.588.302.991 1.113 1.473 1.762 2.116v10.583c.237.884-1.021.272-.704 1.235-.079.843.151 1.377.704 1.588-.29 1.637-.924 3.207-.176 4.057-1.262-1.696-4.239-3.273-6.697-1.764-.871-.48-1.722-.981-2.467-1.588-8.536-.158-16.557-.832-24.85-1.234.118-6.409.981-12.071 1.41-18.168 10.51.77 21.323 1.236 32.252 1.587zm-33.309 4.233c-.41 8.468-1.221 16.534-1.939 24.694-11.316-.668-21.5-2.469-32.251-3.704 1.257-8.266 2.617-16.43 3.877-24.694 9.775 1.565 19.923 2.756 30.313 3.704z" fill="#999"/><path fill-rule="evenodd" clip-rule="evenodd" d="M247.436 40.903c-.454.599-1.025 1.748-.352 2.47.539.127.518-.305 1.057-.177 1.162.943 1.195 2.627 2.82 2.646.843.01 1.009-1.281 1.763-.53-.723.865-2.409.764-2.82 1.94-.261-.15-.379-.443-.353-.881-1.095.106-1.102 1.114-1.41 1.587-1.087-.675-1.663-1.863-2.467-2.822-3.239.639-6.262 1.493-9.517 2.117v-4.234c3.258-.325 5.915-1.253 8.988-1.764.041-1.149 1.973-2.58 2.291-.352z" fill="#999"/><path fill-rule="evenodd" clip-rule="evenodd" d="M3.877 41.08c6.25 1.623 12.18 3.567 18.505 5.114-.887 4.48-2.304 8.863-3.524 13.406-.438 1.63-1.108 3.877-.882 5.115.159.866 1.623 2.672 2.468 3.88 5.835 8.355 12.083 18.227 17.623 26.282-.094 1.715.887 3.475 1.586 4.939-1.383.849-2.7 1.765-2.643 4.057-.45.313-.77.758-1.41.881-.01.814.078 1.725-.176 2.294-.083.611.956.101 1.057.529-.405 2.224-3.59 1.174-6.168.882-2.71-.308-5.647-.859-7.755-1.059.026-4.612-1.404-7.766-4.934-8.819.687-.317.178-1.43 0-1.94-2.577.101-3.232-2.13-4.582-3.704-2.005.066-2.322-1.557-4.583-1.235.03-.442-.27-.552-.529-.706.342-1.069.452-2.37.882-3.35-.211-1.654-1.6-2.833-2.291-4.41-.324-.74-.256-1.708-.53-2.47-.326-.913-1.39-1.757-1.41-2.646-.035-1.592 3.31-3.561 0-4.056-.886-1.035-1.494-4.402 0-5.292-.447.93-.021 2.006.882 2.116.476-.95-.125-2.34-.529-2.998.858-.236.945-.632.529-1.411-1.168-.2-.995 1.384-1.057 1.764-.858-.318-1.134-1.217-1.763-1.764.891-3.698-3.218-5.117-1.762-9.349.137-.397.64-.633.705-1.058.342-2.189-.62-3.297-1.586-5.115 1.336-3.249 4.205-4.964 3.877-9.878z" fill="#009EFF"/><path fill-rule="evenodd" clip-rule="evenodd" d="M245.322 45.489c.782.863 1.626 1.664 2.114 2.822-1.164.066-1.245 1.35-2.643 1.587.153-1.74-.471-2.704-.705-4.056.46-.069.967-.09 1.234-.353zm-1.586.529c.318 1.269.842 2.331.705 4.057-1.404.953-3.264.797-4.406 1.41-1.392.748-1.846 2.283-3.349 2.294.953-1.85-.123-4.208-.176-6.174 2.396-.541 4.718-1.158 7.226-1.587zm-194.39 6.35c-2.414 12.018-4.383 24.646-7.225 36.512-1.011-.254-1.555-1.613-2.82-1.059-1.16 1.308-.315 4.624-.881 6.527-.333.486-.897-.717-1.234-1.235-5.308-8.17-10.593-16.49-16.39-24.87-.9-1.301-2.307-2.745-2.467-3.705-.192-1.145.482-3.285.88-4.762 1.118-4.143 2.668-9.2 3.526-13.405 8.57 2.3 17.764 3.975 26.611 5.997zm181.877.352c-.472 1.785-1.302 3.53-1.058 5.645 1.262.384 1.66 1.631 2.82 2.117-.81.66-1.378 1.56-1.939 2.47-.413.056-.661.278-1.233.176-.52.243-.714.814-1.234 1.058-7.271 1.365-14.42 2.854-21.853 4.057-.076-1.962-.871-4.991-1.234-7.055-.388-2.206-1.095-5.642-.881-6.527.315-1.304 2.075-1.561 2.82-2.47v1.588c7.054-.877 13.509-2.354 19.914-3.88.957-.193.505 1.023 1.587.705a8.26 8.26 0 001.233 2.117h1.058zm-76.84-2.469c1.138 1.527-.683 5.338 2.644 5.292-.027 1.645 2.401 2.345 2.643 3.704.211 1.18-.822 1.908-1.233 3.175-1.037.315-2.652.051-2.82 1.235-.282 1.046.56.968.705 1.587-.163 1.424-.647 2.528-1.762 2.999v1.235c-.842-.04-.756-1.008-1.41-1.235-6.225.355-12.494.666-19.21.53-.375-5.329-2.222-9.184-3.701-13.406.569-.548.551-1.682.705-2.646-.397-.484-.938-.824-.705-1.94 8.235.01 16.304-.145 24.144-.53zM49.699 52.368c4.242.987 8.784 1.674 13.394 2.293-.403 2.007-.589 4.232-.881 6.35 2.952.514 5.947.986 9.164 1.235-1.089 8.259-2.228 16.467-3.349 24.693-8.44-.9-16.153-2.529-24.144-3.88 1.919-10.25 3.934-20.404 5.816-30.691z" fill="#999"/><path fill-rule="evenodd" clip-rule="evenodd" d="M135.526 72.476c-10.818.126-20.999-.384-31.37-.706-.13-2.364.379-4.09.352-6.35-3.088-.26-5.958-.74-9.34-.705.405-4.005.74-8.08 1.057-12.171 5.206.242 15.292.91 22.206 1.235 2.674.125 3.539.266 5.111 1.587.817-.475 2.094-.492 3.173-.706.539.637 1.646.705 2.291 1.235.755.244.424 1.574 1.762 1.235.262 1.543.65 3.46 1.234 4.939.2.507.726.88.881 1.41.44 1.51.199 3.243.529 4.763.363 1.676 1.606 3.049 2.114 4.234zm100.103-17.992c.268 1.739-.959 1.98-.705 3.704.673.158 1.125-.287 1.41 0 1.115 4.495-1.031 7.01-2.291 10.055-.539-.327.203-.838 0-1.412-1.764-.234-3.134-.861-3.877-2.116.782-1.628 2.097-2.722 3.172-4.057-.81-1.013-1.71-1.934-2.82-2.646-.372-.981.891-1.45 0-2.47.827-.289.497-1.736 1.057-2.292 1.341.422 2.651.875 4.054 1.234zm-34.367 19.932c-.57-.017-.376-.8-1.233-.53-.676 1.088-.528 3-1.234 4.058-1.315-.096-2.047-.773-2.467-1.764-1.371.648-2.351.596-3.878 1.058-.582-.533-1.317-.915-2.643-.705.011-1.691-1.471-1.675-2.996-1.412-.528-5.41-1.157-10.718-1.762-16.05 3.874-.736 7.611-1.462 10.574.529 3.708-.699 5.324-3.49 8.283-4.94.665 1.268 1.878 7.46 1.41 9.35-.712 2.871.123 5.874-1.939 7.055-1.629-.432-2.649 1.618-2.115 3.351zm-30.841-18.873c.151 2.242 1.59 3.495 1.762 6.703.214 3.96 1.238 9.243 1.058 12.7-.024.448-.223.986-.176 1.41.098.894.786 1.628.705 2.47-.12 1.244-1.301 2.507-1.939 3.175.572 2.1-1.284 3.788-.176 4.762-.596.345-1.447.434-1.939.882-.449 1.126.519 1.07.176 1.94-.795-.085-1.199-.563-1.938-.705-.876.182-1.148.968-1.763 1.411-1.41-1.307-.62-3.322-2.114-4.939-1.987-.128-2.825-1.406-3.701-2.646.533-1.053.99-2.183 1.057-3.704-.434-.624-1.552-.563-2.644-.529-.546-3.51-4.413-3.697-4.582-7.585.199-.859.952-1.164.705-2.469.209-.203.623-.2 1.058-.176.204-1.686 1.353-3.08 0-4.41.206-.028.148-.322.176-.53 2.357-.057 4.33-2.036 3.877-4.232-.162-.788-.906-.795-1.41-1.411-.414-.507-.001-1.451-.881-1.235 4.085-.438 8.485-.562 12.689-.882z" fill="#999"/><path fill-rule="evenodd" clip-rule="evenodd" d="M184.696 58.894c.741 5.962 1.167 12.238 2.115 17.991-.911.206-1.122 1.111-2.467.883-.137 2.273-2.533 2.285-2.467 4.762-.523-.124-1.661.369-1.41-.53-.798.32-1.862.371-1.587 1.765-.55.498-.578-.594-1.057-.706-.85.149-1.258.74-1.586 1.411-.635-1.232-2.776-.512-3.877-.176-1.079-2.337 1.496-3.143 1.762-5.292.124-.996-.586-1.646-.705-2.645-.179-1.504-.073-3.337-.176-5.116a792.74 792.74 0 00-.705-10.76c1.142.73 1.959-.644 2.996-.881 2.746-.628 6.067-.233 9.164-.706zm-80.54 6.703c-.542 8.218-1.058 16.462-1.41 24.87-12.006-.565-23.309-1.836-34.366-3.351 1.236-8.17 2.05-16.763 3.525-24.694 10.38 1.428 21.028 2.59 32.251 3.175zm129.887 5.468c-.729.446-1.975.376-2.996.529a67.206 67.206 0 00-1.939-7.055c.259-.307-.024-1.025.705-1.059.692-.032-.085 1.117 0 1.411.223.769.719.793 1.41 1.764.688.968.746 2.787 2.291 2.823.112.593.125 1.285.529 1.587zm-28.374-6.526c.143.74.762 2.527.704 4.056 1.883-.056 3.176-.702 5.111-.705.09 1.027.187 2.047.529 2.822 1.087-.852 2.223-1.656 3.172-2.646 1.544.252 2.075-.51 2.644-1.234.985.651 2.814 1.029 2.115 2.822-.879-.532-1.601-1.22-2.82-1.411.054 2.23-1.113 3.237-1.762 4.762h-1.058c-.04 1.018-.226 1.89-.705 2.47-1.006.184-.548-1.098-1.586-.882-.496 2.628-2.322 5.376-2.291 7.408-.867.244-1.603 1.177-2.467.882-.379.503-.609 1.154-1.234 1.41-1.025-.581-1.465-.097-2.115.53-2.838-.864-4.077-3.328-5.816-5.291v-1.235c.612.141.678-.263 1.234-.177.382-1.205.549-2.625.881-3.88.671-.26.035.788.705.529.316.022.372-.216.705-.177-.54-1.657.318-2.346.881-3.351 2.821.228 2.997-3.697 3.173-6.702z" fill="#999"/><path fill-rule="evenodd" clip-rule="evenodd" d="M228.755 64.539c.537 2.364 1.766 4.906 1.763 7.231 1.029.45 2.427-.119 3.524-.176.135.958-.279 1.367-.176 2.293-.674.443-1.919.313-2.291 1.058-.698-.183-.651-1.111-1.057-1.587-.597.05-1.012.28-1.763.176-.495-.532-1.13-1.808-.176-2.293-.079-.618-.758-.36-.881-.529.581-.583.823-2.27-.353-2.47.193-.748.584-1.296.882-1.94-.835-.185-1.659 1.16-1.939 2.117.176.236.476.347.529.706-1.235 2.395 1.255 3.67 1.057 5.468-1.307-.338-2.962-.328-4.229-.706-.312-1.335 1.215-2.133 1.233-3.704-.033-.143-.177-.176-.176-.353-1.446.359-1.553.08-2.996-.176-.294-.35.016-.224 0-.706-1.582-.592-2.043-2.307-4.23-2.293-.505.439-1.232 1.583-2.291.882-.667 1.213-2.38 1.38-2.82 2.822-.38-.678-.441-1.675-.528-2.646 5.706-.991 11.277-2.118 16.918-3.174zm-75.605 4.056c.219.546.582.947 1.057 1.235-.922 3.371 1.993 5.697 4.054 7.232-.035.681-.007 1.3.176 1.764 1.161-.104 2.11.004 2.643.53.097 1.372-1.168 2.199-1.057 3.35.142 1.468 2.186 2.699 3.877 2.999.844 1.543.968 2.811 1.41 4.586.284.363.884.41 1.586.353.022.727-.306 1.104-.176 1.94-1.325-.444-.49 1.273-1.762.882.198 1.551-.346 2.358-.705 3.351-.995-.054-1.568.313-2.644.177.216-1.126 1.75-1.84.705-3.175-7.579.175-14.715.794-22.558.705-.023-5.562.099-11.27-.176-16.58-1.057-.412-1.619-1.32-2.115-2.293-.195-1.018.951-.695.705-1.764-.174-1.1-1.097-.378-1.763-.882-.596-1.343-1.855-2.023-1.938-3.88 6.525.121 12.653-.154 18.681-.53z" fill="#999"/><path fill-rule="evenodd" clip-rule="evenodd" d="M217.3 68.595c1.005.406 1.78 1.042 2.82 1.412.437-.21.004-1.29.705-1.235.287 1.535 2.378 1.265 3.172 2.293.039 1.2-1.167 1.743-.528 2.999 1.853.673 3.93 1.122 5.639 1.94-.162 1.523.05 1.92.529 2.998.037.817-.629-.173-.881.353.018 1.081 1.659 1.341 1.233 2.293-1.15-.26-1.197-1.624-2.643-1.587.477 1.285 1.658 1.867 2.467 2.822.639.169.179-.761.529-.882.572.102.82-.12 1.233-.176.31.63.531 1.35 1.058 1.763-11.642 3.148-24.695 4.638-37.362 6.35.955-.454 1.622-1.198 2.643-1.587.29-2.415 2.651-2.757 3.525-4.586.674.846 1.245 1.495 2.467 1.411.538-.037.506-.703 1.058-.882.34-.11 2.73.738 2.291-.882.882.07 1.693-.852 2.819-1.058-.168-2.828 2.015-4.161 1.939-7.409.849.092.626 1.255 1.939.883.419-.64.52-1.596.705-2.47h.881c.557-1.618 2.183-2.167 1.762-4.763zm6.521 1.588h.705v.705c-.449-.021-.684-.256-.705-.705zm-86.004 3.527c-.187 1.029-.812 1.176-.705 2.117.124 1.088 1.542 1.824 2.115 2.47.233 4.177.18 8.639.176 13.052-12.149.474-24.513-.245-36.304-.705.185-6.341.656-12.395 1.057-18.52 10.365.326 20.55.834 31.37.705.839.219 1.024 1.091 2.291.882zm93.582 6.703c-1.017-2.185.32-3.63.705-5.644.579.212 1.326-.84 1.41 0-1.873.713-.284 4.89-2.115 5.644z" fill="#999"/><path fill-rule="evenodd" clip-rule="evenodd" d="M189.631 76.885c1.326-.21 2.06.172 2.643.706.585.056.666-.392 1.058-.53.312.218.929.13 1.057.53.884-.056.744-1.137 1.763-1.058.153.846.687 1.31 1.586 1.411v1.94c1.436.915 1.719 2.984 3.524 3.528-.887 1.934-3.378 2.263-3.701 4.762-3.47 2.92-10.041 2.628-16.566 2.999-3.129.178-5.689 1.021-8.459.706-.394.076-.072.869-.176 1.234-2.352-.119-3.994.472-6.345.353-.004-.592.698-.477 1.058-.706-.052-1.15.443-2.056-.177-2.822.265-.264.742-.315.881-.705.91.206 1.541.693 2.468.882.618-.746-.294-1.464-.176-2.293.599-.282 1.282-.48 1.938-.706-.759-1.206-.102-1.629.529-2.646 1.512-.178 2.762-.651 3.701.353.623-.258.741-1.021 1.233-1.41.8-.096.471.94 1.234.881.824.06.327-1.201.705-1.587.823-.229 1.349.404 2.644.176-.069-2.362 2.305-2.279 2.291-4.586 1.203-.148 1.877-.826 2.819-1.235.163-.81-.44-.852-.352-1.587 1.53-.3 2.762-.168 2.82 1.41zM43.707 83.412c8.014 1.327 15.722 2.96 24.144 3.88-1.184 12.103-3.271 23.302-4.582 35.278-3.57-.602-7.294-1.049-10.927-1.588-5.858-3.72-12.061-7.095-17.976-10.76.156-1.549 2.88-.527 2.468-2.645.016-.546-.533-.526-1.058-.529.313-.334.129-1.165.176-1.764 1.484-.691 1.556-2.795 2.292-4.234.674-.206 1.342-.42 1.762-.881-.43-1.57-1.105-2.893-1.586-4.41.866-1.955.357-5.287.88-7.585 1.171-.44 1.556.732 2.468 1.059 1.91-.677 1.419-3.755 1.939-5.821zm188.749.705c.721.631.995 1.71 1.41 2.646-1.533-1.19-3.502.521-4.406 1.587 1.111.26 1.91-.215 2.82-.705.512.403.893.396 1.234-.176.525.414.984.896 1.057 1.764-.545.807-1.252 1.45-1.586 2.469-.933.202-1.306.08-2.291 0-.177.588.245.578.705.53-.13.692-.306 1.34-.529 1.94.657.165 1.234.41 1.939.528-.276.548-.523 1.123-.881 1.588-3.671-.117-5.683 2.875-6.521 6.173-1.149-.091-1.847.268-2.467.706-3.492-1.827-5.995-6.384-12.161-4.233-.604-.454-.901-1.215-1.586-1.588-7.284-.647-10.055 3.224-16.742 3.175v-1.235c.494-.093.916-.259 1.41-.352v-1.235c1.909-.617 3.036-2.017 4.934-2.646-.25-1.191.551-1.33.881-1.94.516-.046.542.399 1.058.353.442-.666.846-1.527 1.938-1.059.575-.542.302-1.932 1.587-1.763v-1.588c10.028-1.016 19.212-2.878 28.197-4.939zm-134.644 6.35c-1.053 10.177-1.63 20.829-2.644 31.044-6.546-.092-12.17-1.108-18.329-1.587-1.133.094.093 1.692-.528 1.587-2.607-.507-5.472-.755-8.107-1.234-.431.685-.284 1.95-.529 2.822-1.353-.175-2.802-.253-4.053-.529 1.311-11.917 3.395-23.06 4.582-35.101 9.591 1.277 19.222 2.515 29.608 2.998z" fill="#999"/><path fill-rule="evenodd" clip-rule="evenodd" d="M203.906 88.88c.316 1.727-1.245 1.576-1.234 2.998-.745-.053-1.882.274-2.115 1.235-.31-.042-.401-.303-.352-.706-.784.568-1.845.858-1.762 2.294-1.767.819-3.127 2.044-4.935 2.822v1.058c-.506.14-.936.357-1.41.53v1.587c-9.726.907-19.345 1.922-29.431 2.469.97-.367.312-1.841.176-2.646.36-.169.697-.36 1.057-.529-.07-2.599 1.6-3.455 1.41-6.174 2.736.21 4.626-.426 7.226-.352.394-.076.071-.87.176-1.235 10.138-.676 21.899-1.245 31.194-3.351zM98.164 90.644c13.216.787 27.364 1.511 41.24 1.058.631 6.718 1.439 13.258 1.057 20.99-1.465-.416-2.634-1.126-3.525-2.117-.507.021-.306.752-.881.706-1.374-.504-3.468-.349-4.582.882-.998-.648-3.071-.219-3.349-1.588-.659.281-.682 1.198-1.233 1.588-1.598-.461-2.536-2.254-4.054-.882.377-1.622-1.113-.288-.881-1.764-1.967-.016-3.088-.125-5.463-.706-.063-2.617-2.926-.147-4.054-2.293.022-4.27.521-8.062.529-12.347-5.117-.052-9.916-.423-14.804-.705v-2.822z" fill="#999"/><path fill-rule="evenodd" clip-rule="evenodd" d="M97.635 93.819c5.001.227 9.806.651 14.981.705.055 4.116-.775 8.274-.353 12.171.799 1.134 2.386 1.823 3.349 1.058.48.166.403.89.528 1.411 2.157.107 3.711 1.286 5.111.706.571.631 1.295.922 1.234 1.763 2.134-1.035 2.468.465 4.406.882.674.028.573-.72.881-1.058 1.027.442 2.4.538 3.349 1.058.996.234.875-.652 1.409-.882 1.846-.489 3.132.54 4.23-.529 1.671 1.146 3.835 2.686 5.992 2.293-.018 3.311.154 6.432.353 9.525 1.072 2.553 4.142 6.383 1.586 9.349.74 1.343-.31 3.592-.353 5.291-1.843.213-2.929 1.184-4.406 1.764-3.041 3.718-8.056 5.46-11.984 8.29-1.05 2.258-3.754 4.601-3.701 7.761.032 1.886 1.29 3.968 1.41 5.644-.441-.03-.551.271-.705.53-.818-.181-1.319-.68-1.762-1.235-.738-.402-1.626.134-2.291 0-.838-.168-1.087-.92-1.763-1.235-1.39-.648-3.077-.494-4.053-1.587-.334-2.697-2.362-4.005-1.586-6.527-.115-.825-1.097-.783-1.586-1.234-1.132-.984-1.213-3.019-2.82-3.528-.895-4.278-3.119-7.227-5.64-9.877-1.826-.171-3.912-.083-4.934-1.059-3.177.408-3.096 4.075-5.287 5.468-2.435-2.074-5.749-2.513-7.05-5.292-.455-.97-.125-2.003-.353-3.174-.734-3.791-4.859-4.754-5.992-7.938-.35-.237-.839-.336-1.233-.529-.042-1.722-1.704-1.822-1.939-3.351 5.956.038 12.031 1.48 18.681 1.411 1.099-9.014 1.816-18.408 2.291-28.046z" fill="#999"/><path fill-rule="evenodd" clip-rule="evenodd" d="M162.314 94.524c.033 1.327-1.184 1.402-1.234 2.646.841.482 2.224-.004 3.173 0-.903.802-.237 3.173-1.939 3.175.055.768.463 1.183.529 1.94-.007.582-.501.674-1.058.706.052 1.898-2.014 2.134-1.233 4.233-1.232.086-2.111 1.719-1.586 2.469-.369.102-.503.438-1.058.353-.434 2.5.007 3.839.353 5.997-4.81.36-9.936.404-15.157.353v-3.175c-.83-.74-1.422.237-2.291-.177-.027-6.322.301-13-.881-18.167 7.674.326 15.547-1.014 22.382-.353zm46.703 3.176c.262.62 1.214.548 1.058 1.587 2.286.17 3.929-.822 5.639-.53 2.746.47 4.226 3.678 6.697 4.41-1.216 1.252-2.523 2.413-2.291 5.115-.434.154-.764.411-.705 1.058-2.379.677-2.377 3.736-5.111 4.057.41 1.708-1.032 2.76-2.643 2.999-.743-.903-.485-2.808-2.115-2.822-.14-1.271-.827-1.995-1.234-2.999-2.812-.772-3.188-3.982-6.168-4.586-.724-.981-1.242-2.167-1.939-3.175-1.321.088-1.824-.643-2.643-1.058 1.72-3.453 6.348-3.994 11.455-4.057z" fill="#999"/><path fill-rule="evenodd" clip-rule="evenodd" d="M198.09 100.169c-.173.649-.953.692-.881 1.587.663.747 1.282 1.539 2.82 1.411 1.167 3.418 5.025 4.143 6.52 7.232.551.213 1.1.428 1.586.705.359.876.959 1.511 1.058 2.646.29.298.956.219 1.233.529.108.716.608 1.038.529 1.941.311.453.903.624 1.763.529-1.282 2.192-2.126 5.106-1.939 8.466-1.355.19-2.444-.783-3.349 0-.227 1.056.84 1.739.177 2.646-.731.144-.089-1.087-.529-1.235-4.711.342-9.334.772-14.275.882-1.727-2.03-2.548-6.194-1.41-9.172-1.066-2.241-2.172-4.595-2.996-7.584-.834-3.027-1.493-6.167-2.291-9.172 4.052-.413 8.143-.787 11.984-1.411z" fill="#999"/><path fill-rule="evenodd" clip-rule="evenodd" d="M185.754 101.756c1.244 4.144 2.035 8.715 3.348 12.7.297.901 1.012 1.636 1.41 2.469.219.459-.22 1.166.529 1.235-1.368 2.019.163 4.149-.353 6.526.003.703.902.509.705 1.411-4.927.125-9.097 1.008-13.746 1.411-.241 2.064 1.927 1.716 1.233 4.234-.801.138-1.228.652-2.114.705.115-.237.376-.328.704-.353-.375-.917-.656-1.93-1.409-2.469-.895.163-.621 1.495-1.058 2.117-.157-.137-.398-.19-.705-.177-2.356-7.806-.624-19.436-1.41-28.574 3.874-.828 8.689-.711 12.866-1.235z" fill="#999"/><path fill-rule="evenodd" clip-rule="evenodd" d="M172.183 102.814c1.216 1.343.781 3.44.705 5.115-.372 8.203-.384 16.65.705 24.165-2.342-.144-4.905-.715-5.639 1.235-.686-.783-.914-2.025-1.763-2.646-.103-.986.404-1.36.353-2.293-2.931-.162-6.743.301-10.046.353-.282-4.083 2.712-5.297 2.82-8.467-.604-.864-.946-1.993-1.234-3.175-.251-.78.597-.461.529-1.058-.161-2.311-.741-3.123-.352-5.291.041-.547.625-.551 1.057-.706-.209-1.117.067-1.228.353-2.117.249-.338.856-.319 1.233-.529-.73-2.042 1.099-2.214 1.234-3.88a98.948 98.948 0 0010.045-.706z" fill="#999"/><path fill-rule="evenodd" clip-rule="evenodd" d="M157.732 116.396c.199 1.9.406 3.078 1.234 4.057.105.458-.071.635-.529.529-.188.659.438.503.353 1.058-1.471 1.762-2.761 3.705-2.644 7.056 3.353-.113 6.705-.228 9.869-.529-.812 1.901 1.177 3.632 1.234 5.115-.224.539-1.009.518-1.234 1.058.094.67.751.777 1.41.882.584-.003.179-.997.529-1.235.604.237 1.144.809.881 1.411-.285.303-.737.438-1.41.353.058.646-.196.98-.352 1.411.947 1.051 3.11.885 4.053 1.94-1.02 2.181-2.412-.808-4.23-.529-.14-.329-.294-.646-.352-1.058-.547-.018-.503.555-1.234.353.185 1.029-.08 1.311-.352 2.116-.775.07-.46-.95-1.058-1.058-.918.374-1.646.939-2.291 1.588-1.281-.071-1.891-.813-2.996-1.059-.095-.624.624-.434.529-1.058-.221-.661-1.175-.588-1.939-.706.104-.633-.204-.853-.352-1.234-1.459.222-1.96-.635-3.172.176.144.443.231.945.881.882-2.923 1.383-6.232-2.359-9.693-.529.358-1.904.034-5.363 1.234-6.703.655-2.559-.934-3.734-1.587-5.115-.409-.865.011-1.982-1.057-2.469-.289-1.946-.027-4.442-.353-6.35 4.986-.008 10.096.108 14.628-.353zM29.08 123.98c.407.387.583-.452 1.409-.176.03 1.381 1.016 1.805 2.644 1.587 1.311 1.075 2.647 1.13 4.23 1.764.658.189.502-.437 1.057-.352.92.195 1.325.907 2.29 1.058v24.518c.597.817 1.664.033 2.468 0 .152 1.788 2.12 1.76 2.291 3.527.627-.02.641-.652 1.41-.529-.157-1.215.549-1.568 1.41-1.764 1.884 2.525 4.138 4.678 5.64 7.585.86.314 1.77.58 2.643.882.637 1.156.567 2.725-.176 3.704-.507-.845-1.221-1.483-2.291-1.764-.355.424.452 1.186.176 2.117-.532-.655-.698-.052-1.234.176-.71-1.112-.896-2.748-1.762-3.704-.57-.218-.135.57-.705.353-.83.081-1.084-1.073-1.586-1.764-.501-.69-1.982-2.41-1.763-3.351-1.63-.956-2.518-2.654-4.582-3.175-.388-.373.226-.522.176-1.059-2.382.261-5.687-.956-8.107-1.764-.234-.706-.455-1.425-1.057-1.763-.965-.143-1.056.589-1.939.529v2.116c-.358-.67-1.102.079-1.586-.529-1.202.504-1.829 2.518-3.7 1.764.052-.712 1.267-.26 1.233-1.058-.026-.394-.444.229-.882 0-.025-1.03 1.472-1.462.882-2.47.92-.597 1.132-.614 2.29-.352.19-.659-.437-.503-.352-1.059-2.84-.197-3.296 1.993-4.405 3.528-1.048-.048-1.674.324-1.94 1.058-.123.653.754.305.882.706-.615 2.442-3.758 2.353-5.11 4.057-1.306.105-2.46.361-3.35.882.477.515.495.341.177 1.058-1.885-1.042-3.305 1.065-4.935 0-.84.898-2.07.316-2.82 1.235-.89-.563-1.97-.129-2.643-.177-.22-.749.586-.471.705-.882 2.467.611 3.302-.748 5.11-1.234.555-.085.69.251 1.058.352.908-.624 2.284-1.506 3.525-1.234.271-.787.785-1.331 1.762-1.411.426-1.279 1.08-2.33 1.763-3.352-.342-.443-1.074.208-1.587.177.026-.438.033-.856-.352-.882-.922-.277-.113 1.181-.881 1.058.141-.612-.263-.678-.177-1.235-.659-.078-.764-.174-1.233-.705-.956-.193-1.172.356-1.94.353.421-.483.35-1.066.177-1.764.157-.137.398-.19.705-.177-.087-.618-.263-1.148-.176-1.94-.354-.089-1.856.489-2.644 0 .118-1.058-.413-1.467-.705-2.117.279-.485.635-.893.882-1.411-.017-.658-.688-.012-.705-.352-.615-2.592 2.265-3.117 3.348-4.586.757-.17.31.866.881.881.764.058 1.168-.243 1.41-.705 2.085 1.422 2.278-1.58 2.82-2.822-1.795-.428-4.649-.085-5.992-1.764-.01-.658.178-1.116.353-1.588-.107-.775-1.119-.644-1.058-1.587 2-.039 2.996-.9 4.935-.529-.003.526-.459.599-.529 1.058.628.637 1.841 1.326 2.996.882-.06-.929-1.198-1.557-.705-2.469-.142-.446-.726-.45-1.057-.706.553-1.754-.82-3.043-1.587-4.057.743-1.277 1.897-.232 2.996-.529.896-.242 1.326-2.26 2.82-2.469.145-.021.398.281.705.176 1.052-.358 1.45-1.072 3.173-.705.976-1.338 2.812-.489 2.82.881zm181.876 1.588c1.074 5.451 3.909 9.14 6.873 12.7.447.431-.372.376-.176 1.058 1.955 4.804 5.786 7.732 5.287 14.993-.499.554-1.358 2.04-.529 2.822-.563 1.532-3.136 1.867-4.406 2.117-.319-2.151-1.187-4.691-3.701-4.057-1.245-.988-1.143-3.324-2.82-3.881-.372-.568.103-1.984-.528-2.293-.812-.165-.338.955-.705 1.235-.7-.489-1.319-1.845-1.939-2.646-.191-.247-1.216-1.054-1.233-1.235-.094-.972 1.589-1.31 1.409-2.645-.139-.59-1.419-.7-1.938-.353.445.62.888.673.529 1.764-1.663-1.663-.551-4.241-.706-7.056-.325-.791-1.025-1.208-1.233-2.116-.763-.001-1.119-.41-1.939-.353-1.821-1.843-3.595-5.346-7.225-4.233-.915 1.672-2.663 2.509-4.759 2.998-1.696-3.57-7.828-4.493-11.984-2.645.648-2.412-1.082-2.445-1.233-4.057 4.816-.06 8.562-1.191 13.393-1.235.6.224.813.833 1.058 1.411 5.007-.103 9.747-.474 14.451-.882-.136.901.071 1.458 1.058 1.235.726-.855-.434-2.261 0-2.822.742-.323 1.773.411 2.996.176zM67.851 144.441c.076.84-.21 1.319-.528 1.764-.969.028-1.454-.426-2.115-.705-.026-1.181 1.592-1.531 2.643-1.059zm-4.406 1.235c-.25.454-.413.998-1.057 1.058.257-.448.335-1.075 1.057-1.058zm12.16 1.764c.783.746 1.136 1.921 1.94 2.646-1.128.205-1.55-.692-2.468-.177-.282-.599-.821-.942-.881-1.764.568-.136 1.041-.368 1.41-.705zm4.406 3.175c1.277.201 1.795.077 3.173.176-.528 1.241-2.06.315-3.349.353-.032-.15.069-.166.177-.176v-.353zm3.525 1.058c1.114.708 3.067.576 3.877 1.588-1.055 2.283-4.386.216-3.877-1.588zm-2.291.882c.392-.494 1.332-.051 1.41.353-.122.348-.47.47-.881.529-.207-.264-.22-.722-.529-.882zm7.05 3.881c1.323.616 2.583 1.294 4.053 1.763.681.906.718 2.457 2.115 2.646-1.072 2.17-4.224 1.263-4.935 3.881-.547-.276-1.155-.49-1.41-1.059.373-1.642-.263-2.921-.88-4.056a4.823 4.823 0 011.41-1.412c.098-.779-.93-1.058-.353-1.763z" fill="#999"/><g clip-path="url(#clip1_405_9860)"><path d="M20.735 79.528c-3.637 0-6.596 3.047-6.596 6.794 0 5.323 5.976 10.82 6.23 11.05a.542.542 0 00.731 0c.254-.23 6.23-5.727 6.23-11.05 0-3.747-2.96-6.794-6.595-6.794zm0 10.492c-2.02 0-3.664-1.68-3.664-3.747 0-2.066 1.643-3.747 3.663-3.747 2.02 0 3.664 1.68 3.664 3.747 0 2.066-1.643 3.747-3.663 3.747z" fill="#fff"/></g></g><defs><clipPath id="clip0_405_9860"><path fill="#fff" transform="translate(0 .687)" d="M0 0h259.949v165.626H0z"/></clipPath><clipPath id="clip1_405_9860"><path fill="#fff" transform="translate(9.343 77.13)" d="M0 0h20.385v20.385H0z"/></clipPath></defs></svg>