<svg width="12" height="15" fill="none" xmlns="http://www.w3.org/2000/svg"><path fill-rule="evenodd" clip-rule="evenodd" d="M4.11 2.628c.445-.281 1.002-.356 1.499-.356h1.378c.494 0 1.022.073 1.433.378.442.328.643.844.643 1.49v1.276c0 .253-.113.52-.349.681a.733.733 0 01-.82.009A3.09 3.09 0 006.2 5.589a3.09 3.09 0 00-1.694.517h-.001a.738.738 0 01-.82-.009m.424-3.469c-.485.307-.773.815-.773 1.512zm.534.846c-.17.107-.307.282-.307.666v.909c.58-.3 1.217-.46 1.864-.46.646 0 1.283.159 1.863.46v-.91c0-.433-.125-.601-.24-.686-.147-.11-.406-.18-.836-.18H5.61c-.426 0-.757.069-.966.201zm-1.307.666v1.277zm.349 1.957a.824.824 0 01-.35-.68" fill="#009EFF"/><path fill-rule="evenodd" clip-rule="evenodd" d="M1.732 3.976C1.732 2.028 3.416.5 5.415.5h1.57c2 0 3.683 1.528 3.683 3.476v1.832a5.159 5.159 0 011.232 3.33c0 2.988-2.589 5.362-5.7 5.362S.5 12.126.5 9.137a5.16 5.16 0 011.232-3.33v-1.83zM5.415 1.5c-1.511 0-2.683 1.142-2.683 2.476v2.212l-.13.143A4.171 4.171 0 001.5 9.137c0 2.374 2.077 4.363 4.7 4.363s4.7-1.989 4.7-4.363a4.171 4.171 0 00-1.102-2.806l-.13-.143V3.976c0-1.334-1.172-2.476-2.683-2.476h-1.57z" fill="#009EFF"/></svg>