<svg width="12" height="15" fill="none" xmlns="http://www.w3.org/2000/svg"><path fill-rule="evenodd" clip-rule="evenodd" d="M10.125 4.25v.484c.392.15.75.385 1.047.694A2.99 2.99 0 0112 7.5v4.55a2.99 2.99 0 01-.828 2.072A2.84 2.84 0 019.125 15h-6.25a2.84 2.84 0 01-2.047-.878A2.99 2.99 0 010 12.05V7.5c0-.77.294-1.516.828-2.072a2.869 2.869 0 011.047-.694V4.25c0-1.115.425-2.191 1.194-2.991A4.065 4.065 0 016 0c1.107 0 2.16.458 2.93 1.259a4.317 4.317 0 011.195 2.991zm-4.45-.688v.988H6.5v-.988h-.826zm3.45 1.988c.497 0 .974.205 1.326.571.351.366.549.862.549 1.379v4.55a1.99 1.99 0 01-.55 1.379A1.839 1.839 0 019.126 14h-6.25a1.84 1.84 0 01-1.326-.571A1.99 1.99 0 011 12.05V7.5c0-.517.198-1.013.55-1.379a1.84 1.84 0 011.325-.571v-1.3c0-.862.33-1.689.915-2.298A3.065 3.065 0 016 1c.829 0 1.624.342 2.21.952.586.61.915 1.436.915 2.298v1.3zm-3.45-2.988a1 1 0 00-1 1V5.55H7.5V3.562a1 1 0 00-1-1h-.826z" fill="#009EFF"/></svg>