<svg width="20" height="16" fill="none" xmlns="http://www.w3.org/2000/svg"><path d="M9.5 8a1.5 1.5 0 100 3 1.5 1.5 0 000-3z" fill="#009EFF"/><path fill-rule="evenodd" clip-rule="evenodd" d="M7.5 9.5a2 2 0 114 0 2 2 0 01-4 0zm2-1a1 1 0 100 2 1 1 0 000-2z" fill="#009EFF"/><path fill-rule="evenodd" clip-rule="evenodd" d="M.5 9.999C.5 4.749 4.75.5 10 .5a9.492 9.492 0 019.5 9.499 9.464 9.464 0 01-1.6 5.28.5.5 0 01-.83-.557 8.466 8.466 0 001.41-5.314 8.48 8.48 0 00-1.203-3.806A8.492 8.492 0 0010 1.5a8.495 8.495 0 00-8.5 8.499 8.46 8.46 0 001.43 4.72.5.5 0 01-.832.557A9.46 9.46 0 01.5 9.999z" fill="#009EFF"/><path fill-rule="evenodd" clip-rule="evenodd" d="M14.39 5.688a.5.5 0 01-.078.702l-5 4-.624-.78 5-4a.5.5 0 01.702.078z" fill="#009EFF"/></svg>