<svg width="98" height="98" fill="none" xmlns="http://www.w3.org/2000/svg"><g clip-path="url(#clip0_9220_5880)" fill="#CCC"><path d="M41.248 46.998h1.5a6.76 6.76 0 016.752-6.752v-1.5c-4.55 0-8.252 3.702-8.252 8.252z"/><path d="M62.504 59.753h-.75V46.998c0-6.756-5.497-12.253-12.254-12.253s-12.254 5.497-12.254 12.253v12.754h-.75a2.754 2.754 0 00-2.751 2.751v5.752h31.51v-5.752a2.753 2.753 0 00-2.75-2.75zM38.746 46.998c0-5.93 4.824-10.752 10.754-10.752s10.754 4.823 10.754 10.752v12.754H38.746V46.998zm25.008 16.256H56.2v1.5h7.553v2.001H35.246v-2h8.052v-1.501h-8.052v-.75c0-.69.56-1.25 1.25-1.25h26.008c.69 0 1.25.56 1.25 1.25v.75zm5.639-24.072l-1.061 1.06c5.557 5.559 5.557 14.601 0 20.16l1.06 1.06c6.144-6.143 6.144-16.138 0-22.28z"/><path d="M66.446 42.128l-1.061 1.06c3.933 3.934 3.933 10.332 0 14.265l1.06 1.061c4.518-4.517 4.518-11.868 0-16.386zm-35.778-1.886l-1.061-1.061c-6.143 6.142-6.143 16.138 0 22.28l1.06-1.06c-5.557-5.558-5.557-14.601 0-20.159z"/><path d="M33.615 43.19l-1.061-1.062c-4.517 4.517-4.517 11.869 0 16.386l1.06-1.06c-3.932-3.933-3.932-10.332 0-14.264zM51.75 57.573V54.02a3.748 3.748 0 001.501-3 3.756 3.756 0 00-3.751-3.75 3.75 3.75 0 00-2.25 6.75v3.553h-1.751v1.5h8.003v-1.5H51.75zm-1.5 0h-1.5v-2.876a3.74 3.74 0 001.5 0v2.876zm-.75-4.301a2.253 2.253 0 01-2.25-2.25 2.252 2.252 0 012.25-2.251c1.24 0 2.25 1.01 2.25 2.25a2.254 2.254 0 01-2.25 2.251zM47 63.254h-1.501v1.5h1.5v-1.5zm7.001 0h-1.5v1.5h1.5v-1.5zm-3.501 0H49v1.5h1.5v-1.5z"/></g><path d="M72.923 7.565L96.845 49 72.923 90.435H25.077L1.155 49 25.077 7.565h47.846z" stroke="#CCC" stroke-width="2"/><defs><clipPath id="clip0_9220_5880"><path fill="#fff" transform="translate(25 34.745)" d="M0 0h49v33.51H0z"/></clipPath></defs></svg>