<svg width="98" height="98" fill="none" xmlns="http://www.w3.org/2000/svg"><path d="M72.923 7.565L96.845 49 72.923 90.435H25.077L1.155 49 25.077 7.565h47.846z" stroke="#CCC" stroke-width="2"/><g clip-path="url(#clip0_9220_5881)" fill="#CCC"><path d="M53.969 43.864v-2.776c0-.416-.28-.694-.7-.694h-8.4c-.42 0-.7.278-.7.694v2.776c0 .416.28.694.7.694h8.4c.42 0 .7-.278.7-.694zm-1.4-.694h-7v-1.388h7v1.388zm-11.2 14.571c-1.54 0-2.8 1.25-2.8 2.776 0 1.526 1.26 2.775 2.8 2.775 1.54 0 2.8-1.249 2.8-2.775 0-1.527-1.26-2.776-2.8-2.776zm0 4.163c-.77 0-1.4-.624-1.4-1.387 0-.764.63-1.388 1.4-1.388.77 0 1.4.625 1.4 1.388 0 .763-.63 1.387-1.4 1.387zm15.4-4.163c-1.54 0-2.8 1.25-2.8 2.776 0 1.526 1.26 2.775 2.8 2.775 1.54 0 2.8-1.249 2.8-2.775 0-1.527-1.26-2.776-2.8-2.776zm0 4.163c-.77 0-1.4-.624-1.4-1.387 0-.764.63-1.388 1.4-1.388.77 0 1.4.625 1.4 1.388 0 .763-.63 1.387-1.4 1.387zm-.07-15.612c.14-.278.07-.555-.14-.833-.21-.277-.56-.277-.84-.138l-3.36 2.012c-1.19.694-2.45 1.318-3.64 1.873-.35.14-.77.347-1.19.555-1.47.764-2.24 2.36-1.89 3.956.28 1.248 1.33 2.29 2.59 2.567.28.07.56.07.84.07 1.33 0 2.52-.764 3.15-1.944.14-.346.35-.763.56-1.18.63-1.179 1.19-2.428 1.89-3.607l2.03-3.33zm-3.22 2.567a32.057 32.057 0 00-1.96 3.747c-.14.417-.35.764-.56 1.18-.42.902-1.4 1.318-2.38 1.11a1.933 1.933 0 01-1.54-1.526c-.21-.972.21-1.943 1.12-2.36.35-.208.77-.346 1.19-.555 1.26-.624 2.59-1.249 3.78-1.942l.91-.556-.56.902z"/><path d="M68.57 45.182a.706.706 0 00-.11-.263 20.942 20.942 0 00-4.458-6.633.757.757 0 00-.206-.205c-3.798-3.712-9.004-6.013-14.727-6.013a20.97 20.97 0 00-7.77 1.487.717.717 0 00-.266.108 21.154 21.154 0 00-6.692 4.419.748.748 0 00-.206.205c-3.745 3.764-6.066 8.925-6.066 14.598 0 4.718 1.54 9.228 4.55 12.906.14.208.35.277.56.277h31.78c.21 0 .42-.069.56-.277 3.01-3.678 4.55-8.188 4.55-12.906 0-2.717-.533-5.317-1.5-7.703zm-3.891 19.499h-31.15a19.2 19.2 0 01-2.354-3.872l1.934-.777c.35-.14.49-.555.35-.902s-.56-.486-.91-.347l-1.896.761a19.065 19.065 0 01-1.171-5.965h4.887c.42 0 .7-.278.7-.694 0-.417-.28-.694-.7-.694h-4.886a19.085 19.085 0 011.283-6.236l1.922.824c.07.069.21.069.28.069.28 0 .49-.139.63-.416.14-.347 0-.764-.35-.902l-1.941-.833a19.558 19.558 0 013.439-5.039l1.443 1.43c.14.14.28.209.49.209.21 0 .35-.07.49-.208a.667.667 0 000-.972l-1.443-1.43a19.738 19.738 0 015.352-3.532l.78 1.91c.07.277.35.416.63.416.07 0 .14 0 .28-.07.35-.139.49-.555.35-.902l-.764-1.871a19.551 19.551 0 016.015-1.168v4.843c0 .417.28.694.7.694.42 0 .7-.277.7-.694V33.47c2.207.077 4.324.522 6.29 1.273l-.83 1.905c-.14.347 0 .763.35.902.07.07.21.07.28.07.28 0 .56-.209.63-.417l.84-1.924a19.748 19.748 0 015.083 3.408l-1.443 1.431a.667.667 0 000 .971c.14.14.28.209.49.209.14 0 .35-.07.49-.209l1.443-1.43a19.53 19.53 0 013.563 5.305l-1.926.774c-.35.14-.49.556-.35.903.07.277.35.416.63.416.07 0 .14-.07.28-.07l1.888-.758a19.082 19.082 0 011.178 5.962H63.77c-.42 0-.7.278-.7.694 0 .417.28.694.7.694h4.887a19.334 19.334 0 01-1.265 6.245l-1.942-.832c-.35-.14-.77 0-.91.346-.14.347 0 .764.35.902l1.967.844a19.647 19.647 0 01-2.177 3.597z"/></g><defs><clipPath id="clip0_9220_5881"><path fill="#fff" transform="translate(28 32)" d="M0 0h42v34H0z"/></clipPath></defs></svg>