<svg width="98" height="98" fill="none" xmlns="http://www.w3.org/2000/svg"><path d="M72.923 7.565L96.845 49 72.923 90.435H25.077L1.155 49 25.077 7.565h47.846z" fill="#009EFF" stroke="#009EFF" stroke-width="2"/><g clip-path="url(#clip0_9220_5884)" fill="#fff"><path d="M49 39.666c-5.147 0-9.334 4.186-9.334 9.333s4.187 9.334 9.334 9.334c5.147 0 9.333-4.187 9.333-9.334 0-5.146-4.187-9.333-9.333-9.333zm0 17.333c-4.411 0-8-3.589-8-8 0-4.41 3.589-8 8-8s8 3.59 8 8c0 4.411-3.589 8-8 8z"/><path d="M65.146 45H63.8a15.223 15.223 0 00-1.507-3.638l.95-.951c.35-.35.544-.816.544-1.31 0-.496-.193-.961-.543-1.312l-3.035-3.035c-.7-.7-1.921-.7-2.622 0l-.95.95A15.219 15.219 0 0053 34.2v-1.346A1.856 1.856 0 0051.146 31h-4.293A1.855 1.855 0 0045 32.853V34.2a15.254 15.254 0 00-3.638 1.506l-.951-.95c-.7-.702-1.922-.7-2.622 0l-3.035 3.035c-.35.35-.542.816-.542 1.311s.193.96.542 1.31l.95.951A15.158 15.158 0 0034.2 45h-1.346A1.855 1.855 0 0031 46.853v4.293C31 52.17 31.831 53 32.853 53H34.2a15.254 15.254 0 001.506 3.638l-.95.95c-.35.35-.543.816-.543 1.311s.193.96.543 1.311l3.035 3.035c.7.7 1.921.702 2.622 0l.95-.95A15.23 15.23 0 0045 63.8v1.346c0 1.021.831 1.853 1.854 1.853h4.293A1.856 1.856 0 0053 65.147V63.8a15.254 15.254 0 003.638-1.506l.951.95c.701.702 1.921.7 2.622 0l3.035-3.035c.35-.35.543-.816.543-1.311s-.193-.96-.543-1.31l-.95-.951A15.23 15.23 0 0063.801 53h1.345A1.856 1.856 0 0067 51.146v-4.293A1.857 1.857 0 0065.146 45zm.52 6.146a.52.52 0 01-.52.52H62.75l-.12.515a13.911 13.911 0 01-1.742 4.207l-.28.45 1.693 1.693a.52.52 0 010 .736l-3.035 3.035a.52.52 0 01-.736 0l-1.693-1.693-.449.28c-1.3.81-2.715 1.395-4.207 1.742l-.515.12v2.394a.52.52 0 01-.52.52h-4.294a.52.52 0 01-.52-.52v-2.394l-.515-.12a13.914 13.914 0 01-4.207-1.742l-.45-.28-1.692 1.693a.52.52 0 01-.736 0l-3.035-3.035a.52.52 0 010-.736l1.693-1.693-.28-.45a13.884 13.884 0 01-1.742-4.207l-.12-.515h-2.396a.52.52 0 01-.52-.52v-4.293a.52.52 0 01.52-.52h2.395l.12-.516a13.915 13.915 0 011.742-4.207l.28-.449-1.693-1.693a.52.52 0 010-.736l3.035-3.035a.52.52 0 01.736 0l1.693 1.693.45-.28c1.3-.81 2.715-1.395 4.206-1.742l.516-.12v-2.395a.52.52 0 01.52-.52h4.292a.52.52 0 01.52.52v2.395l.516.12a13.94 13.94 0 014.207 1.742l.45.28 1.692-1.693a.52.52 0 01.736 0l3.035 3.035a.52.52 0 010 .736l-1.693 1.693.28.45a13.841 13.841 0 011.742 4.206l.12.516h2.395a.52.52 0 01.52.52v4.293z"/><path d="M49 42.333a6.674 6.674 0 00-6.666 6.666A6.674 6.674 0 0049 55.666a6.674 6.674 0 006.666-6.667A6.674 6.674 0 0049 42.333zm0 12a5.34 5.34 0 01-5.334-5.334A5.34 5.34 0 0149 43.666a5.34 5.34 0 015.333 5.333A5.34 5.34 0 0149 54.333z"/></g><defs><clipPath id="clip0_9220_5884"><path fill="#fff" transform="translate(31 31)" d="M0 0h36v36H0z"/></clipPath></defs></svg>