<svg width="98" height="98" fill="none" xmlns="http://www.w3.org/2000/svg"><path d="M72.923 7.565L96.845 49 72.923 90.435H25.077L1.155 49 25.077 7.565h47.846z" stroke="#CCC" stroke-width="2"/><g clip-path="url(#clip0_9220_5882)"><path d="M57.776 59.036a.888.888 0 000-1.23.852.852 0 00-1.222 0l-6.192 6.227V43.456a.864.864 0 00-.856-.874.874.874 0 00-.867.874v20.575l-6.18-6.227a.851.851 0 00-1.221 0 .889.889 0 000 1.231l7.659 7.716a.872.872 0 001.22 0l7.659-7.715zm-10.883-6.19a.86.86 0 01.855.861c0 .48-.39.874-.855.874h-8.245a8.541 8.541 0 01-6.107-2.56A8.669 8.669 0 0130 45.87c0-2.4.965-4.578 2.54-6.153a8.592 8.592 0 016.108-2.56c.574 0 1.148.062 1.71.185.318.06.622.135.915.234a11.231 11.231 0 013.775-3.888A11.047 11.047 0 0150.935 32a11.13 11.13 0 017.659 3.064c1.808 1.71 3.041 4 3.42 6.584.183-.026.379-.026.562-.026 1.771 0 3.384.726 4.543 1.895A6.438 6.438 0 0169 48.095a6.47 6.47 0 01-1.88 4.59 6.392 6.392 0 01-4.544 1.895H52.12a.864.864 0 01-.855-.874c0-.48.379-.862.855-.862h10.456c1.295 0 2.48-.53 3.322-1.39a4.74 4.74 0 001.38-3.36 4.713 4.713 0 00-1.38-3.347 4.641 4.641 0 00-3.884-1.353 3.325 3.325 0 00-.526.086l-.182.037a.88.88 0 01-.916-.824 9.501 9.501 0 00-2.969-6.362 9.41 9.41 0 00-11.47-1.17 9.442 9.442 0 00-3.504 3.865.876.876 0 01-1.112.419 6.77 6.77 0 00-1.306-.419 6.91 6.91 0 00-6.278 1.907 7.014 7.014 0 000 9.869 6.91 6.91 0 004.898 2.044h8.244z" fill="#CCC"/></g><defs><clipPath id="clip0_9220_5882"><path fill="#fff" transform="translate(30 32)" d="M0 0h39v35H0z"/></clipPath></defs></svg>