<svg width="174" height="51" fill="none" xmlns="http://www.w3.org/2000/svg"><g opacity=".2" clip-path="url(#clip0_136_6967)" fill="#fff"><path d="M33.214 0c-3.365 0-6.122 2.741-6.122 6.088 0 3.346 2.757 6.026 6.122 6.026 3.364 0 6.059-2.68 6.059-6.026C39.273 2.74 36.578 0 33.213 0zM8.17 13.497a1.828 1.828 0 100 3.655h19.965c.683-.037 2.67.123 3.564 1.272.943 1.222.509 3.359 0 4.927l-6.233 19.868c-.919 2.952-3.8 4.804-6.568 3.594-2.285-1-2.434-3.161-1.664-5.26.1-.26.223-.445.335-.667 0 0 4.967-9.299 6.06-11.892.806-1.902-.237-3.21-2.732-3.21H9.548a1.828 1.828 0 100 3.655h3.228c.683-.037 2.72.049 3.502 1.271 1.465 2.273.46 3.014-1.726 10.57-.137.396-.26.803-.335 1.223 0 0-1.503 5.285 3.278 7.471 4.42 2.013 9.548-.136 11.075-4.927 1.068-3.371 6.618-20.585 6.618-20.585 1.13-3.507.943-6.31-.609-8.298-2.148-2.741-5.984-2.68-6.568-2.655H8.17v-.012zm-6.332 6.038A1.828 1.828 0 000 21.363c0 1.012.82 1.877 1.838 1.877h23.479c1.018 0 1.837-.865 1.837-1.877a1.828 1.828 0 00-1.837-1.828H1.837zm58.646-7.523c-2.853 0-7.932.348-7.932 3.061 0 3.95 8.547 3.986 8.547 6.243 0 .684-.714 1.297-2.312 1.297-2.239 0-3.505-.132-5.571-.48-.873-.145-1.168 1.536-.443 1.716 1.353.348 3.468.648 7.28.648 2.853 0 7.821-.504 7.821-3.229 0-3.95-8.485-3.974-8.485-6.075 0-.684.713-1.296 2.312-1.296H67.1c1.094 0 1.094-1.885 0-1.885h-6.616zm20.229 0c-3.1 0-8.326.18-8.326 4.358v3.818c0 4.19 5.227 4.358 8.326 4.358 3.283 0 5.042-.3 6.394-.649.738-.18.43-1.873-.442-1.717-2.066.349-3.32.48-5.571.48-2.09 0-2.644-.468-2.644-1.716V19.49c0-.492.123-.588.664-.588h4.243c.823 0 .823-1.609 0-1.609h-4.243c-.541 0-.664-.096-.664-.588v-1.08c0-1.261.553-1.717 2.644-1.717h5.35c1.094 0 1.094-1.885 0-1.885h-5.731v-.012zm19.122 0c-3.099 0-8.325.18-8.325 4.358v3.986c0 3.89 5.005 4.093 8.104 4.093 2.631 0 8.374-.132 8.374-3.77v-1.188c0-1.488-.996-1.885-2.976-1.885h-4.353c-.59 0-.59 1.61 0 1.61h1.328c.541 0 .603.107.603.587v1.02c0 1.261-1.193 1.934-2.976 1.934s-2.423-.685-2.423-1.933v-5.222c0-1.261.935-1.717 3.025-1.717h5.35c1.094 0 1.094-1.885 0-1.885h-5.731v.012zm11.51 0c-.75 0-.738.3-.553.912l3.197 9.473c.431 1.164 1.365 1.932 3.198 1.932 1.832 0 2.705-.78 3.135-1.824 0 0 1.267-3.698 1.488-4.358.148-.456.517-.456.664 0 .185.564 1.439 4.25 1.439 4.25.615 1.224 1.267 1.932 3.136 1.932 2.201 0 3.16-.876 3.529-1.933.234-.66 1.931-6.314 2.976-9.58.209-.636.148-.804-.442-.804h-1.931c-.603 1.993-2.46 7.983-2.533 8.236-.136.456-.48.444-.664 0-.123-.313-2.202-5.859-2.534-6.723-.344-.865-1.291-1.501-2.373-1.501-.972 0-1.882.516-2.201 1.5-.32.985-2.066 6.46-2.152 6.724-.136.456-.517.456-.664 0-.099-.277-1.993-6.327-2.595-8.236h-4.12zm33.892 0c-3.001 0-7.772-.024-7.772 3.602v7.527c0 .756.578 1.188 2.533 1.188s2.533-.528 2.533-1.188v-3.446c0-.492.123-.588.664-.588h3.972c.541 0 .664.108.664.588v3.446c0 .66.578 1.188 2.534 1.188 1.955 0 2.533-.42 2.533-1.188v-7.527c0-3.626-4.661-3.602-7.661-3.602zm10.969 0c-.492 0-.701.36-.332.804a1377.21 1377.21 0 014.353 5.33c.246.3.603.721.603 1.19v3.817c0 .66.639 1.188 2.594 1.188 1.956 0 2.644-.42 2.644-1.188V19.01c0-.492.332-.756.603-1.08.197-.253 2.951-3.554 4.243-5.115.368-.456.172-.804-.333-.804h-2.311l-3.198 4.094c-.233.3-.701.288-.934 0-.234-.288-3.087-4.094-3.087-4.094h-4.845zm16.638 0c-.639 0-1.156.516-1.156 1.128 0 .613.517 1.129 1.156 1.129.627 0 1.156-.516 1.156-1.129a1.14 1.14 0 00-1.156-1.128zm0 .264c.467 0 .886.408.886.864 0 .457-.419.805-.886.805s-.824-.348-.824-.805c0-.456.357-.864.824-.864zm-.492.432c-.037 0-.049.012-.049.048v.697c0 .048.037.048.16.048.135 0 .16-.012.16-.048v-.589c0-.036.012-.048.049-.048h.16c.111 0 .16.06.16.108 0 .084-.136.108-.271.108h-.049c-.061 0-.049.18 0 .216.135.109.258.217.332.265.025.024.074 0 .111 0h.332c.037 0 .037-.024 0-.048l-.443-.325c.111 0 .443.012.443-.216 0-.156-.209-.216-.492-.216h-.603zm-27.115.913c2.029 0 2.594.528 2.594 1.777v1.5c0 .528-.11.588-.602.588h-4.021c-.541 0-.664-.108-.664-.588v-1.5c0-1.25.664-1.777 2.693-1.777zm-86.754 16.64c-.84 0-1.483.257-1.93.77-.448.512-.671 1.238-.671 2.176 0 .949.245 1.68.736 2.193.502.512 1.173.769 2.013.769.447 0 .823-.06 1.129-.18.316-.12.616-.257.9-.41.185.153.327.339.425.557.11.207.164.453.164.736 0 .448-.251.83-.753 1.146-.49.305-1.244.458-2.258.458a6.687 6.687 0 01-2.062-.311 4.662 4.662 0 01-1.685-.95 4.702 4.702 0 01-1.146-1.635c-.273-.666-.409-1.457-.409-2.373 0-.851.13-1.598.393-2.242a4.919 4.919 0 011.096-1.653 4.697 4.697 0 011.637-1.014 5.729 5.729 0 011.996-.344c1.004 0 1.778.164 2.324.491.556.327.834.747.834 1.26 0 .284-.07.53-.213.736a1.747 1.747 0 01-.49.491 5.189 5.189 0 00-.917-.474 2.896 2.896 0 00-1.113-.197zm6.643-1.701c.185-.11.464-.213.834-.311a4.587 4.587 0 011.146-.148c.545 0 1.025.082 1.44.246.425.153.698.398.818.736.197.568.41 1.228.638 1.98.23.753.459 1.533.688 2.34.229.797.452 1.587.67 2.373.219.774.41 1.462.573 2.062-.13.152-.327.273-.589.36a2.656 2.656 0 01-.933.147c-.261 0-.485-.022-.67-.065a1.265 1.265 0 01-.442-.197 1.1 1.1 0 01-.279-.343 3.593 3.593 0 01-.18-.491l-.294-1.13h-2.962c-.087.328-.174.666-.262 1.015-.087.35-.174.687-.261 1.015a3.231 3.231 0 01-.491.13 2.39 2.39 0 01-.606.066c-.556 0-.97-.093-1.243-.278a.949.949 0 01-.393-.802c0-.153.022-.305.065-.458.044-.153.093-.333.148-.54.076-.295.18-.66.31-1.097l.459-1.407a65.57 65.57 0 01.523-1.57l.524-1.506c.163-.48.31-.906.442-1.277.141-.37.25-.654.327-.85zm1.964 2.11c-.153.459-.328.971-.524 1.539a28.064 28.064 0 00-.507 1.701h2.029a55.05 55.05 0 00-.475-1.718 73.12 73.12 0 00-.425-1.521h-.098zm7.706 7.56c-.469 0-.84-.136-1.113-.409-.272-.272-.409-.643-.409-1.112v-8.46c.12-.022.311-.05.573-.082a4.55 4.55 0 01.753-.066c.25 0 .469.022.654.066.197.033.36.098.491.196s.23.235.295.41c.065.174.098.403.098.687v6.463h3.747c.076.12.147.284.213.491.065.197.098.404.098.622 0 .436-.093.747-.278.933-.186.174-.431.261-.737.261h-4.385zm9.731-.114c-.12.033-.31.065-.572.098-.251.033-.502.05-.753.05-.25 0-.475-.023-.67-.066a1.094 1.094 0 01-.475-.197.884.884 0 01-.295-.409c-.066-.174-.098-.403-.098-.687v-8.64c.12-.022.31-.05.573-.082.261-.043.512-.065.752-.065.251 0 .47.022.655.065.196.033.36.098.49.197a.87.87 0 01.295.409c.066.174.098.403.098.687v8.64zm9.093-9.851c.077.12.142.284.197.49.065.197.098.405.098.623 0 .425-.093.73-.278.916-.175.175-.415.262-.72.262H89.48v1.849h3.583c.087.12.158.278.213.475.065.196.098.403.098.621 0 .415-.093.715-.278.9-.175.175-.415.262-.72.262h-2.864v3.453c-.12.033-.31.065-.573.098-.25.033-.501.05-.752.05s-.475-.023-.671-.066a1.094 1.094 0 01-.475-.197.884.884 0 01-.294-.409c-.066-.174-.098-.403-.098-.687v-7.118c0-.47.136-.84.409-1.113.272-.273.643-.409 1.112-.409h5.45zm1.152 4.942c0-.851.13-1.604.393-2.258.272-.655.638-1.2 1.096-1.637a4.696 4.696 0 011.636-1.014 5.964 5.964 0 012.046-.344c.731 0 1.407.115 2.029.344a4.666 4.666 0 011.653 1.014c.469.437.834.982 1.096 1.637.273.654.409 1.407.409 2.258 0 .85-.131 1.609-.393 2.274a4.606 4.606 0 01-1.096 1.653 4.624 4.624 0 01-1.636.998c-.633.23-1.32.344-2.062.344-.742 0-1.43-.115-2.062-.344a4.695 4.695 0 01-1.636-1.03 4.726 4.726 0 01-1.08-1.653c-.262-.655-.393-1.402-.393-2.242zm2.945 0c0 .993.202 1.734.606 2.225.404.491.944.737 1.62.737.687 0 1.233-.246 1.636-.737.404-.49.606-1.232.606-2.225 0-.982-.202-1.718-.606-2.21-.392-.49-.932-.736-1.62-.736-.676 0-1.222.246-1.636.737-.404.48-.606 1.216-.606 2.209zm11.899 1.767v3.142c-.12.033-.311.065-.573.098-.251.033-.502.05-.753.05s-.474-.023-.671-.066a1.095 1.095 0 01-.474-.197.937.937 0 01-.278-.409c-.066-.174-.098-.403-.098-.687v-7.707c0-.23.06-.404.18-.524.13-.13.305-.234.523-.31a5.84 5.84 0 011.293-.279 11.905 11.905 0 011.571-.098c1.505 0 2.64.316 3.403.949.764.633 1.146 1.489 1.146 2.569 0 .676-.175 1.255-.524 1.735-.349.48-.763.85-1.243 1.112.392.535.78 1.037 1.161 1.506.382.469.682.894.9 1.276-.109.382-.31.676-.605.884a1.655 1.655 0 01-.965.294c-.24 0-.448-.027-.622-.081a1.488 1.488 0 01-.458-.23 1.87 1.87 0 01-.36-.36 4.614 4.614 0 01-.311-.458l-1.375-2.209h-.867zm1.031-2.176c.414 0 .742-.104.982-.311.24-.218.36-.535.36-.95 0-.414-.137-.725-.41-.932-.261-.218-.681-.327-1.26-.327-.163 0-.294.005-.392.016a4.282 4.282 0 00-.328.05v2.454h1.048zm15.077 5.04c-.153.152-.377.267-.671.343a3.54 3.54 0 01-1.031.131c-.404 0-.785-.06-1.145-.18s-.655-.409-.884-.867l-1.62-3.305a31.821 31.821 0 01-.442-.95 31.835 31.835 0 01-.425-1.047l-.099.017c.044.589.066 1.189.066 1.8.011.61.016 1.21.016 1.8v2.536a4.54 4.54 0 01-.556.098c-.24.033-.48.05-.72.05a3.7 3.7 0 01-.638-.05.974.974 0 01-.458-.196.958.958 0 01-.279-.393 1.948 1.948 0 01-.098-.67v-8.183c.153-.218.387-.381.704-.49.316-.11.654-.164 1.014-.164.404 0 .786.065 1.146.196.371.12.665.404.883.851l1.637 3.306c.163.338.311.66.442.965.131.294.272.638.425 1.03l.082-.016a31.657 31.657 0 01-.082-1.767 94.66 94.66 0 01-.016-1.767v-2.651a5.691 5.691 0 011.276-.147c.48 0 .846.087 1.096.262.251.163.377.512.377 1.047v8.41zm4.986.278c-.12.033-.311.065-.573.098a5.82 5.82 0 01-.752.05c-.251 0-.475-.023-.671-.066a1.094 1.094 0 01-.475-.197.88.88 0 01-.294-.409c-.066-.174-.099-.403-.099-.687v-8.64c.12-.022.311-.05.573-.082a4.59 4.59 0 01.753-.065c.251 0 .469.022.654.065a1.1 1.1 0 01.491.197.887.887 0 01.295.409c.065.174.098.403.098.687v8.64zm4.233-9.556c.185-.11.464-.213.835-.311a4.578 4.578 0 011.145-.148c.545 0 1.025.082 1.44.246.425.153.698.398.818.736.197.568.409 1.228.638 1.98.229.753.459 1.533.688 2.34.229.797.452 1.587.671 2.373.218.774.409 1.462.572 2.062-.131.152-.327.273-.589.36a2.659 2.659 0 01-.933.147c-.261 0-.485-.022-.67-.065a1.263 1.263 0 01-.442-.197 1.096 1.096 0 01-.278-.343 3.465 3.465 0 01-.18-.491l-.295-1.13h-2.962c-.087.328-.174.666-.262 1.015-.087.35-.174.687-.261 1.015a3.255 3.255 0 01-.491.13 2.396 2.396 0 01-.606.066c-.556 0-.971-.093-1.243-.278a.948.948 0 01-.393-.802c0-.153.022-.305.065-.458.044-.153.093-.333.148-.54.076-.295.18-.66.31-1.097l.459-1.407a65.32 65.32 0 01.523-1.57l.524-1.506c.164-.48.311-.906.442-1.277l.327-.85zm1.964 2.11c-.153.459-.328.971-.524 1.539a27.778 27.778 0 00-.507 1.701h2.029a54.761 54.761 0 00-.475-1.718 68.67 68.67 0 00-.425-1.521h-.098z"/></g><defs><clipPath id="clip0_136_6967"><path fill="#fff" d="M0 0h174v50.727H0z"/></clipPath></defs></svg>