<svg width="26" height="17" fill="none" xmlns="http://www.w3.org/2000/svg"><g clip-path="url(#clip0_125_709)"><path opacity=".07" d="M23.9 0H2.405C1.263 0 .39.873.39 2.015v12.09a2.02 2.02 0 002.015 2.016H23.9c1.142 0 2.015-.873 2.015-2.015V2.016A2.02 2.02 0 0023.9 0z" fill="#000"/><path d="M23.9.672c.739 0 1.343.604 1.343 1.343v12.09c0 .74-.604 1.344-1.343 1.344H2.405a1.347 1.347 0 01-1.343-1.343V2.016c0-.74.605-1.344 1.343-1.344H23.9z" fill="#fff"/><path d="M2.788 4.81H1.733v3.694h1.055c.557 0 .96-.135 1.317-.423a1.85 1.85 0 00.671-1.418c-.006-1.095-.82-1.854-1.988-1.854zm.846 2.78c-.228.202-.517.296-.987.296h-.195V5.44h.195c.463 0 .746.08.987.295.249.222.397.565.397.92 0 .357-.148.713-.397.934zm1.471-2.78h.72v3.694h-.72V4.809zm2.479 1.417c-.43-.161-.558-.269-.558-.464 0-.235.229-.41.538-.41.215 0 .396.088.577.303l.377-.49a1.624 1.624 0 00-1.089-.41c-.651 0-1.155.456-1.155 1.061 0 .51.235.772.907 1.014.282.101.423.168.497.208a.45.45 0 01.215.383c0 .303-.235.524-.558.524-.342 0-.618-.174-.785-.49l-.464.45c.33.49.732.705 1.276.705.746 0 1.277-.497 1.277-1.216.013-.597-.236-.866-1.055-1.168zm1.29.436c0 1.088.853 1.928 1.947 1.928.31 0 .578-.06.9-.215V7.53c-.288.289-.543.403-.866.403-.725 0-1.243-.524-1.243-1.276 0-.712.531-1.27 1.21-1.27.342 0 .604.121.9.417v-.847a1.836 1.836 0 00-.887-.228c-1.081 0-1.961.86-1.961 1.934zm8.57.632l-.987-2.486h-.786l1.565 3.789h.39l1.592-3.789h-.78l-.993 2.486zm2.103 1.209h2.042v-.625h-1.323v-.994h1.276V6.26h-1.276v-.82h1.323v-.63h-2.042v3.694zm4.897-2.6c0-.692-.477-1.088-1.31-1.088h-1.068v3.695h.719V7.026h.094l.994 1.485h.886l-1.162-1.559c.544-.114.847-.483.847-1.048zm-1.451.612h-.208V5.394h.221c.45 0 .692.188.692.55 0 .37-.242.572-.705.572z" fill="#231F20"/><path d="M13.932 8.638a1.969 1.969 0 100-3.937 1.969 1.969 0 000 3.937z" fill="url(#paint0_linear_125_709)"/><path opacity=".65" d="M13.932 8.638a1.969 1.969 0 100-3.937 1.969 1.969 0 000 3.937z" fill="url(#paint1_linear_125_709)"/><path d="M24.954 5.042c0-.067-.047-.101-.12-.101h-.108v.322h.08v-.128l.094.128h.094l-.107-.134c.04-.007.067-.04.067-.087zm-.134.047h-.014V5h.014c.04 0 .06.014.06.04 0 .034-.02.048-.06.048z" fill="#231F20"/><path d="M24.847 4.82a.284.284 0 00-.282.282c0 .155.128.282.282.282a.284.284 0 00.282-.282.284.284 0 00-.282-.282zm0 .517a.232.232 0 01-.228-.235c0-.127.1-.235.228-.235.121 0 .222.108.222.235 0 .128-.101.235-.222.235z" fill="#231F20"/><path d="M25.243 8.721S18.587 13.35 6.42 15.45H23.9a1.343 1.343 0 001.344-1.332l.016-2.029-.016-3.366z" fill="#F48120"/></g><defs><linearGradient id="paint0_linear_125_709" x1="14.937" y1="8.245" x2="13.577" y2="6.115" gradientUnits="userSpaceOnUse"><stop stop-color="#F89F20"/><stop offset=".25" stop-color="#F79A20"/><stop offset=".533" stop-color="#F68D20"/><stop offset=".62" stop-color="#F58720"/><stop offset=".723" stop-color="#F48120"/><stop offset="1" stop-color="#F37521"/></linearGradient><linearGradient id="paint1_linear_125_709" x1="14.723" y1="8.216" x2="12.735" y2="4.33" gradientUnits="userSpaceOnUse"><stop stop-color="#F58720"/><stop offset=".359" stop-color="#E16F27"/><stop offset=".703" stop-color="#D4602C"/><stop offset=".982" stop-color="#D05B2E"/></linearGradient><clipPath id="clip0_125_709"><path fill="#fff" transform="translate(.39)" d="M0 0h25.525v16.121H0z"/></clipPath></defs></svg>