<svg width="26" height="17" fill="none" xmlns="http://www.w3.org/2000/svg"><g clip-path="url(#clip0_125_674)"><path opacity=".07" d="M23.51 0H2.015C.873 0 0 .873 0 2.015v12.09a2.02 2.02 0 002.015 2.016H23.51c1.141 0 2.015-.873 2.015-2.015V2.016A2.02 2.02 0 0023.51 0z" fill="#000"/><path d="M23.51.672c.739 0 1.343.604 1.343 1.343v12.09c0 .74-.604 1.344-1.343 1.344H2.015a1.347 1.347 0 01-1.343-1.343V2.016c0-.74.604-1.344 1.343-1.344H23.51z" fill="#006FCF"/><path d="M6.026 6.897l.52 1.26H5.51l.516-1.26zm10.798.052h-2v.556h1.967v.832h-1.963v.62h2v.496l1.395-1.508-1.395-1.572-.004.576zM7.378 5.378h2.683l.596 1.3.552-1.304h6.965l.725.799.748-.8h3.2l-2.364 2.588 2.34 2.571h-3.247l-.724-.799-.756.8H6.737l-.331-.8h-.76l-.332.8H2.687l2.207-5.16h2.304l.18.005zm5.819.724h-1.504l-1.008 2.375-1.092-2.375H8.101v3.23l-1.384-3.23H5.38l-1.6 3.702h1.044l.332-.8H6.9l.331.8h1.827V7.161l1.177 2.647h.799l1.169-2.639v2.64h.979l.016-3.708zM19.47 7.96l1.7-1.86h-1.224l-1.075 1.16-1.04-1.16h-3.959v3.707h3.903l1.084-1.167 1.04 1.167h1.26L19.47 7.961z" fill="#fff"/></g><defs><clipPath id="clip0_125_674"><path fill="#fff" d="M0 0h25.525v16.121H0z"/></clipPath></defs></svg>