<svg width="27" height="17" fill="none" xmlns="http://www.w3.org/2000/svg"><g clip-path="url(#clip0_125_679)"><path d="M23.996 0H3.067l-.218.004a3.168 3.168 0 00-.474.041 1.511 1.511 0 00-1.26 1.26 3.13 3.13 0 00-.042.474 10.66 10.66 0 00-.003.218v11.868a71.824 71.824 0 00.003.477c.005.157.014.317.042.473.027.157.077.308.148.45a1.505 1.505 0 00.662.662c.144.073.292.12.45.149.157.027.316.037.474.041a13.15 13.15 0 00.476.004h20.929l.218-.004c.158-.004.317-.014.474-.041a1.57 1.57 0 00.45-.15 1.514 1.514 0 00.81-1.111c.028-.156.037-.316.041-.473l.004-.218V1.996c0-.072-.002-.144-.004-.217a3.135 3.135 0 00-.041-.473 1.513 1.513 0 00-1.26-1.26 3.155 3.155 0 00-.474-.042 10.867 10.867 0 00-.218-.003L23.996 0z" fill="#000"/><path d="M23.996.537h.255l.207.004c.12.003.261.01.393.033.114.02.21.052.301.099a.972.972 0 01.427.427c.047.091.078.186.098.302.024.13.03.27.033.392a30.757 30.757 0 01.004.461v11.867l-.003.205c-.004.121-.01.262-.034.394-.017.104-.05.206-.098.3a.973.973 0 01-.428.427 1.056 1.056 0 01-.3.099c-.133.023-.28.03-.39.033l-.21.003H3.068c-.068 0-.137-.001-.205-.003a2.724 2.724 0 01-.393-.033 1.056 1.056 0 01-.302-.1.964.964 0 01-.426-.426 1.054 1.054 0 01-.099-.302 2.628 2.628 0 01-.033-.392 10.045 10.045 0 01-.003-.206V2l.003-.206c.003-.12.01-.261.034-.394.017-.104.05-.206.098-.301a.968.968 0 01.426-.426A1.07 1.07 0 012.47.574c.131-.023.272-.03.393-.033L3.07.538h20.926z" fill="#fff"/><path d="M7.689 5.442c.214-.267.358-.626.32-.992-.312.015-.694.206-.914.473-.199.23-.374.603-.328.954.35.03.7-.176.922-.435zm.316.503c-.51-.03-.942.29-1.186.29-.243 0-.616-.275-1.019-.267a1.502 1.502 0 00-1.277.776c-.547.943-.144 2.343.388 3.111.259.38.57.799.98.784.389-.016.54-.251 1.012-.251.471 0 .608.25 1.019.243.425-.008.692-.38.95-.76.297-.434.418-.853.426-.875-.008-.008-.821-.32-.829-1.256-.008-.783.639-1.156.67-1.179-.366-.54-.936-.6-1.134-.616m5.08-1.06c1.107 0 1.878.763 1.878 1.875 0 1.115-.787 1.882-1.906 1.882H11.83v1.95h-.886V4.885h2.14zM11.83 7.898h1.016c.772 0 1.21-.415 1.21-1.135s-.439-1.13-1.206-1.13h-1.02v2.265zm3.353 1.512c0-.733.557-1.152 1.585-1.215l1.104-.067V7.81c0-.462-.305-.715-.847-.715-.447 0-.77.229-.838.58h-.799c.024-.738.72-1.276 1.661-1.276 1.012 0 1.673.53 1.673 1.352v2.84h-.819v-.685h-.02c-.233.447-.747.728-1.305.728-.822 0-1.395-.49-1.395-1.226zm2.689-.369v-.32l-.985.063c-.554.036-.842.241-.842.601 0 .348.3.574.77.574.602 0 1.057-.384 1.057-.918zm1.602 3.077v-.684c.056.008.19.016.261.016.392 0 .613-.166.748-.594l.079-.253-1.499-4.152h.925l1.044 3.37h.02l1.044-3.37h.902l-1.554 4.362c-.356 1-.764 1.329-1.626 1.329a2.4 2.4 0 01-.344-.024z" fill="#000"/></g><defs><clipPath id="clip0_125_679"><path fill="#fff" transform="translate(.898)" d="M0 0h25.525v16.121H0z"/></clipPath></defs></svg>