<svg width="27" height="17" fill="none" xmlns="http://www.w3.org/2000/svg"><g clip-path="url(#clip0_125_766)"><path d="M24.087 0H2.592A2.015 2.015 0 00.577 2.015v12.09c0 1.114.902 2.016 2.015 2.016h21.495a2.015 2.015 0 002.015-2.015V2.016A2.015 2.015 0 0024.087 0z" fill="#000" fill-opacity=".07"/><path fill-rule="evenodd" clip-rule="evenodd" d="M24.087.672c.739 0 1.343.604 1.343 1.343v12.09c0 .74-.604 1.344-1.343 1.344H2.592a1.347 1.347 0 01-1.343-1.343V2.016c0-.74.605-1.344 1.343-1.344h21.495z" fill="#3D95CE"/><path d="M17.152 5.615c0 2.058-1.718 4.733-3.112 6.61h-3.184L9.578 4.413l2.788-.27.675 5.558c.632-1.052 1.41-2.703 1.41-3.83 0-.616-.103-1.036-.264-1.382l2.539-.526c.293.496.426 1.007.426 1.652z" fill="#fff"/></g><defs><clipPath id="clip0_125_766"><path fill="#fff" transform="translate(.577)" d="M0 0h25.525v16.121H0z"/></clipPath></defs></svg>