<svg width="26" height="17" fill="none" xmlns="http://www.w3.org/2000/svg"><g clip-path="url(#clip0_125_718)"><path d="M24.28 16.085H2.008A1.303 1.303 0 01.71 14.786V1.91a1.303 1.303 0 011.3-1.3h22.27a1.303 1.303 0 011.3 1.3v12.877a1.303 1.303 0 01-1.3 1.3z" fill="#fff"/><path opacity=".25" d="M24.27 16.407H2.016A1.625 1.625 0 01.38 14.795V1.898c0-.888.733-1.612 1.636-1.612H24.27c.903 0 1.637.724 1.637 1.612v12.897c0 .889-.734 1.612-1.637 1.612zM2.016.931a.976.976 0 00-.982.967v12.897c0 .533.44.967.982.967H24.27a.976.976 0 00.982-.967V1.898a.976.976 0 00-.982-.967H2.017z" fill="#A7A8AB"/><path d="M13.05 13.212a5.151 5.151 0 100-10.303 5.151 5.151 0 000 10.303z" fill="#CBA747"/><path d="M16.016 7.391c-.198-1.177-1.142-1.778-1.62-1.933-.477-.152-3.636-.09-3.636-.09-.07.088-.027 1.276-.027 1.276l.72-.004.014.912h-.621a.07.07 0 00-.066.044.07.07 0 00-.005.027v.9c0 .04.031.071.07.071h.632c.002.486-.005.875-.024.882-.054.022-.638-.03-.696.01-.056.038-.025.742-.025 1.011-.002.27.07.258.07.258 3.35-.085 3.268.223 4.212-.343.944-.565 1.203-1.842 1.003-3.021h-.001zM12.45 9.473v-.89l1.075.011a.073.073 0 00.073-.07v-.9a.072.072 0 00-.073-.072l-1.075.002v-.993s2.462-.273 2.462 1.573c0 1.775-2.463 1.339-2.463 1.339z" fill="#fff"/></g><defs><clipPath id="clip0_125_718"><path fill="#fff" transform="translate(.289)" d="M0 0h25.525v16.121H0z"/></clipPath></defs></svg>