<svg width="27" height="17" fill="none" xmlns="http://www.w3.org/2000/svg"><g clip-path="url(#clip0_125_700)"><path opacity=".07" d="M24.103 0H2.608C1.466 0 .593.873.593 2.015v12.09a2.02 2.02 0 002.015 2.016h21.495c1.142 0 2.015-.873 2.015-2.015V2.016A2.02 2.02 0 0024.103 0z" fill="#000"/><path d="M24.103.672c.739 0 1.343.604 1.343 1.343v12.09c0 .74-.604 1.344-1.343 1.344H2.609a1.347 1.347 0 01-1.344-1.343V2.016c0-.74.605-1.344 1.344-1.344h21.494z" fill="#fff"/><path d="M13.356 13.568a5.508 5.508 0 100-11.016 5.508 5.508 0 000 11.016z" fill="#F5AC37"/><path d="M10.67 11.058V9.192c0-.044 0-.05-.053-.05h-.733c-.04 0-.057 0-.057-.055v-.64h.782c.044 0 .06 0 .06-.058v-.634c0-.04 0-.05-.053-.05h-.732c-.04 0-.057 0-.057-.054v-.595c0-.037 0-.047.053-.047h.726c.05 0 .064 0 .064-.064V5.126c0-.053 0-.067.068-.067h2.53c.183.007.366.027.547.06a3.3 3.3 0 011.056.392c.216.128.415.282.593.46.133.138.254.288.361.448.106.162.195.335.263.516a.088.088 0 00.101.07h.605c.077 0 .077 0 .08.075v.553c0 .054-.02.067-.074.067h-.465c-.047 0-.06 0-.058.062.019.205.019.412 0 .617 0 .058 0 .064.064.064h.533c.024.03 0 .06 0 .091a.686.686 0 010 .118v.409c0 .057-.017.073-.067.073h-.638a.085.085 0 00-.098.065 2.699 2.699 0 01-.708 1.032 4.12 4.12 0 01-.36.29c-.136.078-.268.16-.406.223-.255.114-.522.2-.796.253-.26.047-.525.068-.79.064h-2.34v-.003zm4.66-1.91a.736.736 0 00-.173 0h-3.741c-.051 0-.067 0-.067.067v1.171c0 .054 0 .068.067.068h1.727c.082.006.165 0 .246-.017a2.58 2.58 0 00.732-.162c.086-.03.169-.068.247-.114h.024c.404-.21.733-.542.94-.949 0 0 .024-.053-.003-.067v.003zm0-2.145a.065.065 0 000-.048 1.33 1.33 0 00-.122-.212 1.728 1.728 0 00-.25-.314.827.827 0 00-.155-.152 2.422 2.422 0 00-1.586-.577h-1.811c-.051 0-.058.02-.058.065v1.197c0 .05 0 .064.065.064h3.893s.033-.007.04-.027l-.017.004zm-1.89 1.444h2.051c.044 0 .064 0 .067-.058a3.888 3.888 0 000-.627c0-.04-.02-.058-.063-.058h-4.082c-.052 0-.065.017-.065.064v.598c0 .077 0 .077.08.077l2.012.004z" fill="#fff"/></g><defs><clipPath id="clip0_125_700"><path fill="#fff" transform="translate(.593)" d="M0 0h25.525v16.121H0z"/></clipPath></defs></svg>