<svg width="98" height="77" fill="none" xmlns="http://www.w3.org/2000/svg"><path d="M49 41a8 8 0 00-8 8 8 8 0 008 8 8 8 0 008-8c0-4.418-3.578-8-8-8z" stroke="#009EFF" stroke-width="2" stroke-miterlimit="10" stroke-linecap="round" stroke-linejoin="round"/><path d="M88.918 75.676a47.82 47.82 0 006.21-13.348A48.057 48.057 0 0097 49c0-1.12-.038-2.232-.114-3.333a47.903 47.903 0 00-1.759-10 47.652 47.652 0 00-5.032-11.5C81.688 10.277 66.435 1 49 1 22.472 1 1 22.472 1 49c0 9.872 2.976 19.042 8.074 26.664" stroke="#999" stroke-width="2" stroke-miterlimit="10" stroke-linecap="round" stroke-linejoin="round"/><path d="M85 71.639a40.412 40.412 0 002.641-4.5 40.032 40.032 0 003.358-9.5 39.839 39.839 0 00.807-5.695c.065-.928.097-1.866.097-2.81m-3.091-15.467a39.884 39.884 0 012.718 9.972M79.622 19.604a39.866 39.866 0 015.935 8.46" stroke="#009EFF" stroke-width="2" stroke-miterlimit="10" stroke-linecap="round" stroke-linejoin="round"/><path d="M44.38 42.457l32.61-15.761-22.283 27.989" stroke="#009EFF" stroke-width="2"/></svg>