<svg width="25" height="25" fill="none" xmlns="http://www.w3.org/2000/svg"><g clip-path="url(#clip0_406_12774)" fill="#fff"><path d="M24.145 6.765L17.774.147A.48.48 0 0017.43 0H7.936A1.928 1.928 0 006.01 1.926v6.728H2.163c-.795 0-1.442.646-1.442 1.44v7.215c0 .795.647 1.441 1.442 1.441H6.01v4.328c0 1.06.864 1.922 1.926 1.922h14.416a1.926 1.926 0 001.927-1.921V7.099a.48.48 0 00-.134-.334zm-6.597-5.467l5.229 5.433h-5.229V1.298zM2.163 17.788a.48.48 0 01-.48-.479v-7.214a.48.48 0 01.48-.48h12.982a.48.48 0 01.48.48v7.214a.48.48 0 01-.48.48H2.163zm21.154 5.29c0 .53-.433.96-.965.96H7.936a.964.964 0 01-.965-.96V18.75h8.174c.795 0 1.442-.646 1.442-1.441v-7.214c0-.795-.647-1.441-1.442-1.441H6.971V1.926c0-.532.433-.964.965-.964h8.65v6.25c0 .265.216.48.481.48h6.25V23.08z"/><path d="M6.469 12.202a1.083 1.083 0 00-.594-.405c-.154-.041-.485-.062-.992-.062H3.545v4.13h.834v-1.558h.543a4.8 4.8 0 00.865-.059c.147-.032.29-.097.433-.196.142-.098.258-.234.35-.407.092-.172.138-.386.138-.64 0-.328-.08-.596-.239-.803zm-.714 1.136a.548.548 0 01-.26.203c-.112.043-.331.065-.66.065H4.38v-1.172h.403c.3 0 .5.01.6.028a.576.576 0 01.335.183.533.533 0 01.132.372c0 .122-.031.23-.094.321zm4.962-.474a1.805 1.805 0 00-.394-.67 1.382 1.382 0 00-.623-.38c-.18-.052-.442-.079-.786-.079H7.39v4.13h1.57c.307 0 .553-.029.737-.087.246-.08.442-.189.586-.33a1.82 1.82 0 00.443-.73c.084-.245.126-.538.126-.878 0-.387-.045-.713-.135-.976zm-.811 1.695c-.057.185-.13.318-.219.399a.77.77 0 01-.336.172 2.27 2.27 0 01-.504.04h-.623v-2.736h.375c.34 0 .568.013.684.04a.793.793 0 01.386.194c.102.096.18.229.237.4.056.17.084.416.084.735 0 .32-.028.571-.084.756zm4.49-2.125v-.699h-2.831v4.13h.834V14.11h1.724v-.698h-1.724v-.978h1.997z"/></g><defs><clipPath id="clip0_406_12774"><path fill="#fff" d="M0 0h25v25H0z"/></clipPath></defs></svg>