<svg width="30" height="30" fill="none" xmlns="http://www.w3.org/2000/svg"><path d="M25.607 4.393A14.902 14.902 0 0015 0C10.993 0 7.227 1.56 4.393 4.393A14.902 14.902 0 000 15c0 4.007 1.56 7.773 4.393 10.607A14.901 14.901 0 0015 30c4.007 0 7.773-1.56 10.607-4.393A14.902 14.902 0 0030 15c0-4.007-1.56-7.774-4.393-10.607zM15 28.813C7.384 28.813 1.187 22.616 1.187 15 1.187 7.384 7.384 1.187 15 1.187c7.616 0 13.813 6.197 13.813 13.813 0 7.616-6.197 13.813-13.813 13.813z" fill="#323941"/><path d="M15 3.756C8.8 3.756 3.756 8.8 3.756 15S8.8 26.244 15 26.244 26.244 21.2 26.244 15 21.2 3.756 15 3.756zm0 21.3c-5.545 0-10.057-4.51-10.057-10.056C4.943 9.455 9.455 4.943 15 4.943c5.545 0 10.056 4.512 10.056 10.057 0 5.545-4.51 10.056-10.056 10.056z" fill="#323941"/><path d="M17.087 15A2.09 2.09 0 0015 12.911 2.09 2.09 0 0012.913 15 2.09 2.09 0 0015 17.086 2.09 2.09 0 0017.087 15zM14.1 15a.9.9 0 011.8 0 .9.9 0 01-1.8 0z" fill="#323941"/><path d="M15 5.798c-5.074 0-9.202 4.128-9.202 9.202S9.926 24.202 15 24.202s9.202-4.128 9.202-9.202S20.074 5.798 15 5.798zM23.015 15c0 .865-.139 1.698-.393 2.479l-3.247-2.134A.408.408 0 0119.19 15c0-.067.018-.234.186-.344l3.247-2.135a7.98 7.98 0 01.393 2.48zm-2.061-5.36l-3.468 1.743a.408.408 0 01-.392-.012.408.408 0 01-.205-.333l-.225-3.878a8.017 8.017 0 014.29 2.48zm-7.618-2.48l-.225 3.879c-.012.2-.148.3-.206.333a.408.408 0 01-.39.011l-3.47-1.742a8.017 8.017 0 014.29-2.481zM6.986 15c0-.865.138-1.698.392-2.479l3.247 2.135c.167.11.185.277.185.344a.408.408 0 01-.185.344L7.378 17.48A7.984 7.984 0 016.985 15zm2.06 5.36l3.468-1.743a.408.408 0 01.391.012.408.408 0 01.206.333l.225 3.878a8.017 8.017 0 01-4.29-2.48zM14.534 23l-.238-4.107A1.596 1.596 0 0013.5 17.6a1.595 1.595 0 00-1.518-.044l-3.675 1.846a8.01 8.01 0 01-.467-.805l3.438-2.26c.451-.297.72-.797.72-1.337 0-.54-.269-1.04-.72-1.337l-3.438-2.26c.14-.278.296-.547.467-.805l3.675 1.846a1.6 1.6 0 002.315-1.336l.238-4.109a8.127 8.127 0 01.931 0l.239 4.108c.03.54.329 1.023.797 1.293a1.597 1.597 0 001.518.044l3.675-1.846c.17.258.326.527.467.805l-3.438 2.26a1.599 1.599 0 00-.001 2.674l3.439 2.26a8.02 8.02 0 01-.467.805l-3.675-1.846a1.595 1.595 0 00-1.518.044c-.468.27-.766.753-.797 1.292l-.239 4.109a8.155 8.155 0 01-.93 0zm2.13-.16l.225-3.879c.012-.2.148-.3.206-.333a.408.408 0 01.39-.011l3.469 1.742a8.017 8.017 0 01-4.29 2.481z" fill="#323941"/></svg>