<svg xmlns="http://www.w3.org/2000/svg" width="49.031" height="41"><path d="M24.463 37.984S50.517 24.47 31.141 0a22.741 22.741 0 01-8.625 12.836s-9.191 7.6-4.02 18.353c0 0-4.172-3.021-8.829-1.97 0 0-5.181 1.92-9.668-.225 0 0 4.474 17.65 21.412 10.064A15.958 15.958 0 019.333 35.2s6.343 3.711 12.724 2.5a33.342 33.342 0 008.706-20.649s1.904 9.217-6.3 20.933zM47.271 14.02a3.439 3.439 0 00-4.721 1.28 3.509 3.509 0 001.273 4.766 3.412 3.412 0 002.4.395 32.751 32.751 0 01-25.149 20.53s19.418-1.2 27.661-22.574a.257.257 0 00.011-.054 3.5 3.5 0 00-1.475-4.344z" fill="#ff817e" fill-rule="evenodd"/></svg>