<svg width="32" height="33" fill="none" xmlns="http://www.w3.org/2000/svg"><circle opacity=".05" cx="16" cy="16.261" r="16" fill="#1D92FF"/><path d="M13.89 14.614v-2.726c0-1.006.727-1.822 1.623-1.822.897 0 1.624.816 1.624 1.822v2.726c.785-.59 1.298-1.59 1.298-2.726 0-1.815-1.305-3.28-2.921-3.28-1.617 0-2.922 1.465-2.922 3.28 0 1.137.513 2.135 1.298 2.726zm6.39 3.374l-2.95-1.648a.829.829 0 00-.35-.08h-.494v-4.373c0-.605-.435-1.093-.973-1.093-.54 0-.974.488-.974 1.093v7.827l-2.227-.525c-.052-.007-.098-.022-.156-.022a.69.69 0 00-.513.24l-.513.584 3.207 3.6c.176.197.422.32.689.32h4.408c.487 0 .864-.4.935-.932l.487-3.84c.006-.052.013-.103.013-.146 0-.452-.247-.846-.59-1.006z" fill="#1D92FF"/></svg>