<svg width="90" height="89" fill="none" xmlns="http://www.w3.org/2000/svg"><path opacity=".05" d="M48 2.098l39.235 44.515L42.72 85.848 3.485 41.333 48 2.098z" fill="#1D92FF"/><path opacity=".3" d="M47.62 1.169l40.362 45.793-45.794 40.362L1.826 41.531 47.62 1.169z" stroke="#002547" stroke-width=".3"/><circle opacity=".3" cx="47.5" cy="1.549" r="1.5" fill="#002547"/><circle opacity=".3" cx="42.301" cy="87.249" r="1" fill="#002547"/><circle opacity=".3" cx="1.5" cy="41.549" r="1.5" fill="#002547"/><circle opacity=".3" cx="88.5" cy="46.549" r="1.5" fill="#002547"/><path d="M60 38.764c0 1.467-1.227 2.667-2.727 2.667a2.39 2.39 0 01-.696-.093l-4.854 4.733c.068.213.095.453.095.693 0 1.467-1.227 2.667-2.727 2.667-1.5 0-2.727-1.2-2.727-2.667 0-.24.027-.48.095-.693l-3.477-3.4a2.459 2.459 0 01-.71.093 2.46 2.46 0 01-.708-.093l-6.205 6.08c.068.213.096.44.096.68 0 1.467-1.228 2.667-2.728 2.667-1.5 0-2.727-1.2-2.727-2.667 0-1.467 1.227-2.667 2.727-2.667.246 0 .478.027.696.094l6.218-6.067a2.305 2.305 0 01-.096-.693c0-1.467 1.228-2.667 2.728-2.667 1.5 0 2.727 1.2 2.727 2.667 0 .24-.027.48-.096.693l3.478 3.4a2.46 2.46 0 01.709-.093c.245 0 .49.026.709.093l4.84-4.747a2.219 2.219 0 01-.095-.68c0-1.466 1.228-2.666 2.728-2.666 1.5 0 2.727 1.2 2.727 2.666z" fill="#002547"/></svg>