<svg width="71" height="71" fill="none" xmlns="http://www.w3.org/2000/svg"><path fill="#159BE8" fill-opacity=".4" d="M13 0h5v5h-5zm26 0h5v5h-5zm26 0h5v5h-5zM13 13h5v5h-5zm26 0h5v5h-5zm26 0h5v5h-5zM13 26h5v5h-5zm26 0h5v5h-5zm26 0h5v5h-5zM13 39h5v5h-5zm26 0h5v5h-5zm26 0h5v5h-5zM13 52h5v5h-5zm26 0h5v5h-5zm26 0h5v5h-5zM13 65h5v5h-5zm26 0h5v5h-5zm26 0h5v5h-5zM0 0h5v5H0zm52 0h5v5h-5zM26 13h5v5h-5zM0 26h5v5H0zm52 0h5v5h-5zM26 39h5v5h-5zM0 52h5v5H0zm52 0h5v5h-5zM26 65h5v5h-5zM0 13h5v5H0zm26 13h5v5h-5zm26 13h5v5h-5zM0 65h5v5H0zM26 0h5v5h-5zM0 39h5v5H0zm52 26h5v5h-5zm0-52h5v5h-5zM26 52h5v5h-5z"/></svg>