<svg width="17" height="13" fill="none" xmlns="http://www.w3.org/2000/svg"><g clip-path="url(#clip0_142_2748)"><path d="M2.78 12.769a7.346 7.346 0 01-1.11-3.607 7.384 7.384 0 01.815-3.692 7.01 7.01 0 012.513-2.735A6.623 6.623 0 018.5 1.73c1.232 0 2.442.348 3.5 1.006a7.01 7.01 0 012.514 2.735 7.384 7.384 0 01.816 3.692 7.347 7.347 0 01-1.112 3.607h1.914a9.194 9.194 0 00.858-4.355 9.14 9.14 0 00-1.275-4.241 8.665 8.665 0 00-3.089-3.063A8.225 8.225 0 008.5-.004 8.226 8.226 0 004.375 1.11a8.666 8.666 0 00-3.089 3.063A9.14 9.14 0 00.011 8.414a9.194 9.194 0 00.858 4.355H2.78z" fill="#4A4AF4"/><path d="M8.614 4.653c-1.245 0-2.678.613-3.456 1.26l.71 1.56C6.49 6.877 7.5 6.369 8.409 6.369c.865 0 1.341.3 1.341.909 0 .406-.316.638-.914.695-2.242.215-3.985.947-3.985 2.742 0 1.425.984 2.285 2.604 2.285.487 0 .965-.134 1.386-.39.42-.256.768-.624 1.006-1.067v1.224h2.02V7.635c0-2.12-1.413-2.976-3.253-2.976v-.006zm-.59 6.7c-.648 0-1.013-.291-1.013-.77 0-1.001 1.167-1.242 2.698-1.242 0 1.047-.672 2.013-1.686 2.013h.001z" fill="#060809"/></g><defs><clipPath id="clip0_142_2748"><path fill="#fff" d="M0 0h17v13H0z"/></clipPath></defs></svg>