<svg width="135" height="40" fill="none" xmlns="http://www.w3.org/2000/svg"><g clip-path="url(#clip0_125_1225)"><path d="M130.2 40H4.73A4.74 4.74 0 010 35.27V4.73C0 2.12 2.12 0 4.73 0H130.2c2.61 0 4.8 2.12 4.8 4.73v30.54c0 2.6-2.2 4.73-4.8 4.73z" fill="#A6A6A6"/><path d="M134.03 35.27c0 2.12-1.71 3.83-3.83 3.83H4.73c-2.12 0-3.84-1.71-3.84-3.83V4.73C.89 2.61 2.61.89 4.73.89H130.2c2.12 0 3.83 1.72 3.83 3.84v30.54z" fill="#000"/><path d="M30.13 19.78c-.03-3.22 2.64-4.79 2.76-4.86-1.51-2.2-3.85-2.5-4.68-2.53-1.97-.21-3.88 1.18-4.88 1.18-1.02 0-2.56-1.16-4.23-1.12-2.14.03-4.14 1.27-5.24 3.2-2.27 3.92-.58 9.69 1.59 12.86 1.09 1.55 2.36 3.29 4.02 3.23 1.62-.07 2.23-1.04 4.19-1.04 1.94 0 2.51 1.04 4.21 1 1.74-.03 2.84-1.56 3.89-3.13 1.25-1.78 1.76-3.53 1.78-3.62-.03-.03-3.38-1.3-3.41-5.17zm-3.2-9.47c.87-1.09 1.47-2.58 1.31-4.09-1.26.06-2.85.88-3.76 1.94-.81.94-1.53 2.49-1.34 3.94 1.42.11 2.88-.72 3.79-1.79zM53.65 31.5h-2.27l-1.24-3.91h-4.32l-1.19 3.91h-2.21l4.28-13.31h2.65l4.3 13.31zm-3.9-5.54l-1.12-3.47c-.12-.36-.34-1.19-.67-2.51h-.04c-.13.57-.34 1.4-.63 2.51l-1.1 3.47h3.56zm14.91.63c0 1.63-.44 2.92-1.32 3.87-.79.84-1.77 1.26-2.94 1.26-1.26 0-2.17-.45-2.73-1.36h-.04v5.05H55.5V25.07c0-1.03-.03-2.08-.08-3.16h1.88l.12 1.52h.04c.71-1.15 1.79-1.72 3.24-1.72 1.13 0 2.08.45 2.83 1.34.75.9 1.13 2.08 1.13 3.54zm-2.17.08c0-.93-.21-1.7-.63-2.31-.46-.63-1.08-.95-1.86-.95-.53 0-1 .18-1.43.52-.43.35-.71.81-.84 1.37-.07.26-.1.48-.1.65v1.6c0 .7.21 1.29.64 1.77.43.48.98.72 1.67.72.8 0 1.43-.31 1.88-.93.45-.61.67-1.43.67-2.44zm13.21-.08c0 1.63-.44 2.92-1.32 3.87-.79.84-1.77 1.26-2.94 1.26-1.26 0-2.17-.45-2.72-1.36h-.04v5.05h-2.13V25.07c0-1.03-.03-2.08-.08-3.16h1.88l.12 1.52h.04c.71-1.15 1.79-1.72 3.24-1.72 1.13 0 2.08.45 2.83 1.34.74.9 1.12 2.08 1.12 3.54zm-2.17.08c0-.93-.21-1.7-.63-2.31-.46-.63-1.08-.95-1.86-.95-.53 0-1 .18-1.43.52-.43.35-.71.81-.84 1.37-.07.26-.1.48-.1.65v1.6c0 .7.21 1.29.64 1.77.43.48.98.72 1.67.72.8 0 1.43-.31 1.88-.93.44-.61.67-1.43.67-2.44zm14.51 1.1c0 1.13-.39 2.05-1.18 2.76-.87.78-2.07 1.17-3.62 1.17-1.43 0-2.58-.28-3.45-.83l.49-1.78c.94.57 1.96.85 3.08.85.8 0 1.43-.18 1.88-.54.45-.36.67-.85.67-1.45 0-.54-.18-1-.55-1.36-.37-.37-.98-.71-1.84-1.03-2.33-.87-3.49-2.14-3.49-3.82 0-1.09.41-1.99 1.22-2.69S83.15 18 84.51 18c1.21 0 2.22.21 3.02.63L87 20.37c-.75-.41-1.6-.61-2.55-.61-.75 0-1.34.18-1.76.55-.35.33-.53.73-.53 1.21 0 .53.2.96.61 1.3.36.32 1 .66 1.94 1.03 1.15.46 1.99 1 2.53 1.62.53.61.8 1.38.8 2.3zm7.05-4.26h-2.35v4.66c0 1.18.41 1.78 1.24 1.78.38 0 .7-.03.95-.1l.06 1.62c-.42.16-.97.24-1.66.24-.84 0-1.5-.26-1.97-.77s-.71-1.38-.71-2.59v-4.84h-1.4v-1.6h1.4v-1.76l2.09-.63v2.39h2.35v1.6zm10.6 3.12c0 1.47-.42 2.69-1.26 3.63-.88.97-2.06 1.46-3.52 1.46-1.41 0-2.53-.47-3.37-1.4-.84-.93-1.25-2.11-1.25-3.53 0-1.49.43-2.7 1.29-3.65.86-.95 2.02-1.42 3.48-1.42 1.41 0 2.54.47 3.4 1.4.82.9 1.23 2.07 1.23 3.51zm-2.21.07c0-.88-.19-1.64-.57-2.28-.45-.77-1.09-1.15-1.91-1.15-.86 0-1.51.38-1.96 1.15-.38.63-.57 1.41-.57 2.32 0 .88.19 1.64.57 2.28.46.77 1.1 1.15 1.94 1.15.81 0 1.45-.39 1.91-1.17.39-.65.59-1.42.59-2.3zm9.14-2.92a3.63 3.63 0 00-.67-.06c-.75 0-1.33.28-1.74.85-.36.5-.53 1.13-.53 1.89v5.04h-2.13l.02-6.57c0-1.11-.03-2.11-.08-3.02h1.86l.08 1.84h.06c.23-.63.58-1.14 1.07-1.52.47-.34.99-.51 1.54-.51.2 0 .38.01.53.04v2.02h-.01zm9.54 2.47c0 .38-.03.7-.08.97h-6.4c.03.95.33 1.67.93 2.17.54.45 1.24.67 2.09.67.95 0 1.81-.15 2.59-.45l.33 1.48c-.91.4-1.98.59-3.22.59-1.49 0-2.66-.44-3.51-1.31-.85-.88-1.27-2.05-1.27-3.52 0-1.45.4-2.65 1.19-3.61.83-1.03 1.95-1.54 3.35-1.54 1.38 0 2.43.51 3.14 1.54.57.81.86 1.81.86 3.01zm-2.04-.55c.01-.63-.12-1.18-.41-1.64-.37-.59-.94-.89-1.7-.89-.7 0-1.26.29-1.7.87-.35.46-.57 1.01-.63 1.66h4.44zM43.42 7.27a3.374 3.374 0 011.78-.48c.63 0 1.12.15 1.48.45.36.3.54.7.54 1.2 0 .4-.12.74-.36 1.01s-.55.45-.93.54v.03c.21.03.4.09.59.17.18.08.35.19.48.33.14.14.25.29.33.48.08.18.12.38.12.6 0 .36-.07.67-.22.91-.15.25-.34.45-.57.6-.24.16-.5.27-.79.33a4.053 4.053 0 01-1.79 0c-.3-.06-.58-.17-.84-.32l.26-.81c.17.08.39.17.65.24.26.08.53.12.8.12.45 0 .79-.1 1.03-.3.24-.2.36-.47.36-.81 0-.23-.05-.41-.15-.56-.1-.15-.22-.26-.38-.35-.15-.08-.33-.14-.52-.17s-.38-.05-.57-.05h-.44v-.8h.44c.2 0 .39-.02.56-.08.17-.05.32-.12.45-.22.13-.09.23-.21.3-.34.07-.13.11-.27.11-.44 0-.29-.1-.52-.31-.68-.21-.16-.49-.25-.83-.25-.24 0-.48.04-.72.12-.24.08-.45.16-.64.25l-.22-.72zm8.33 6.16l-.08-.54h-.03c-.32.43-.77.65-1.38.65a1.537 1.537 0 01-1.04-.4 1.23 1.23 0 01-.3-.44 1.42 1.42 0 01-.11-.55c0-.59.24-1.03.72-1.32.48-.29 1.16-.44 2.04-.44v-.09c0-.62-.33-.93-.98-.93-.46 0-.88.12-1.23.35l-.21-.69c.43-.27.97-.41 1.62-.41 1.23 0 1.85.65 1.85 1.95v1.74c0 .48.02.86.07 1.12h-.94zm-.14-2.34c-.59 0-1.02.07-1.31.22-.29.15-.43.39-.43.73 0 .25.07.43.2.55.13.12.31.18.51.18.14 0 .26-.02.39-.07.12-.05.23-.12.32-.2.09-.08.17-.19.23-.31s.09-.25.09-.38v-.72zm6.07-2.37v.86h-1.96v3.85h-1.05V8.72h3.01zm6 2.3c0 .38-.05.72-.16 1.03-.1.31-.25.58-.43.79-.18.22-.4.39-.66.51s-.54.19-.85.19c-.62 0-1.07-.22-1.34-.67h-.02v2.48h-1.05v-5.08c0-.25 0-.51-.01-.76l-.03-.79h.92l.06.75h.02c.35-.56.88-.84 1.59-.84.28 0 .54.06.77.17.24.12.44.28.62.49.17.21.31.46.41.76.11.29.16.61.16.97zm-1.07.04c0-.23-.03-.45-.08-.64-.05-.2-.14-.37-.24-.5-.11-.14-.24-.25-.39-.33-.15-.08-.32-.12-.51-.12-.15 0-.29.03-.44.1-.14.06-.27.15-.37.26-.11.11-.19.24-.26.4-.06.16-.1.32-.1.5v.79c0 .17.03.34.08.48a1.09 1.09 0 00.59.65c.14.06.29.09.46.09.4 0 .7-.15.92-.45.23-.33.34-.73.34-1.23zm6.69-2.34l-1.19 3.27c-.28.78-.56 1.41-.83 1.91-.27.5-.53.85-.77 1.08-.36.32-.75.52-1.16.59l-.25-.88c.27-.07.53-.21.78-.42s.44-.46.59-.78c.05-.1.08-.17.08-.21 0-.04-.02-.11-.06-.22l-1.71-4.34h1.15l.89 2.63c.05.12.09.26.14.42.05.15.09.33.15.51h.02c.03-.1.07-.23.11-.39.04-.16.09-.34.16-.55l.8-2.62h1.1zm1.82 1.96h.48c.35 0 .63-.06.82-.19.19-.13.29-.29.29-.48s-.08-.35-.25-.46c-.16-.12-.39-.17-.68-.17-.19 0-.38.03-.57.09-.19.06-.37.14-.53.23l-.27-.68c.27-.15.54-.25.81-.31s.54-.08.81-.08c.21 0 .43.02.65.06.21.04.41.11.58.21.17.1.31.23.41.39.11.16.16.36.16.6 0 .15-.03.28-.09.39-.06.11-.13.21-.23.3s-.21.16-.32.21c-.12.06-.24.1-.36.12v.03c.15.02.3.06.45.12.15.06.28.13.39.23.12.09.21.21.28.34.07.13.1.28.1.45 0 .28-.07.51-.2.7-.13.19-.31.34-.52.45-.21.11-.44.19-.69.24a4.116 4.116 0 01-1.6-.02c-.29-.06-.54-.16-.77-.29l.27-.69c.17.09.36.17.58.23.22.06.44.09.66.09.36 0 .63-.07.82-.21.19-.14.29-.31.29-.52 0-.14-.03-.25-.1-.34a.868.868 0 00-.27-.23c-.12-.06-.25-.1-.41-.12a3.84 3.84 0 00-.5-.03h-.49v-.66zm5.59-1.96v1.67c0 .38-.01.72-.02 1.03-.01.3-.03.62-.05.96l.02.02c.12-.25.24-.49.36-.72.12-.24.24-.48.37-.72l1.16-2.23h1.36v4.71h-.99v-1.67c0-.35.01-.7.03-1.05.02-.35.03-.7.05-1.06h-.05c-.11.29-.22.54-.33.76-.11.21-.22.43-.33.66-.2.39-.4.78-.6 1.16-.2.39-.41.79-.62 1.19h-1.36V8.72h1zm8.74 0v.86h-1.44v3.85h-1.03V9.58h-1.43v-.86h3.9zm5.34 2.13c0 .09 0 .18-.01.26l-.03.22h-3.14c.01.45.15.79.42 1.03s.62.36 1.06.36c.46 0 .88-.07 1.27-.22l.16.73c-.45.19-.97.29-1.58.29-.37 0-.7-.06-.99-.17-.29-.11-.54-.27-.74-.48-.2-.21-.35-.46-.46-.75-.1-.29-.16-.62-.16-.98s.05-.7.16-1c.11-.31.26-.57.45-.8.19-.23.43-.4.7-.53.27-.13.58-.19.92-.19.3 0 .57.05.81.16.24.11.45.26.62.46.17.2.3.43.39.71.1.26.15.57.15.9zm-1-.27c0-.37-.09-.67-.27-.9-.18-.23-.44-.35-.77-.35-.3 0-.56.12-.78.35-.21.23-.34.53-.37.89h2.19v.01zm5.22-1.82c.19-.03.43-.06.72-.08.29-.02.59-.03.89-.03.19 0 .41.01.65.03.24.02.48.07.69.15.22.08.4.2.55.36.15.16.23.38.23.66 0 .14-.03.27-.08.38-.05.11-.12.21-.21.3-.09.08-.19.15-.3.21-.11.06-.23.1-.35.12l.01.03c.34.06.62.18.83.37.21.19.32.45.32.78s-.09.59-.27.79c-.18.19-.4.34-.67.44-.27.1-.54.16-.84.18-.29.02-.56.04-.79.04-.26 0-.51-.01-.76-.02s-.46-.03-.62-.04V8.76zm1.01 1.88h.53c.16 0 .32-.01.46-.03.15-.02.27-.06.38-.11.11-.05.2-.11.26-.19s.09-.18.09-.3c0-.21-.09-.37-.27-.47-.18-.1-.46-.15-.84-.15-.11 0-.21 0-.29.01-.08.01-.19.02-.33.03v1.21h.01zm0 2.09c.13.01.24.02.32.03.09.01.19.01.31.01.14 0 .29-.01.44-.03.15-.02.29-.06.41-.11s.22-.13.29-.22c.07-.09.11-.22.11-.37 0-.27-.12-.46-.36-.56-.24-.1-.56-.15-.97-.15h-.55v1.4z" fill="#fff"/></g><defs><clipPath id="clip0_125_1225"><path fill="#fff" d="M0 0h135v40H0z"/></clipPath></defs></svg>