<svg width="201" height="193" fill="none" xmlns="http://www.w3.org/2000/svg"><path d="M170.714 57.822v-2.191l-1.898-1.096-66.767-38.548-1.898-1.095-1.898 1.095-66.767 38.548-1.898 1.096v81.479l1.898 1.096 66.767 38.548 1.898 1.095 1.898-1.095 66.767-38.548 1.898-1.096V57.822z" fill="#009EFF" stroke="#F7F7F7" stroke-width="7.591"/><path d="M137.417 70.368a2.136 2.136 0 00-3.623-1.21l-3.019 3.022c-1.614 1.613-4.426 1.613-6.04 0a4.265 4.265 0 010-6.038l3.019-3.02a2.136 2.136 0 00-1.209-3.623 12.847 12.847 0 00-10.867 3.622 12.861 12.861 0 00-3.317 12.376L80.796 107.06l-.003-.002c-4.392-1.166-9.16.106-12.373 3.319a12.887 12.887 0 00-3.624 10.868 2.136 2.136 0 003.624 1.209l3.019-3.021c1.613-1.613 4.426-1.613 6.04 0a4.266 4.266 0 010 6.038l-3.02 3.019a2.134 2.134 0 001.21 3.624c3.974.565 7.972-.73 10.866-3.622a12.861 12.861 0 003.318-12.376l31.565-31.564.002.002c4.416 1.17 9.161-.106 12.374-3.319a12.888 12.888 0 003.623-10.868z" fill="#fff"/><path d="M124.733 106.625c-1.011 0-2.052.152-3.273.475l-8.275-8.273-9.06 9.058 8.274 8.274c-.323 1.224-.476 2.264-.476 3.275 0 7.064 5.746 12.81 12.81 12.81s12.809-5.746 12.809-12.81c0-7.063-5.745-12.809-12.809-12.809zm7.005 12.382l-1.27 4.737a2.138 2.138 0 01-1.509 1.509l-4.737 1.27c-.696.192-1.5.01-2.062-.553l-3.467-3.467a2.132 2.132 0 01-.552-2.062l1.269-4.736a2.142 2.142 0 011.51-1.51l4.737-1.269a2.12 2.12 0 012.062.552l3.467 3.467c.54.54.75 1.326.552 2.062zM89.85 75.376A12.86 12.86 0 0086.531 63c-4.839-4.837-13.28-4.837-18.115 0-4.993 4.995-4.993 13.122 0 18.115a12.87 12.87 0 0012.376 3.317l8.238 8.356 9.058-9.057-8.24-8.355zm-5.584-3.96l-1.27 4.737a2.14 2.14 0 01-1.509 1.51l-4.737 1.27c-.696.191-1.5.009-2.062-.553l-3.467-3.467a2.133 2.133 0 01-.552-2.062l1.27-4.737a2.14 2.14 0 011.509-1.51l4.737-1.27c.736-.2 1.521.013 2.061.553l3.468 3.468c.54.54.75 1.325.552 2.061z" fill="#fff"/></svg>