<svg width="10" height="16" fill="none" xmlns="http://www.w3.org/2000/svg"><path fill-rule="evenodd" clip-rule="evenodd" d="M2.5 15.795c-1.018 0-1.85-.82-1.85-1.84V3.244c0-1.019.832-1.839 1.85-1.839h.85V.9a.5.5 0 01.5-.5h2.698a.5.5 0 01.5.5v.504h.85c1.018 0 1.85.82 1.85 1.84v10.712a1.845 1.845 0 01-1.85 1.839H2.5zm-.85-1.84c0 .46.377.84.85.84h5.398c.473 0 .85-.38.85-.84V3.244a.844.844 0 00-.85-.839h-1.35a.5.5 0 01-.5-.5V1.4H4.35v.504a.5.5 0 01-.5.5H2.5a.845.845 0 00-.849.84v10.712z" fill="#009EFF"/><path fill-rule="evenodd" clip-rule="evenodd" d="M3.849 11.696a.9.9 0 000 1.8h2.699a.9.9 0 000-1.8h-2.7zm0-3.599a.9.9 0 000 1.8h2.699a.9.9 0 000-1.8h-2.7zm0-3.598a.9.9 0 000 1.8h2.699a.9.9 0 000-1.8h-2.7z" fill="#009EFF"/></svg>