<svg width="16" height="16" fill="none" xmlns="http://www.w3.org/2000/svg"><mask id="a" fill="#fff"><path d="M3.833 1.764a7.5 7.5 0 118.334 12.472A7.5 7.5 0 013.833 1.764z"/></mask><path d="M7.5 11a.5.5 0 001 0h-1zM8 5.5l.354-.354a.5.5 0 00-.708 0L8 5.5zm2.146 2.854a.5.5 0 00.708-.708l-.708.708zm-5-.708a.5.5 0 10.708.708l-.708-.708zM8.5 11V5.5h-1V11h1zm-.854-5.146l2.5 2.5.708-.708-2.5-2.5-.708.708zm0-.708l-2.5 2.5.708.708 2.5-2.5-.708-.708zM3.833 1.764l.556.831-.556-.831zm-1.136 11.54l-.707.706.707-.707zM14.929 5.13l-.924.383.924-.383zm-1.626-2.433l-.707.707.707-.707zM8-.5A8.5 8.5 0 003.278.933l1.11 1.662A6.5 6.5 0 018 1.5v-2zM3.278.933A8.5 8.5 0 00.147 4.747l1.848.766a6.5 6.5 0 012.394-2.918L3.278.933zM.147 4.747a8.5 8.5 0 00-.484 4.911l1.962-.39a6.5 6.5 0 01.37-3.755L.147 4.747zm-.484 4.911A8.5 8.5 0 001.99 14.01l1.414-1.414a6.5 6.5 0 01-1.78-3.328l-1.96.39zM1.99 14.01a8.5 8.5 0 004.352 2.327l.39-1.962a6.5 6.5 0 01-3.328-1.779L1.99 14.01zm4.352 2.327a8.5 8.5 0 004.91-.484l-.765-1.848a6.5 6.5 0 01-3.755.37l-.39 1.962zm4.91-.484a8.5 8.5 0 003.816-3.13l-1.663-1.112a6.5 6.5 0 01-2.918 2.394l.766 1.848zm3.816-3.13A8.5 8.5 0 0016.5 8h-2a6.5 6.5 0 01-1.095 3.611l1.663 1.111zM16.5 8c0-1.116-.22-2.222-.647-3.253l-1.848.766A6.5 6.5 0 0114.5 8h2zm-.647-3.253A8.5 8.5 0 0014.01 1.99l-1.414 1.414a6.499 6.499 0 011.41 2.109l1.847-.766zM14.01 1.99A8.5 8.5 0 0011.253.147l-.766 1.848a6.5 6.5 0 012.11 1.409L14.01 1.99zM11.253.147A8.5 8.5 0 008-.5v2a6.5 6.5 0 012.487.495l.766-1.848z" fill="#009EFF" mask="url(#a)"/></svg>