<svg width="17" height="17" fill="none" xmlns="http://www.w3.org/2000/svg"><path fill-rule="evenodd" clip-rule="evenodd" d="M8.5.5A.5.5 0 019 1v1.73a.5.5 0 01-1 0V1a.5.5 0 01.5-.5zM2.843 2.843a.5.5 0 01.707 0l1.224 1.224a.5.5 0 01-.707.707L2.843 3.55a.5.5 0 010-.707zm11.314 0a.5.5 0 010 .707l-1.224 1.224a.5.5 0 11-.707-.707l1.224-1.224a.5.5 0 01.707 0zM.5 8.5A.5.5 0 011 8h1.73a.5.5 0 010 1H1a.5.5 0 01-.5-.5zm13.27 0a.5.5 0 01.5-.5H16a.5.5 0 010 1h-1.73a.5.5 0 01-.5-.5zm-8.996 3.726a.5.5 0 010 .707L3.55 14.157a.5.5 0 11-.707-.707l1.224-1.224a.5.5 0 01.707 0zm7.452 0a.5.5 0 01.707 0l1.224 1.224a.5.5 0 11-.707.707l-1.224-1.224a.5.5 0 010-.707zM8.5 13.769a.5.5 0 01.5.5V16a.5.5 0 01-1 0v-1.73a.5.5 0 01.5-.5zm0-7.497a2.227 2.227 0 100 4.455 2.227 2.227 0 000-4.455zM5.274 8.5a3.227 3.227 0 116.455 0 3.227 3.227 0 01-6.455 0z" fill="#009EFF"/></svg>