<svg width="98" height="98" fill="none" xmlns="http://www.w3.org/2000/svg"><path d="M72.923 7.565L96.845 49 72.923 90.435H25.077L1.155 49 25.077 7.565h47.846z" stroke="#CCC" stroke-width="2"/><g clip-path="url(#clip0_9220_5883)" fill="#CCC"><path d="M55.23 37.895a9.976 9.976 0 00-7.124-2.971 9.977 9.977 0 00-7.125 2.971c-3.928 3.955-3.928 10.39 0 14.345a9.977 9.977 0 007.125 2.971 9.976 9.976 0 007.124-2.97c3.928-3.956 3.928-10.391 0-14.346zm-.86 13.48a8.769 8.769 0 01-6.264 2.612 8.769 8.769 0 01-6.263-2.613c-3.454-3.477-3.454-9.136 0-12.614a8.769 8.769 0 016.263-2.612 8.77 8.77 0 016.263 2.612c3.454 3.478 3.454 9.137 0 12.614z"/><path d="M53.345 39.793a7.334 7.334 0 00-5.239-2.185c-1.979 0-3.84.777-5.24 2.185a.615.615 0 00.001.867.606.606 0 00.861-.001 6.13 6.13 0 014.378-1.826 6.13 6.13 0 014.378 1.826.606.606 0 00.86 0 .615.615 0 000-.866zm-8.972 22.381H31.609a.61.61 0 00-.609.612v3.601a.61.61 0 00.609.612h2.643a.61.61 0 00.61-.612.61.61 0 00-.61-.612h-2.034v-2.376h11.546v2.376h-5.57a.61.61 0 00-.609.612.61.61 0 00.61.612h6.178a.61.61 0 00.609-.612v-3.6a.61.61 0 00-.61-.613z"/><path d="M66.822 59.839l-5.204-5.235a.607.607 0 00-.86 0l-.297.298-1.878-1.888c3.056-4.12 3.48-9.768.914-14.332a.606.606 0 00-.83-.23.614.614 0 00-.23.833c2.44 4.341 1.898 9.763-1.253 13.535l-.032.037c-.04.049-.082.096-.123.144a5.529 5.529 0 01-.057.065l-.115.128-.077.083-.108.115-.084.087-.1.103a11.88 11.88 0 01-.44.421l-.023.02a11.8 11.8 0 01-7.932 3.047 11.81 11.81 0 01-8.395-3.489 11.878 11.878 0 01-3.477-8.434c0-3.186 1.235-6.181 3.477-8.434 4.63-4.651 12.16-4.651 16.79 0a.606.606 0 00.861 0 .615.615 0 000-.867c-5.104-5.128-13.408-5.128-18.51 0a13.099 13.099 0 00-3.835 9.3c0 1.674.31 3.3.9 4.812H31.61a.611.611 0 00-.609.612v3.601a.61.61 0 00.609.612h7.578c.467.437.958.833 1.47 1.188H31.61a.611.611 0 00-.609.613v3.6a.61.61 0 00.609.613h21.846a.61.61 0 00.61-.612v-3.333a12.974 12.974 0 001.873-1.176l1.877 1.888-.297.298a.614.614 0 000 .866l5.204 5.234a.607.607 0 00.861 0l3.24-3.257a.616.616 0 00-.001-.866zm-34.604-6.28v-2.376h4.24c.433.842.96 1.638 1.573 2.376h-5.813zm20.628 6.013H32.218v-2.376H42.53a.609.609 0 00.22-.042 13.087 13.087 0 0010.095.247v2.171zm4.036-4.677l.184-.172.045-.041c.08-.077.16-.155.239-.235l.092-.094.111-.116.11-.116.092-.1.05-.056L59.6 55.77l-.924.93-1.793-1.804zm6.27 7.768l-4.343-4.368.295-.297.002-.001 1.785-1.795.001-.002.295-.297 4.343 4.369-2.378 2.391z"/></g><defs><clipPath id="clip0_9220_5883"><path fill="#fff" transform="translate(31 32)" d="M0 0h36v35H0z"/></clipPath></defs></svg>