<svg width="98" height="98" fill="none" xmlns="http://www.w3.org/2000/svg"><path d="M72.923 7.565L96.845 49 72.923 90.435H25.077L1.155 49 25.077 7.565h47.846z" stroke="#CCC" stroke-width="2"/><g clip-path="url(#clip0_9220_5885)" fill="#CCC"><path d="M56.345 62.375a.597.597 0 00-.727.442l-.6 2.428a.607.607 0 00.583.755.601.601 0 00.58-.46l.6-2.428a.608.608 0 00-.436-.737zM49 50.214a.59.59 0 00.23-.046l6.6-2.763a.61.61 0 00.324-.793.6.6 0 00-.784-.33L49 48.95l-16.8-7.035v-.201a.604.604 0 00-.6-.608.605.605 0 00-.6.608v.607c0 .246.146.468.37.561l17.4 7.286a.59.59 0 00.23.046zm7.138 6.221a.596.596 0 00-.804-.276c-1.14.57-3.042 1.233-5.734 1.324v-5.447a.604.604 0 00-.6-.607c-.331 0-.6.272-.6.607v5.441c-7.45-.24-9.854-4.807-10.2-5.567v-4.124a.604.604 0 00-.6-.607c-.331 0-.6.272-.6.607v4.25a.63.63 0 00.042.225c.105.264 2.659 6.453 11.958 6.453 3.25 0 5.528-.797 6.866-1.466a.61.61 0 00.272-.813zM58 62.965c-.332 0-.6.272-.6.607v1.821c0 .335.268.608.6.608.332 0 .6-.273.6-.608v-1.821a.604.604 0 00-.6-.607z"/><path d="M66.4 41.107c-.332 0-.6.272-.6.607v.201l-7.2 2.999v-1.097l8.03-3.363a.606.606 0 00.37-.56.607.607 0 00-.37-.561l-17.4-7.287a.594.594 0 00-.459 0l-17.4 7.286a.606.606 0 00-.371.56c0 .246.146.468.37.561l17.4 7.286a.589.589 0 00.46 0l6.291-2.635a.61.61 0 00.325-.792.598.598 0 00-.783-.33L49 46.523l-15.831-6.629L49 33.263l15.831 6.63-6.889 2.885-6.598-2.493c.035-.127.056-.256.056-.392 0-1.021-1.054-1.821-2.4-1.821-1.346 0-2.4.8-2.4 1.821s1.054 1.821 2.4 1.821c.6 0 1.136-.165 1.553-.432l6.847 2.587v14.957c-.697.252-1.2.92-1.2 1.71 0 1.004.808 1.821 1.8 1.821s1.8-.817 1.8-1.821c0-.79-.503-1.458-1.2-1.71V55.38c1.722-1.316 2.34-3.068 2.367-3.146a.616.616 0 00.033-.198v-4.25a.603.603 0 00-.6-.607c-.332 0-.6.272-.6.607v4.137a6.218 6.218 0 01-1.2 1.834v-7.53l8.029-3.343a.606.606 0 00.371-.562v-.607a.604.604 0 00-.6-.608zM49 40.5c-.732 0-1.2-.36-1.2-.607 0-.248.468-.607 1.2-.607.733 0 1.2.36 1.2.607 0 .248-.468.607-1.2.607zm9 20.643a.604.604 0 01-.6-.607c0-.335.269-.607.6-.607.331 0 .6.272.6.607a.604.604 0 01-.6.607zm2.382 1.674a.6.6 0 00-.727-.441.608.608 0 00-.437.736l.6 2.429a.601.601 0 00.727.44.608.608 0 00.438-.736l-.601-2.428z"/></g><defs><clipPath id="clip0_9220_5885"><path fill="#fff" transform="translate(31 32)" d="M0 0h36v34H0z"/></clipPath></defs></svg>