<svg width="155" height="60" fill="none" xmlns="http://www.w3.org/2000/svg"><g clip-path="url(#clip0_125_1196)"><path d="M140 50H15c-2.75 0-5-2.25-5-5V15c0-2.75 2.25-5 5-5h125c2.75 0 5 2.25 5 5v30c0 2.75-2.25 5-5 5z" fill="#000"/><path d="M140 10.8a4.2 4.2 0 014.2 4.2v30a4.2 4.2 0 01-4.2 4.2H15a4.2 4.2 0 01-4.2-4.2V15a4.2 4.2 0 014.2-4.2h125zm0-.8H15c-2.75 0-5 2.25-5 5v30c0 2.75 2.25 5 5 5h125c2.75 0 5-2.25 5-5V15c0-2.75-2.25-5-5-5z" fill="#A6A6A6"/><path d="M78.14 31.75c-2.35 0-4.27 1.79-4.27 4.25 0 2.45 1.92 4.25 4.27 4.25 2.35 0 4.27-1.8 4.27-4.25-.01-2.46-1.92-4.25-4.27-4.25zm0 6.83c-1.29 0-2.4-1.06-2.4-2.58 0-1.53 1.11-2.58 2.4-2.58 1.29 0 2.4 1.05 2.4 2.58 0 1.52-1.12 2.58-2.4 2.58zm-9.32-6.83c-2.35 0-4.27 1.79-4.27 4.25 0 2.45 1.92 4.25 4.27 4.25 2.35 0 4.27-1.8 4.27-4.25 0-2.46-1.92-4.25-4.27-4.25zm0 6.83c-1.29 0-2.4-1.06-2.4-2.58 0-1.53 1.11-2.58 2.4-2.58 1.29 0 2.4 1.05 2.4 2.58 0 1.52-1.11 2.58-2.4 2.58zm-11.08-5.52v1.8h4.32c-.13 1.01-.47 1.76-.98 2.27-.63.63-1.61 1.32-3.34 1.32-2.66 0-4.74-2.14-4.74-4.8 0-2.66 2.08-4.8 4.74-4.8 1.43 0 2.48.56 3.25 1.29l1.27-1.27c-1.08-1.03-2.51-1.82-4.53-1.82-3.64 0-6.7 2.96-6.7 6.61 0 3.64 3.06 6.6 6.7 6.6 1.96 0 3.45-.65 4.61-1.85 1.19-1.19 1.56-2.87 1.56-4.22 0-.42-.03-.81-.1-1.13h-6.06zm45.31 1.4c-.35-.95-1.43-2.71-3.64-2.71-2.19 0-4.01 1.72-4.01 4.25 0 2.38 1.81 4.25 4.22 4.25 1.95 0 3.08-1.19 3.54-1.88l-1.45-.97c-.48.71-1.14 1.18-2.09 1.18s-1.63-.43-2.06-1.29l5.69-2.35-.2-.48zm-5.8 1.42c-.05-1.64 1.27-2.48 2.22-2.48.74 0 1.37.37 1.58.9l-3.8 1.58zM92.63 40h1.87V27.5h-1.87V40zm-3.06-7.3h-.07c-.42-.5-1.23-.95-2.24-.95-2.13 0-4.08 1.87-4.08 4.27 0 2.38 1.95 4.24 4.08 4.24 1.02 0 1.82-.45 2.24-.97h.06v.61c0 1.63-.87 2.5-2.27 2.5-1.14 0-1.85-.82-2.14-1.51l-1.63.68c.47 1.13 1.71 2.51 3.77 2.51 2.19 0 4.04-1.29 4.04-4.43v-7.64h-1.77l.01.69zm-2.15 5.88c-1.29 0-2.37-1.08-2.37-2.56 0-1.5 1.08-2.59 2.37-2.59 1.27 0 2.27 1.09 2.27 2.59.01 1.48-.99 2.56-2.27 2.56zm24.39-11.08h-4.47V40h1.87v-4.74h2.6c2.07 0 4.1-1.5 4.1-3.88s-2.04-3.88-4.1-3.88zm.04 6.02h-2.65v-4.28h2.65c1.4 0 2.19 1.16 2.19 2.14 0 .97-.79 2.14-2.19 2.14zm11.54-1.79c-1.35 0-2.75.6-3.33 1.91l1.66.69c.35-.69 1.01-.92 1.71-.92.96 0 1.95.58 1.96 1.61v.13c-.34-.19-1.06-.48-1.95-.48-1.79 0-3.6.98-3.6 2.81 0 1.67 1.46 2.75 3.1 2.75 1.25 0 1.95-.56 2.38-1.22h.06v.96h1.8v-4.79c0-2.21-1.66-3.45-3.79-3.45zm-.23 6.85c-.61 0-1.46-.31-1.46-1.06 0-.96 1.06-1.33 1.98-1.33.82 0 1.21.18 1.7.42a2.264 2.264 0 01-2.22 1.97zM133.74 32l-2.14 5.42h-.06L129.32 32h-2.01l3.33 7.58-1.9 4.21h1.95L135.82 32h-2.08zm-16.8 8h1.86V27.5h-1.86V40z" fill="#fff"/><path d="M20.44 17.54c-.29.31-.46.79-.46 1.4v22.12c0 .62.17 1.1.46 1.41l.07.07L32.9 30.15v-.3L20.51 17.46l-.07.08z" fill="url(#paint0_linear_125_1196)"/><path d="M37.03 34.28l-4.13-4.13v-.3l4.13-4.13.09.05 4.89 2.78c1.4.79 1.4 2.09 0 2.89l-4.89 2.78-.09.06z" fill="url(#paint1_linear_125_1196)"/><path d="M37.12 34.22L32.9 30 20.44 42.46c.46.49 1.22.55 2.08.06l14.6-8.3z" fill="url(#paint2_linear_125_1196)"/><path d="M37.12 25.78l-14.61-8.3c-.86-.49-1.62-.43-2.08.06L32.9 30l4.22-4.22z" fill="url(#paint3_linear_125_1196)"/><path opacity=".2" d="M37.03 34.13l-14.51 8.25c-.81.46-1.54.43-2 .01l-.07.07.07.07c.47.42 1.19.45 2-.01l14.61-8.3-.1-.09z" fill="#000"/><path opacity=".12" d="M20.44 42.321c-.29-.31-.46-.79-.46-1.41v.15c0 .62.17 1.1.46 1.41l.07-.07-.07-.08zM42.02 31.3l-4.99 2.83.09.09 4.89-2.78c.7-.4 1.05-.92 1.05-1.44-.06.48-.41.94-1.04 1.3z" fill="#000"/><path opacity=".25" d="M22.51 17.62l19.5 11.08c.63.36.99.82 1.05 1.3 0-.52-.35-1.05-1.05-1.44l-19.5-11.08c-1.4-.79-2.54-.13-2.54 1.47v.15c0-1.61 1.15-2.27 2.54-1.48z" fill="#fff"/><path d="M52.11 24.27h-.74v-2.01h.59c.52-.45.77-1.21.76-2.3V17h4.01v5.26h.67v2.01h-.74V23h-4.55v1.27zm1.39-4.3c.01.95-.18 1.72-.57 2.3h3.03v-4.53H53.5v2.23zm9.92 2.26c-.59.61-1.32.91-2.2.91-.88 0-1.61-.3-2.2-.91-.59-.61-.88-1.35-.88-2.23 0-.88.29-1.62.88-2.23.59-.61 1.32-.91 2.2-.91.87 0 1.6.31 2.2.91.58.62.88 1.36.88 2.23 0 .88-.3 1.62-.88 2.23zm-3.84-.51c.44.45.99.67 1.63.67.64 0 1.19-.23 1.63-.67.44-.45.67-1.02.67-1.72s-.22-1.27-.67-1.72c-.44-.45-.99-.67-1.63-.67-.64 0-1.19.23-1.63.67-.44.45-.67 1.02-.67 1.72.01.7.23 1.27.67 1.72zm8.6 1.41c-.88 0-1.62-.3-2.22-.9-.6-.6-.9-1.34-.9-2.24 0-.9.3-1.64.9-2.24.6-.6 1.34-.9 2.22-.9.9 0 1.64.33 2.2.98l-.54.52c-.41-.51-.96-.76-1.67-.76-.65 0-1.21.22-1.66.66-.45.44-.67 1.02-.67 1.73s.23 1.29.67 1.73c.45.44 1 .66 1.66.66.72 0 1.33-.29 1.84-.87l.54.54c-.27.33-.62.59-1.03.78-.4.22-.85.31-1.34.31zm5.5-.13h-.77v-5.26h-1.68V17h4.12v.74h-1.68V23h.01zm6.97-6l-2.27 5.06c-.31.71-.78 1.07-1.4 1.07-.19 0-.38-.04-.6-.13l.2-.71c.13.07.26.11.4.11.18 0 .32-.04.42-.1.1-.07.19-.2.27-.38l.22-.48L75.87 17h.9l1.48 3.44h.03L79.74 17h.91zm.87 6v-6h4.34v6h-.77v-5.26h-2.8V23h-.77zm5.71 0v-6H88v2.57h3V17h.77v6H91v-2.71h-3V23h-.77zm10.83-.77c-.59.61-1.32.91-2.2.91-.88 0-1.61-.3-2.2-.91-.59-.61-.88-1.35-.88-2.23 0-.88.29-1.62.88-2.23.59-.61 1.32-.91 2.2-.91.87 0 1.6.31 2.2.91.59.61.89 1.35.89 2.22-.01.89-.3 1.63-.89 2.24zm-3.83-.51c.44.45.99.67 1.63.67.64 0 1.19-.23 1.63-.67.44-.45.67-1.02.67-1.72s-.22-1.27-.67-1.72c-.44-.45-.99-.67-1.63-.67-.64 0-1.19.23-1.63.67-.44.45-.67 1.02-.67 1.72s.22 1.27.67 1.72zm7.86 1.28v-6h2.17c.47 0 .88.15 1.22.46.34.31.52.7.52 1.17 0 .29-.07.54-.22.75-.15.22-.35.38-.59.49v.03c.3.1.54.27.73.52.19.25.29.53.29.85 0 .49-.18.9-.54 1.22-.36.32-.79.49-1.28.49h-2.3V23zm.77-3.43h1.4c.29 0 .52-.1.7-.29.18-.19.26-.4.26-.63 0-.23-.08-.44-.26-.63a.855.855 0 00-.67-.29h-1.43v1.84zm0 2.69h1.55c.3 0 .54-.1.72-.31.18-.21.28-.43.28-.68 0-.25-.1-.47-.29-.67a.994.994 0 00-.75-.31h-1.52v1.97h.01z" fill="#fff" stroke="#fff" stroke-width=".2" stroke-miterlimit="10"/></g><defs><linearGradient id="paint0_linear_125_1196" x1="31.801" y1="18.71" x2="15.018" y2="35.492" gradientUnits="userSpaceOnUse"><stop stop-color="#00A0FF"/><stop offset=".007" stop-color="#00A1FF"/><stop offset=".26" stop-color="#00BEFF"/><stop offset=".512" stop-color="#00D2FF"/><stop offset=".76" stop-color="#00DFFF"/><stop offset="1" stop-color="#00E3FF"/></linearGradient><linearGradient id="paint1_linear_125_1196" x1="43.834" y1="30.002" x2="19.638" y2="30.002" gradientUnits="userSpaceOnUse"><stop stop-color="#FFE000"/><stop offset=".409" stop-color="#FFBD00"/><stop offset=".775" stop-color="orange"/><stop offset="1" stop-color="#FF9C00"/></linearGradient><linearGradient id="paint2_linear_125_1196" x1="34.829" y1="32.295" x2="12.07" y2="55.053" gradientUnits="userSpaceOnUse"><stop stop-color="#FF3A44"/><stop offset="1" stop-color="#C31162"/></linearGradient><linearGradient id="paint3_linear_125_1196" x1="17.298" y1="10.177" x2="27.46" y2="20.339" gradientUnits="userSpaceOnUse"><stop stop-color="#32A071"/><stop offset=".069" stop-color="#2DA771"/><stop offset=".476" stop-color="#15CF74"/><stop offset=".801" stop-color="#06E775"/><stop offset="1" stop-color="#00F076"/></linearGradient><clipPath id="clip0_125_1196"><path fill="#fff" d="M0 0h155v60H0z"/></clipPath></defs></svg>