<svg width="27" height="17" fill="none" xmlns="http://www.w3.org/2000/svg"><g clip-path="url(#clip0_125_754)"><path opacity=".07" d="M24.29 0H2.795C1.653 0 .78.873.78 2.015v12.09a2.02 2.02 0 002.015 2.016H24.29c1.142 0 2.015-.873 2.015-2.015V2.016A2.02 2.02 0 0024.29 0z" fill="#000"/><path d="M24.29.672c.739 0 1.344.604 1.344 1.343v12.09c0 .74-.605 1.344-1.344 1.344H2.796a1.347 1.347 0 01-1.344-1.343V2.016c0-.74.605-1.344 1.344-1.344H24.29z" fill="#fff"/><path d="M16.834 5.575c.134-.672 0-1.142-.403-1.545-.403-.47-1.142-.671-2.082-.671h-2.754c-.202 0-.336.134-.403.335l-1.008 6.785c0 .134.067.268.202.268h1.813l.269-2.284 1.209-1.477 3.157-1.41z" fill="#003087"/><path d="M16.834 5.575l-.134.134c-.336 1.881-1.478 2.553-3.09 2.553h-.739c-.202 0-.336.134-.403.336l-.403 2.62-.134.671c0 .135.067.269.201.269h1.41c.202 0 .337-.134.337-.269v-.067l.268-1.612v-.067c0-.135.202-.269.336-.269h.202c1.41 0 2.485-.537 2.754-2.15.134-.671.067-1.208-.27-1.612-.066-.335-.2-.47-.335-.537z" fill="#3086C8"/><path d="M16.43 5.44c-.066-.066-.133-.066-.2-.066-.068 0-.135 0-.202-.068-.202-.067-.47-.067-.74-.067h-2.014c-.067 0-.134 0-.134.067-.135.068-.202.135-.202.27l-.47 2.955v.067c0-.202.201-.336.403-.336h.873c1.68 0 2.754-.672 3.09-2.552v-.135a.513.513 0 00-.336-.134h-.067z" fill="#012169"/></g><defs><clipPath id="clip0_125_754"><path fill="#fff" transform="translate(.78)" d="M0 0h25.525v16.121H0z"/></clipPath></defs></svg>