<svg width="27" height="17" fill="none" xmlns="http://www.w3.org/2000/svg"><g clip-path="url(#clip0_125_695)"><path opacity=".07" d="M24.204 0H2.71A2.015 2.015 0 00.695 2.015v12.09a2.015 2.015 0 002.015 2.016h21.494a2.015 2.015 0 002.015-2.015V2.016A2.015 2.015 0 0024.204 0z" fill="#000"/><path d="M24.205.672a1.343 1.343 0 011.343 1.343v12.09a1.343 1.343 0 01-1.343 1.344H2.71a1.344 1.344 0 01-1.343-1.343V2.016A1.343 1.343 0 012.71.671h21.495z" fill="#fff"/><path d="M13.457 13.434a5.374 5.374 0 100-10.747 5.374 5.374 0 000 10.747z" fill="#8DC451"/><path d="M14.948 7.678c.117-.233.154-.497.108-.753a1.217 1.217 0 00-1.444-1.168l-.155-1.055a.067.067 0 00-.074-.06l-.39.06a.067.067 0 00-.046.08l.181 1.062-.483.087-.182-1.034a.066.066 0 00-.024-.046.068.068 0 00-.05-.015l-.362.067a.067.067 0 00-.047.074l.188 1.068-1.021.182a.067.067 0 00-.047.08l.067.41a.067.067 0 00.074.06h.06a.524.524 0 01.578.47l.39 2.157a.537.537 0 01-.343.624.067.067 0 00-.047.061v.43a.08.08 0 000 .06.06.06 0 00.053 0l1.008-.174.181 1.034a.068.068 0 00.074.054l.363-.067a.067.067 0 00.047-.08l-.148-1.008.477-.088.182 1.035a.068.068 0 00.073.053l.363-.06a.067.067 0 00.047-.08l-.181-1.035.242-.04a1.21 1.21 0 00.96-1.592 1.142 1.142 0 00-.672-.86v.007zm-2.162-.92l.718-.128a.564.564 0 01.196 1.1l-.719.128-.194-1.102zm1.45 2.585l-.96.168-.195-1.101.96-.168a.564.564 0 01.195 1.101z" fill="#fff"/></g><defs><clipPath id="clip0_125_695"><path fill="#fff" transform="translate(.695)" d="M0 0h25.525v16.121H0z"/></clipPath></defs></svg>