<svg width="27" height="17" fill="none" xmlns="http://www.w3.org/2000/svg"><g clip-path="url(#clip0_125_748)"><path opacity=".07" d="M24.392 0H2.896C1.755 0 .882.873.882 2.015v12.09a2.02 2.02 0 002.015 2.016h21.495c1.141 0 2.015-.873 2.015-2.015V2.016A2.02 2.02 0 0024.392 0z" fill="#000"/><path d="M24.392.672c.739 0 1.343.604 1.343 1.343v12.09c0 .74-.604 1.344-1.343 1.344H2.897a1.347 1.347 0 01-1.343-1.343V2.016c0-.74.604-1.344 1.343-1.344h21.495z" fill="#fff"/><path d="M10.957 12.762a4.702 4.702 0 100-9.404 4.702 4.702 0 000 9.404z" fill="#EB001B"/><path d="M16.33 12.762a4.702 4.702 0 100-9.404 4.702 4.702 0 000 9.404z" fill="#F79E1B"/><path d="M15.66 8.06a4.585 4.585 0 00-2.016-3.828c-1.209.873-2.015 2.284-2.015 3.828 0 1.545.806 3.023 2.015 3.83 1.21-.807 2.015-2.217 2.015-3.83z" fill="#FF5F00"/></g><defs><clipPath id="clip0_125_748"><path fill="#fff" transform="translate(.882)" d="M0 0h25.525v16.121H0z"/></clipPath></defs></svg>