<svg width="27" height="17" fill="none" xmlns="http://www.w3.org/2000/svg"><g clip-path="url(#clip0_125_690)"><path opacity=".07" d="M24.306 0H2.813C1.67 0 .797.873.797 2.015v12.09a2.02 2.02 0 002.015 2.016h21.495c1.141 0 2.015-.873 2.015-2.015V2.016A2.02 2.02 0 0024.307 0z" fill="#000"/><path d="M24.307.672c.739 0 1.343.604 1.343 1.343v12.09c0 .74-.604 1.344-1.343 1.344H2.812a1.347 1.347 0 01-1.343-1.343V2.016c0-.74.604-1.344 1.343-1.344h21.495z" fill="#fff"/><path d="M15.306 2.955c-2.821-.94-5.844.538-6.852 3.359-1.007 2.821.538 5.844 3.359 6.851 2.821 1.008 5.844-.537 6.851-3.358.94-2.821-.537-5.844-3.358-6.852z" fill="#EDA024"/><path d="M11.611 5.575l.202-.672c.403.135.873.27 1.276.47.134-.335.269-.671.336-1.074l.604.201-.335 1.008.537.201.336-1.007.604.201c-.134.336-.268.672-.335 1.075l.268.134c.202.135.403.27.605.47.201.202.268.404.336.672 0 .202 0 .403-.135.605-.134.336-.336.537-.739.604h-.134a.524.524 0 01.269.27c.268.268.336.536.268.94 0 .067 0 .134-.067.201 0 .067 0 .067-.067.134-.067.135-.134.202-.134.336-.202.336-.538.605-1.008.605-.336 0-.672 0-.94-.067l-.269-.068c-.134.336-.269.672-.336 1.075l-.604-.201c.134-.336.268-.672.336-1.008l-.538-.201c-.134.335-.268.671-.336 1.007l-.604-.201c.134-.336.268-.672.336-1.075l-1.277-.403.403-.739c.135.067.336.134.47.134.135.067.27 0 .336-.134l.94-2.821V6.18c0-.202-.066-.336-.268-.336 0-.135-.134-.202-.336-.269zm.806 4.03c.336.135.605.202.874.269.201.067.335.067.537.067.134 0 .202 0 .336-.067.336-.201.403-.672.134-.94l-.403-.336c-.201-.135-.47-.202-.739-.269a.509.509 0 01-.268-.134l-.47 1.41zm.672-2.082c.202.067.336.134.47.134.202.068.403.135.605.068.268 0 .47-.068.537-.336.067-.202.067-.403 0-.538-.067-.134-.201-.201-.336-.268-.201-.135-.403-.202-.671-.269l-.202-.067c-.067.47-.269.873-.403 1.276z" fill="#fff"/></g><defs><clipPath id="clip0_125_690"><path fill="#fff" transform="translate(.797)" d="M0 0h25.525v16.121H0z"/></clipPath></defs></svg>