<svg width="27" height="17" fill="none" xmlns="http://www.w3.org/2000/svg"><g clip-path="url(#clip0_125_705)"><path opacity=".07" d="M24.001 0H2.507C1.365 0 .492.873.492 2.015v12.09a2.02 2.02 0 002.015 2.016H24c1.142 0 2.015-.873 2.015-2.015V2.016A2.02 2.02 0 0024.001 0z" fill="#000"/><path d="M24.002.672c.738 0 1.343.604 1.343 1.343v12.09c0 .74-.605 1.344-1.343 1.344H2.506a1.347 1.347 0 01-1.343-1.343V2.016c0-.74.604-1.344 1.343-1.344h21.495z" fill="#fff"/><path d="M8.552 8.06v2.486c0 .201-.134.201-.336.134-1.276-.537-2.015-2.217-1.545-3.627.269-.739.806-1.344 1.545-1.612.269-.135.336-.067.336.134V8.06zm1.344 0V5.575c0-.201 0-.201.201-.134 1.41.537 2.15 2.216 1.612 3.627-.269.739-.806 1.343-1.545 1.612-.268.134-.268.067-.268-.134V8.06zm4.836-4.701H9.224c2.552 0 4.567 2.082 4.567 4.701 0 2.62-2.015 4.702-4.567 4.702h5.508c2.552 0 4.567-2.082 4.567-4.702s-2.015-4.7-4.567-4.7z" fill="#3086C8"/></g><defs><clipPath id="clip0_125_705"><path fill="#fff" transform="translate(.492)" d="M0 0h25.525v16.121H0z"/></clipPath></defs></svg>