<svg width="26" height="17" fill="none" xmlns="http://www.w3.org/2000/svg"><g clip-path="url(#clip0_125_771)"><path opacity=".07" d="M23.985 0H2.49C1.348 0 .475.873.475 2.015v12.09a2.02 2.02 0 002.015 2.016h21.495c1.142 0 2.015-.873 2.015-2.015V2.016A2.02 2.02 0 0023.985 0z" fill="#000"/><path d="M23.985.672c.739 0 1.343.604 1.343 1.343v12.09c0 .74-.604 1.344-1.343 1.344H2.49a1.347 1.347 0 01-1.343-1.343V2.016c0-.74.605-1.344 1.343-1.344h21.495z" fill="#fff"/><path d="M19.484 6.784h-.201c-.269.672-.47 1.008-.672 2.015h1.276c-.201-1.007-.201-1.477-.403-2.015zm1.948 3.963H20.29c-.067 0-.067 0-.134-.067l-.134-.604-.068-.135h-1.612c-.067 0-.134 0-.134.134l-.202.605c0 .067-.067.067-.067.067h-1.41l.134-.336 1.948-4.567c0-.336.201-.47.537-.47h1.008c.067 0 .134 0 .134.134l.94 4.366c.068.269.135.47.135.739.067.067.067.067.067.134zm-9-.201l.268-1.21c.067 0 .134.068.134.068.47.201.94.336 1.41.268.135 0 .337-.067.471-.134.336-.134.336-.47.067-.739-.134-.134-.336-.201-.537-.336-.269-.134-.537-.268-.739-.47-.806-.671-.537-1.612-.067-2.082.403-.269.604-.537 1.142-.537.806 0 1.679 0 2.082.134h.067a7.024 7.024 0 01-.268 1.142c-.336-.135-.672-.269-1.008-.269-.202 0-.403 0-.605.067-.134 0-.201.067-.268.135a.325.325 0 000 .47l.336.269c.268.134.537.268.739.403.335.201.671.537.738.94.135.604-.067 1.142-.604 1.545-.336.268-.47.403-.94.403-.941 0-1.68.067-2.284-.134-.068.134-.068.134-.135.067zm-2.352.201c.068-.47.068-.47.135-.671.335-1.478.671-3.023.94-4.5.067-.135.067-.202.202-.202h1.209a20.48 20.48 0 01-.47 2.149c-.202 1.008-.404 2.015-.672 3.023 0 .134-.067.134-.202.134l-1.142.067zm-6.247-5.24c0-.066.135-.133.202-.133h2.284c.336 0 .604.201.671.537l.605 2.955c0 .068 0 .068.067.135 0-.067.067-.067.067-.067L9.14 5.508c-.067-.067 0-.134.067-.134h1.41c0 .067 0 .067-.067.134L8.468 10.41c-.067.135-.067.202-.134.27-.067.066-.202 0-.336 0H6.99c-.067 0-.134 0-.134-.135L5.781 6.38c-.134-.134-.335-.336-.604-.403-.403-.201-1.142-.336-1.276-.336l-.067-.134z" fill="#142688"/></g><defs><clipPath id="clip0_125_771"><path fill="#fff" transform="translate(.475)" d="M0 0h25.525v16.121H0z"/></clipPath></defs></svg>