<svg width="27" height="17" fill="none" xmlns="http://www.w3.org/2000/svg"><g clip-path="url(#clip0_125_743)"><path d="M24.896 16.12h-22.3a1.635 1.635 0 01-1.614-1.61V1.612A1.638 1.638 0 012.595 0h22.301c.873 0 1.612.739 1.612 1.612V14.51c0 .873-.739 1.612-1.612 1.612z" fill="#fff"/><path opacity=".25" d="M24.896 16.12h-22.3a1.635 1.635 0 01-1.614-1.61V1.612A1.638 1.638 0 012.595 0H24.83c.94 0 1.68.739 1.68 1.612V14.51c0 .873-.74 1.612-1.613 1.612zM2.596.673a.918.918 0 00-.94.94V14.51c0 .537.402.94.94.94h22.233c.537 0 1.007-.403 1.007-.94V1.612a.918.918 0 00-.94-.94h-22.3z" fill="#A8AAAD"/><path d="M13.746 13.568a5.508 5.508 0 100-11.015 5.508 5.508 0 000 11.015z" fill="#58595B"/><path d="M13.209 5.038l-.806 3.022-.672.27-.202.738.672-.269-.47 1.814h4.635l.268-1.075h-2.888l.403-1.478.806-.268.201-.74-.806.337.605-2.351h-1.746z" fill="#fff"/></g><defs><clipPath id="clip0_125_743"><path fill="#fff" transform="translate(.983)" d="M0 0h25.525v16.121H0z"/></clipPath></defs></svg>