<svg width="26" height="17" fill="none" xmlns="http://www.w3.org/2000/svg"><g clip-path="url(#clip0_125_734)"><path opacity=".07" d="M23.595 0H2.1C.958 0 .085.873.085 2.015v12.09A2.02 2.02 0 002.1 16.122h21.495c1.142 0 2.015-.873 2.015-2.015V2.016A2.02 2.02 0 0023.595 0z" fill="#000"/><path d="M23.595.672c.739 0 1.343.604 1.343 1.343v12.09c0 .74-.604 1.344-1.343 1.344H2.1a1.347 1.347 0 01-1.343-1.343V2.016c0-.74.604-1.344 1.343-1.344h21.495z" fill="#fff"/><path fill-rule="evenodd" clip-rule="evenodd" d="M7.81 3.359h2.35v7.724a1.68 1.68 0 01-1.679 1.68h-2.35V5.037a1.68 1.68 0 011.679-1.68z" fill="#006EBC"/><path fill-rule="evenodd" clip-rule="evenodd" d="M12.511 3.359h2.351v7.724a1.68 1.68 0 01-1.679 1.68h-2.351V5.037a1.68 1.68 0 011.68-1.68z" fill="#F00036"/><path fill-rule="evenodd" clip-rule="evenodd" d="M17.213 3.359h2.351v7.724a1.68 1.68 0 01-1.679 1.68h-2.35V5.037a1.68 1.68 0 011.678-1.68z" fill="#2AB419"/><path d="M7.309 9.74c-.712 0-1.425-.204-1.784-.663l.524-.454c.046.76 2.381.833 2.381-.128V6.381h1.21v2.114c0 .489-.385.888-1.056 1.096-.313.097-.917.149-1.275.149zm5.452 0c-.453 0-.933-.072-1.32-.246-.637-.286-.882-.81-.874-1.477.008-.681.293-1.197.986-1.454.886-.33 2.246-.176 2.637.18v.654c-.384-.35-1.315-.603-1.96-.31-.332.153-.495.617-.5.973-.004.377.165.841.5 1.006.64.314 1.605.027 1.96-.296v.678c-.24.171-.841.292-1.43.292zm5.83-1.738c.248-.158.39-.38.39-.675 0-.294-.078-.462-.234-.63-.138-.14-.39-.316-.831-.316h-2.382V9.74h2.382c.467 0 .737-.155.883-.28a.785.785 0 00.286-.644c0-.29-.104-.61-.495-.814zm-1.281-.189h-.96v-.97h1.005c.642 0 .634.97-.045.97zm.193 1.45h-1.152V8.245h1.152c.663 0 .728 1.016 0 1.016z" fill="#fff"/></g><defs><clipPath id="clip0_125_734"><path fill="#fff" transform="translate(.085)" d="M0 0h25.525v16.121H0z"/></clipPath></defs></svg>