<svg width="26" height="17" fill="none" xmlns="http://www.w3.org/2000/svg"><g clip-path="url(#clip0_125_723)"><path d="M23.697 0H2.202A2.015 2.015 0 00.187 2.015v12.09c0 1.114.902 2.016 2.015 2.016h21.495a2.015 2.015 0 002.015-2.015V2.016A2.015 2.015 0 0023.697 0z" fill="#000" fill-opacity=".07"/><path d="M23.697.672H2.202C1.46.672.86 1.273.86 2.015v12.09c0 .743.601 1.344 1.343 1.344h21.495c.742 0 1.343-.601 1.343-1.343V2.016c0-.743-.601-1.344-1.343-1.344z" fill="#fff"/><path d="M12.72 2.855l-.07.232v6.74l.07.068 3.127-1.85-3.128-5.19z" fill="#343434"/><path d="M12.72 2.855l-3.13 5.19 3.13 1.85v-7.04z" fill="#8C8C8C"/><path d="M12.72 10.487l-.04.047v2.402l.04.112 3.13-4.409-3.13 1.848z" fill="#3C3C3B"/><path d="M12.72 13.048v-2.56l-3.13-1.85 3.13 4.409z" fill="#8C8C8C"/><path d="M12.72 9.895l3.128-1.85-3.128-1.421v3.27z" fill="#141414"/><path d="M9.59 8.046l3.13 1.849V6.624L9.59 8.046z" fill="#393939"/></g><defs><clipPath id="clip0_125_723"><path fill="#fff" transform="translate(.187)" d="M0 0h25.525v16.121H0z"/></clipPath></defs></svg>