<svg width="27" height="17" fill="none" xmlns="http://www.w3.org/2000/svg"><g clip-path="url(#clip0_125_760)"><path opacity=".07" d="M24.188 0H2.694C1.552 0 .679.873.679 2.015v12.09a2.02 2.02 0 002.015 2.016h21.494c1.142 0 2.015-.873 2.015-2.015V2.016A2.02 2.02 0 0024.188 0z" fill="#000"/><path d="M24.189.672c.738 0 1.343.604 1.343 1.343v12.09c0 .74-.605 1.344-1.343 1.344H2.694a1.347 1.347 0 01-1.343-1.343V2.016c0-.74.604-1.344 1.343-1.344h21.495z" fill="#fff"/><path d="M13.441 13.568a5.508 5.508 0 100-11.015 5.508 5.508 0 000 11.015z" fill="#1652F0"/><path d="M14.77 8.768c0-.695-.422-.93-1.24-1.042-.604-.087-.722-.228-.722-.51 0-.283.205-.459.597-.459.356 0 .562.124.647.411a.151.151 0 00.143.11h.313a.14.14 0 00.14-.162c-.1-.453-.405-.727-.885-.812v-.478a.15.15 0 00-.148-.15h-.3a.15.15 0 00-.148.15v.461c-.595.084-.972.477-.972.982 0 .652.397.906 1.228 1.018.564.093.725.215.725.535 0 .321-.272.536-.658.536-.52 0-.695-.227-.754-.522a.15.15 0 00-.146-.12h-.34a.139.139 0 00-.138.16c.088.498.406.86 1.055.948v.471a.149.149 0 00.149.15h.299a.15.15 0 00.148-.15v-.47c.616-.098 1.008-.523 1.008-1.057z" fill="#fff"/><path d="M12.313 11.148a3.289 3.289 0 010-6.176.238.238 0 00.141-.207v-.308a.154.154 0 00-.064-.141.155.155 0 00-.155-.015 3.945 3.945 0 000 7.518.155.155 0 00.22-.156v-.306a.237.237 0 00-.142-.208zm2.333-6.846a.156.156 0 00-.219.156v.307a.237.237 0 00.142.207 3.289 3.289 0 010 6.177.218.218 0 00-.141.208v.307a.156.156 0 00.219.156 3.946 3.946 0 000-7.518z" fill="#fff"/></g><defs><clipPath id="clip0_125_760"><path fill="#fff" transform="translate(.679)" d="M0 0h25.525v16.121H0z"/></clipPath></defs></svg>