<svg width="49" height="63" fill="none" xmlns="http://www.w3.org/2000/svg"><path d="M41.23 0c-4.176 0-7.598 3.403-7.598 7.557s3.422 7.48 7.599 7.48 7.521-3.326 7.521-7.48S45.408 0 41.231 0zM10.143 16.755a2.27 2.27 0 00-2.281 2.268 2.27 2.27 0 002.281 2.27h24.785c.847-.047 3.313.152 4.423 1.578 1.172 1.518.632 4.17 0 6.116l-7.737 24.665c-1.14 3.663-4.717 5.963-8.154 4.46-2.836-1.241-3.02-3.924-2.065-6.53.123-.322.277-.551.416-.827 0 0 6.165-11.543 7.522-14.762 1.001-2.361-.293-3.986-3.391-3.986H11.853a2.27 2.27 0 00-2.281 2.269 2.27 2.27 0 002.28 2.268h4.008c.848-.045 3.376.062 4.347 1.58 1.819 2.82.57 3.74-2.143 13.121-.17.49-.323.997-.416 1.518 0 0-1.865 6.56 4.07 9.274 5.486 2.498 11.852-.169 13.748-6.117 1.326-4.184 8.215-25.553 8.215-25.553 1.403-4.354 1.172-7.833-.755-10.301-2.666-3.403-7.43-3.327-8.154-3.296h-24.63v-.015zm-7.86 7.496A2.27 2.27 0 000 26.519c0 1.257 1.017 2.33 2.281 2.33h29.147c1.264 0 2.28-1.073 2.28-2.33a2.27 2.27 0 00-2.28-2.268H2.28z" fill="#fff"/></svg>