<svg width="90" height="90" fill="none" xmlns="http://www.w3.org/2000/svg"><path d="M61.692 57.417a10.208 10.208 0 00-4.036 7.89" stroke="#009EFF" stroke-width="2" stroke-linecap="round" stroke-linejoin="round"/><path d="M49.219 76.585v3.571a2.813 2.813 0 01-2.813 2.813h-2.812a2.813 2.813 0 01-2.813-2.813v-3.572a5.625 5.625 0 002.813.76h2.812a5.625 5.625 0 002.813-.76v0z" stroke="#999" stroke-width="2" stroke-linecap="round" stroke-linejoin="round"/><path d="M52.031 66.094v5.625a5.625 5.625 0 01-5.625 5.625h-2.812a5.625 5.625 0 01-5.625-5.625v-5.625H52.03zM66.094 36.31a21.094 21.094 0 01-7.917 16.72 15.807 15.807 0 00-6.146 12.276v.788H37.97v-.788a14.976 14.976 0 00-5.738-11.953A21.094 21.094 0 1166.094 36.31v0zM42.188 66.094V49.219m5.625 16.875V49.219m-5.625 0L33.75 40.78m14.063 8.439l8.437-8.438" stroke="#999" stroke-width="2" stroke-linecap="round" stroke-linejoin="round"/><path d="M36.563 21.952A16.79 16.79 0 0145 19.687M28.125 36.562a16.87 16.87 0 013.614-10.434M45 11.25V5.625M27.098 18.66l-3.98-3.979m-3.43 21.882h-5.625m56.25 0h5.624M62.901 18.66l3.98-3.979" stroke="#009EFF" stroke-width="2" stroke-linecap="round" stroke-linejoin="round"/><path d="M37.969 70.313H52.03" stroke="#999" stroke-width="2" stroke-linecap="round" stroke-linejoin="round"/></svg>