<svg width="104" height="104" fill="none" xmlns="http://www.w3.org/2000/svg"><g clip-path="url(#clip0_125_993)" stroke-width="2"><path d="M43.68 6.24v6.24h-8.32a8.32 8.32 0 00-8.32 8.32v66.56a8.32 8.32 0 008.32 8.32h33.28a8.32 8.32 0 008.32-8.32V20.8a8.32 8.32 0 00-8.32-8.32h-8.32V6.24H43.68z" stroke="#999" stroke-miterlimit="10" stroke-linecap="round" stroke-linejoin="round"/><path d="M53.17 75.294a1 1 0 001.904-.525l-1.957-17.61h7.203a1 1 0 00.91-1.413l-10.4-22.88a1 1 0 00-1.904.524L50.883 51H43.68a1 1 0 00-.91 1.414l10.4 22.88z" stroke="#009EFF" stroke-linejoin="round"/><path d="M32 22v30m0 6v11" stroke="#009EFF" stroke-linecap="round"/></g><defs><clipPath id="clip0_125_993"><path fill="#fff" transform="rotate(-90 52 52)" d="M0 0h104v104H0z"/></clipPath></defs></svg>