<svg width="216" height="63" fill="none" xmlns="http://www.w3.org/2000/svg"><g clip-path="url(#clip0_125_872)" fill="#323941"><path d="M41.23 0c-4.176 0-7.598 3.403-7.598 7.557s3.422 7.48 7.599 7.48 7.521-3.326 7.521-7.48S45.408 0 41.231 0zM10.143 16.755a2.27 2.27 0 00-2.281 2.268 2.27 2.27 0 002.281 2.27h24.785c.847-.047 3.313.152 4.423 1.578 1.172 1.518.632 4.17 0 6.116l-7.737 24.665c-1.14 3.663-4.717 5.963-8.154 4.46-2.836-1.241-3.02-3.924-2.065-6.53.123-.322.277-.551.416-.827 0 0 6.165-11.543 7.522-14.762 1.001-2.361-.293-3.986-3.391-3.986H11.853a2.27 2.27 0 00-2.281 2.269 2.27 2.27 0 002.28 2.268h4.008c.848-.045 3.376.062 4.347 1.58 1.819 2.82.57 3.74-2.143 13.121-.17.49-.323.997-.416 1.518 0 0-1.865 6.56 4.07 9.274 5.486 2.498 11.852-.169 13.748-6.117 1.326-4.184 8.215-25.553 8.215-25.553 1.403-4.354 1.172-7.833-.755-10.301-2.666-3.403-7.43-3.327-8.154-3.296h-24.63v-.015zm-7.86 7.496A2.27 2.27 0 000 26.519c0 1.257 1.017 2.33 2.281 2.33h29.147c1.264 0 2.28-1.073 2.28-2.33a2.27 2.27 0 00-2.28-2.268H2.28zm72.8-9.34c-3.542 0-9.847.433-9.847 3.8 0 4.904 10.61 4.949 10.61 7.75 0 .85-.885 1.61-2.87 1.61-2.778 0-4.35-.164-6.915-.596-1.084-.18-1.45 1.907-.55 2.13 1.68.433 4.305.806 9.037.806 3.542 0 9.71-.626 9.71-4.01 0-4.902-10.534-4.932-10.534-7.54 0-.85.885-1.61 2.87-1.61h6.702c1.358 0 1.358-2.34 0-2.34h-8.213zm25.112 0c-3.847 0-10.335.224-10.335 5.41v4.74c0 5.2 6.488 5.41 10.335 5.41 4.076 0 6.259-.373 7.938-.805.916-.224.534-2.325-.55-2.132-2.564.433-4.121.596-6.915.596-2.595 0-3.282-.58-3.282-2.13v-1.804c0-.611.153-.73.824-.73h5.267c1.023 0 1.023-1.997 0-1.997H98.21c-.671 0-.824-.12-.824-.73v-1.342c0-1.565.687-2.13 3.282-2.13h6.64c1.359 0 1.359-2.34 0-2.34h-7.113v-.016zm23.738 0c-3.847 0-10.335.224-10.335 5.41v4.948c0 4.829 6.213 5.082 10.06 5.082 3.267 0 10.396-.164 10.396-4.68v-1.475c0-1.848-1.237-2.34-3.694-2.34h-5.404c-.733 0-.733 1.997 0 1.997h1.648c.672 0 .748.134.748.73v1.267c0 1.565-1.481 2.4-3.694 2.4-2.214 0-3.007-.85-3.007-2.4v-6.483c0-1.564 1.16-2.13 3.755-2.13h6.641c1.358 0 1.358-2.34 0-2.34h-7.114v.014zm14.288 0c-.931 0-.916.373-.687 1.133l3.969 11.759c.535 1.445 1.695 2.399 3.97 2.399 2.274 0 3.358-.969 3.892-2.265 0 0 1.573-4.59 1.847-5.41.184-.566.642-.566.825 0 .229.7 1.786 5.276 1.786 5.276.763 1.52 1.572 2.399 3.893 2.399 2.732 0 3.923-1.088 4.381-2.4.29-.82 2.397-7.838 3.694-11.892.26-.79.183-.999-.549-.999h-2.397c-.748 2.474-3.053 9.911-3.145 10.224-.168.566-.595.551-.824 0-.153-.388-2.733-7.273-3.145-8.346-.427-1.073-1.603-1.863-2.946-1.863-1.206 0-2.336.641-2.733 1.863-.397 1.222-2.564 8.018-2.671 8.346-.168.566-.641.566-.825 0-.122-.343-2.473-7.854-3.221-10.224h-5.114zm42.072 0c-3.724 0-9.647-.03-9.647 4.471v9.345c0 .939.717 1.475 3.144 1.475 2.428 0 3.145-.656 3.145-1.475v-4.278c0-.61.153-.73.824-.73h4.931c.672 0 .825.134.825.73v4.278c0 .82.717 1.475 3.144 1.475s3.145-.522 3.145-1.475v-9.345c0-4.5-5.786-4.47-9.511-4.47zm13.617 0c-.61 0-.87.447-.412.999 1.542 1.878 5.16 6.304 5.404 6.617.306.372.748.894.748 1.475v4.74c0 .82.794 1.475 3.221 1.475 2.428 0 3.282-.522 3.282-1.476V23.6c0-.611.413-.939.748-1.341.245-.313 3.664-4.412 5.267-6.349.458-.566.214-.999-.412-.999h-2.87l-3.969 5.082c-.29.373-.87.358-1.16 0-.29-.357-3.832-5.082-3.832-5.082h-6.015zm20.655 0c-.794 0-1.435.641-1.435 1.401s.641 1.401 1.435 1.401c.778 0 1.435-.64 1.435-1.4 0-.776-.641-1.402-1.435-1.402zm0 .328c.58 0 1.099.507 1.099 1.073 0 .567-.519.999-1.099.999s-1.023-.432-1.023-.999c0-.566.443-1.073 1.023-1.073zm-.611.537c-.046 0-.061.015-.061.06v.864c0 .06.046.06.199.06.168 0 .198-.016.198-.06v-.73c0-.045.015-.06.061-.06h.199c.137 0 .198.075.198.134 0 .104-.168.134-.336.134h-.061c-.076 0-.061.224 0 .268.168.135.321.269.412.328.031.03.092 0 .138 0h.412c.046 0 .046-.03 0-.06l-.55-.402c.138 0 .55.015.55-.268 0-.194-.26-.268-.611-.268h-.748zm-33.661 1.133c2.519 0 3.222.655 3.222 2.205v1.863c0 .656-.138.73-.748.73h-4.992c-.672 0-.825-.134-.825-.73v-1.863c0-1.55.825-2.206 3.343-2.206zM72.6 37.566c-1.043 0-1.842.319-2.397.955-.555.637-.833 1.537-.833 2.702 0 1.178.305 2.085.914 2.722.623.636 1.456.955 2.499.955.555 0 1.022-.075 1.402-.224a9.33 9.33 0 001.117-.508c.23.19.406.42.528.69.135.258.203.563.203.915 0 .555-.311 1.03-.934 1.422-.61.38-1.544.569-2.804.569a8.32 8.32 0 01-2.56-.386 5.787 5.787 0 01-2.091-1.178c-.596-.542-1.07-1.22-1.422-2.032-.339-.826-.508-1.808-.508-2.945 0-1.056.162-1.984.487-2.783.339-.813.793-1.496 1.361-2.052a5.83 5.83 0 012.032-1.26 7.112 7.112 0 012.478-.426c1.246 0 2.207.203 2.885.61.69.406 1.036.927 1.036 1.564 0 .352-.088.657-.265.914-.176.257-.379.46-.609.61a6.444 6.444 0 00-1.138-.59c-.392-.162-.853-.244-1.38-.244zm8.246-2.112c.23-.136.576-.264 1.036-.386a5.69 5.69 0 011.422-.183c.677 0 1.273.102 1.788.305.528.19.866.494 1.015.914.244.704.508 1.523.793 2.458.284.934.568 1.903.853 2.905.284.988.562 1.97.833 2.945.27.962.507 1.815.71 2.56-.162.19-.406.338-.73.446-.326.122-.712.183-1.159.183-.325 0-.602-.027-.832-.081a1.571 1.571 0 01-.549-.244 1.368 1.368 0 01-.345-.426 4.48 4.48 0 01-.224-.61l-.365-1.401h-3.677c-.108.406-.217.826-.325 1.26-.108.432-.217.852-.325 1.259-.19.067-.393.121-.61.162a2.963 2.963 0 01-.751.081c-.69 0-1.205-.115-1.544-.345-.325-.244-.487-.576-.487-.995 0-.19.027-.38.08-.57.055-.189.116-.412.184-.67a36 36 0 01.386-1.36l.568-1.748c.204-.636.42-1.286.65-1.95l.65-1.868c.203-.596.386-1.124.549-1.585.176-.46.311-.812.406-1.056zm2.438 2.62c-.19.569-.407 1.206-.65 1.91-.23.69-.44 1.395-.63 2.112h2.519a68.508 68.508 0 00-.59-2.133 91.357 91.357 0 00-.527-1.889h-.122zm9.566 9.386c-.582 0-1.042-.17-1.38-.509-.34-.338-.509-.799-.509-1.381V35.068c.15-.027.386-.061.711-.102a5.71 5.71 0 01.935-.081c.311 0 .582.027.812.081.244.04.447.122.61.244.162.122.284.291.365.508.081.217.122.5.122.853v8.024h4.652c.095.149.183.352.264.61.081.243.122.5.122.771 0 .542-.115.928-.345 1.158-.23.217-.535.325-.915.325H92.85zm12.081-.143c-.149.04-.386.081-.711.122a7.23 7.23 0 01-.935.06c-.311 0-.589-.026-.832-.08a1.36 1.36 0 01-.59-.244 1.098 1.098 0 01-.365-.508c-.081-.217-.122-.501-.122-.853V35.088c.149-.027.386-.06.711-.101.325-.055.636-.082.934-.082.312 0 .583.027.813.082.244.04.447.121.609.243.163.122.285.292.366.508.081.217.122.501.122.853v10.726zm11.288-12.229c.095.15.176.352.243.61.082.243.122.5.122.771 0 .529-.115.908-.345 1.138-.217.217-.515.325-.894.325h-4.266v2.295h4.449c.108.15.196.346.264.59.081.243.122.5.122.772 0 .514-.115.886-.345 1.117-.217.216-.515.325-.894.325h-3.555v4.286c-.149.04-.386.081-.711.122-.311.04-.623.06-.934.06-.312 0-.589-.026-.833-.08a1.356 1.356 0 01-.589-.244 1.093 1.093 0 01-.366-.508c-.081-.217-.122-.501-.122-.853v-8.837c0-.582.169-1.042.508-1.381.339-.339.799-.508 1.381-.508h6.765zm1.429 6.135c0-1.056.163-1.99.488-2.803.338-.813.792-1.49 1.361-2.032a5.826 5.826 0 012.031-1.26 7.401 7.401 0 012.539-.426 7.23 7.23 0 012.519.427 5.797 5.797 0 012.052 1.26c.582.54 1.036 1.218 1.361 2.03.338.813.508 1.748.508 2.804 0 1.056-.163 1.997-.488 2.823a5.735 5.735 0 01-1.361 2.052 5.741 5.741 0 01-2.031 1.24 7.469 7.469 0 01-2.56.426 7.459 7.459 0 01-2.559-.427 5.826 5.826 0 01-2.032-1.28c-.568-.555-1.015-1.239-1.34-2.051-.325-.813-.488-1.74-.488-2.783zm3.657 0c0 1.232.25 2.153.751 2.763.501.609 1.172.914 2.011.914.853 0 1.53-.305 2.032-.914.501-.61.751-1.53.751-2.763 0-1.219-.25-2.133-.751-2.742-.488-.61-1.158-.915-2.011-.915-.84 0-1.517.305-2.032.914-.501.596-.751 1.51-.751 2.743zm14.77 2.194v3.9c-.149.04-.386.081-.711.122-.311.04-.623.06-.934.06-.312 0-.589-.026-.833-.08a1.356 1.356 0 01-.589-.244 1.175 1.175 0 01-.346-.508c-.081-.217-.122-.501-.122-.853v-9.568c0-.284.075-.501.224-.65.162-.162.379-.291.65-.386.46-.163.995-.278 1.605-.345a14.772 14.772 0 011.95-.122c1.869 0 3.277.393 4.225 1.178.948.785 1.422 1.849 1.422 3.19 0 .839-.217 1.557-.65 2.153a4.664 4.664 0 01-1.544 1.38 48.12 48.12 0 001.442 1.87c.474.582.847 1.11 1.118 1.584-.136.474-.386.84-.752 1.097a2.056 2.056 0 01-1.199.366c-.297 0-.555-.034-.771-.102a1.858 1.858 0 01-.569-.284 2.304 2.304 0 01-.447-.447 5.893 5.893 0 01-.386-.569l-1.706-2.742h-1.077zm1.28-2.702c.514 0 .921-.129 1.219-.386.297-.27.446-.663.446-1.178 0-.515-.169-.9-.507-1.158-.325-.27-.847-.406-1.565-.406-.203 0-.365.006-.487.02a6.002 6.002 0 00-.406.061v3.047h1.3zm18.716 6.257c-.19.19-.467.331-.833.426-.352.108-.778.163-1.28.163-.501 0-.975-.075-1.421-.224-.447-.149-.813-.508-1.097-1.076l-2.011-4.104c-.204-.42-.386-.812-.549-1.178a44.17 44.17 0 01-.528-1.3l-.122.02c.054.732.081 1.476.081 2.235.014.758.021 1.503.021 2.234v3.149c-.149.04-.38.081-.691.122-.298.04-.596.06-.894.06-.298 0-.562-.02-.792-.06-.23-.04-.42-.122-.569-.244a1.179 1.179 0 01-.345-.487c-.081-.217-.122-.495-.122-.833V35.718c.19-.271.481-.474.873-.61a3.842 3.842 0 011.26-.203c.501 0 .975.082 1.422.244.46.15.826.501 1.097 1.056l2.031 4.104c.203.42.386.819.549 1.198.162.366.338.793.528 1.28l.101-.02a39.264 39.264 0 01-.101-2.194c-.014-.731-.021-1.463-.021-2.194v-3.29a7.062 7.062 0 011.585-.183c.596 0 1.049.108 1.361.324.311.204.467.637.467 1.3v10.442zm6.19.345c-.149.04-.386.081-.711.122a7.23 7.23 0 01-.935.06c-.311 0-.589-.026-.832-.08a1.36 1.36 0 01-.59-.244 1.098 1.098 0 01-.365-.508c-.081-.217-.122-.501-.122-.853V35.088c.149-.027.386-.06.711-.101.325-.055.636-.082.934-.082.312 0 .583.027.813.082.244.04.447.121.609.243.163.122.285.292.366.508.081.217.122.501.122.853v10.726zm5.255-11.863c.23-.136.575-.264 1.036-.386a5.69 5.69 0 011.422-.183c.677 0 1.273.102 1.787.305.528.19.867.494 1.016.914.244.704.508 1.523.792 2.458.284.934.569 1.903.853 2.905.285.988.562 1.97.833 2.945.271.962.508 1.815.711 2.56-.162.19-.406.338-.731.446-.325.122-.711.183-1.158.183-.325 0-.603-.027-.833-.081a1.566 1.566 0 01-.548-.244 1.363 1.363 0 01-.346-.426 4.55 4.55 0 01-.223-.61l-.366-1.401h-3.677c-.108.406-.216.826-.325 1.26-.108.432-.216.852-.325 1.259a3.969 3.969 0 01-.609.162 2.964 2.964 0 01-.752.081c-.69 0-1.205-.115-1.543-.345a1.178 1.178 0 01-.488-.995c0-.19.027-.38.081-.57.054-.189.115-.412.183-.67.095-.365.224-.819.386-1.36l.569-1.748c.203-.636.42-1.286.65-1.95l.65-1.868c.203-.596.386-1.124.548-1.585.176-.46.312-.812.407-1.056zm2.437 2.62a160.33 160.33 0 01-.65 1.91c-.23.69-.44 1.395-.629 2.112h2.518a67.152 67.152 0 00-.589-2.133 85.008 85.008 0 00-.528-1.889h-.122z"/></g><defs><clipPath id="clip0_125_872"><path fill="#fff" d="M0 0h216v62.972H0z"/></clipPath></defs></svg>