<svg width="20" height="30" fill="none" xmlns="http://www.w3.org/2000/svg"><path d="M19.5 8c0-.85-.65-1.5-1.5-1.5h-1.5v-5C16.5.65 15.85 0 15 0s-1.5.65-1.5 1.5v5h-7v-5C6.5.65 5.85 0 5 0S3.5.65 3.5 1.5v5H2C1.15 6.5.5 7.15.5 8c0 .673.408 1.22 1 1.42v9.08C1.5 21 3.5 23 6 23h1.5v2c0 .3.2.5.5.5h.5v2c0 .3.2.5.5.5h.5v1.5c0 .3.2.5.5.5s.5-.2.5-.5V28h.5c.3 0 .5-.2.5-.5v-2h.5c.3 0 .5-.2.5-.5v-2H14c2.5 0 4.5-2 4.5-4.5V9.42c.592-.2 1-.747 1-1.42zm-5-6.5c0-.3.2-.5.5-.5s.5.2.5.5v5h-1v-5zm-10 0c0-.25.2-.5.5-.5s.5.2.5.5v5h-1v-5zm6 25.5h-1v-1.5h1V27zm1-2.5h-3V23h3v1.5zm6-6c0 1.95-1.55 3.5-3.5 3.5H6c-1.95 0-3.5-1.55-3.5-3.5v-9h15v9zm.5-10H2c-.3 0-.5-.2-.5-.5s.2-.5.5-.5h16c.3 0 .5.2.5.5s-.2.5-.5.5z" fill="#323941"/><path d="M8 16h2.8l-2.65 2.65c-.2.2-.2.5 0 .7.1.1.2.15.35.15.15 0 .25-.05.35-.15l3.5-3.5c.15-.15.2-.35.1-.55-.05-.2-.25-.3-.45-.3H9.2l2.65-2.65c.2-.2.2-.5 0-.7-.2-.2-.5-.2-.7 0l-3.5 3.5c-.15.15-.15.35-.1.55.05.2.25.3.45.3z" fill="#323941"/></svg>