<svg width="30" height="30" fill="none" xmlns="http://www.w3.org/2000/svg"><g clip-path="url(#clip0_125_1177)" fill="#323941"><path d="M29.062 2.731L27.246.928C26.064-.247 24.069-.316 22.8.776l-3.19 2.746a.516.516 0 00-.103.123L16.4 8.782l-1.994.66a.506.506 0 00-.2.843l5.434 5.396a.513.513 0 00.847-.2l.665-1.98 5.249-3.148a.504.504 0 00.122-.103l2.7-3.107c1.095-1.257 1.021-3.236-.162-4.412zM28.45 6.48l-2.647 3.046-5.34 3.202a.509.509 0 00-.221.275l-.463 1.378-1.224-1.217h-.001l-1.811-1.8-1.226-1.216 1.387-.46a.512.512 0 00.278-.22l3.16-5.23 3.13-2.692c.87-.75 2.238-.703 3.05.103l1.815 1.803c.813.807.863 2.165.113 3.028z"/><path d="M27.61 20.444a5.665 5.665 0 00-5.724-1.367L10.998 8.264A5.573 5.573 0 009.62 2.579a5.665 5.665 0 00-6.044-1.254.51.51 0 00-.175.834L6.66 5.395l-2.174 2.16-3.259-3.238a.515.515 0 00-.84.174 5.572 5.572 0 001.263 6.003 5.666 5.666 0 005.724 1.367l4.072 4.044-5.07 5.035-3.225 1.791a.51.51 0 00-.209.217l-1.449 2.878a.505.505 0 00.097.587l1.81 1.799a.513.513 0 00.592.095l2.898-1.44a.511.511 0 00.218-.206l1.803-3.203 5.07-5.035 4.281 4.252a5.572 5.572 0 001.377 5.685A5.657 5.657 0 0023.628 30a5.66 5.66 0 002.056-.387.51.51 0 00.176-.833l-3.26-3.237 2.174-2.159 3.26 3.237a.515.515 0 00.839-.174 5.574 5.574 0 00-1.263-6.003zM8.138 22.79a.503.503 0 00-.085.11l-1.76 3.128-2.427 1.206-1.29-1.28 1.214-2.41 3.15-1.749a.491.491 0 00.111-.084l5.12-5.086 1.088 1.08-5.121 5.084zm20.01 2.507l-3.012-2.99a.515.515 0 00-.724 0l-2.898 2.877a.507.507 0 000 .72l3.012 2.99a4.636 4.636 0 01-4.161-1.253 4.56 4.56 0 01-1.033-4.912.506.506 0 00-.115-.545L7.871 10.913a.514.514 0 00-.55-.113 4.637 4.637 0 01-4.945-1.026 4.56 4.56 0 01-1.263-4.132l3.012 2.99c.2.2.525.2.725 0l2.898-2.877c.2-.199.2-.521 0-.72L4.736 2.044a4.634 4.634 0 014.16 1.254A4.56 4.56 0 019.93 8.21a.506.506 0 00.114.545l11.347 11.269c.144.143.36.188.549.114a4.637 4.637 0 014.946 1.026 4.563 4.563 0 011.262 4.132z"/></g><defs><clipPath id="clip0_125_1177"><path fill="#fff" d="M0 0h30v30H0z"/></clipPath></defs></svg>