<svg width="80" height="81" fill="none" xmlns="http://www.w3.org/2000/svg"><g clip-path="url(#clip0_125_594)" fill="#fff"><path d="M60.75 39.566l-29.332-20a1.333 1.333 0 00-2.084 1.101v40a1.332 1.332 0 002.084 1.102l29.333-20a1.333 1.333 0 000-2.203zM32 58.143V23.191l25.633 17.476L32 58.143z"/><path d="M40 .667c-22.056 0-40 17.944-40 40s17.944 40 40 40 40-17.944 40-40-17.944-40-40-40zM40 78C19.415 78 2.667 61.252 2.667 40.667 2.667 20.082 19.415 3.334 40 3.334c20.585 0 37.333 16.748 37.333 37.333C77.333 61.252 60.585 78 40 78z"/></g><defs><clipPath id="clip0_125_594"><path fill="#fff" transform="translate(0 .667)" d="M0 0h80v80H0z"/></clipPath></defs></svg>