<svg xmlns="http://www.w3.org/2000/svg" width="45.437" height="42"><path data-name="https://www.flaticon.com/free-icon/herbal_1499609#term=spa&amp;page=1&amp;position=11" d="M8.367 24.81l-1.522-.12c-.017.2-.38 4.85 2.282 7.7a6.968 6.968 0 005.325 2.11V33a5.475 5.475 0 01-4.2-1.62c-2.206-2.36-1.89-6.52-1.885-6.57zm20.538-3.06h9.888v1.5h-9.888v-1.5zm-3.043 0h1.521v1.5h-1.521v-1.5zm-20.121-3H3.803v9.75a9.068 9.068 0 008.367 8.97V42h21.3v-4.53a9.069 9.069 0 008.367-8.97v-9.75h-7.292l4.759-4.69c.507-.4 3.936-3.13 4.592-3.78a4.786 4.786 0 00.238-6.83 3.216 3.216 0 00-.238-.23 4.942 4.942 0 00-6.911-.25c-.086.08-.17.16-.25.25-.658.65-3.436 4.04-3.835 4.53l-11.155 11H18.6A11.22 11.22 0 0024.342 9V.75a.752.752 0 00-.761-.75h-1.519a11.386 11.386 0 00-11.066 8.55A11.417 11.417 0 00.763 2.25.752.752 0 00.002 3v6a11.22 11.22 0 005.739 9.75zM31.947 40.5h-12.17V39h-1.522v1.5h-1.521V39h-1.521v1.5h-1.522v-3h18.256v3zM37.81 4.28a3.442 3.442 0 014.829-.18c.062.06.123.12.181.18A3.307 3.307 0 0143.04 9a2.854 2.854 0 01-.22.22c-.447.44-2.679 2.24-3.973 3.27L34.49 8.2c1.048-1.28 2.872-3.48 3.32-3.92zm-4.341 5.03l4.249 4.19-1.207 1.19-4.249-4.19zm-2.282 2.25l4.249 4.19-2.728 2.69-4.249-4.19zm-3.8 3.75l3.489 3.44h-6.977zm12.932 4.94v8.25a7.56 7.56 0 01-7.607 7.5H12.931a7.559 7.559 0 01-7.607-7.5v-8.25h34.991zm-28.145-9a9.829 9.829 0 019.889-9.75h.76V9a9.835 9.835 0 01-9.888 9.75h-.761v-.36c1.426-1.03 6.9-5.33 7.6-11.56l-1.512-.16c-.523 4.64-4.168 8.21-6.09 9.8v-5.22zM1.525 3.78a9.814 9.814 0 019.128 9.72v3.13A15.665 15.665 0 015.28 9.49l-1.425.52a16.716 16.716 0 006.8 8.43v.28A9.82 9.82 0 011.527 9V3.78zm38.256 2.44l1.521-1.5 1.076 1.06-1.521 1.5zm-2.282 2.25l1.521-1.5 1.076 1.06-1.521 1.5z" fill="#fff" fill-rule="evenodd"/></svg>