<svg xmlns="http://www.w3.org/2000/svg" viewBox="0 0 49.01 40.99"><g data-name="Layer 2"><path d="M24.46 38s26.06-13.53 6.68-38a22.8 22.8 0 01-8.62 12.84s-9.19 7.6-4 18.35c0 0-4.17-3-8.83-2 0 0-5.18 1.92-9.67-.23 0 0 4.47 17.65 21.41 10.07a16 16 0 01-12.1-3.83s6.35 3.71 12.73 2.5a33.31 33.31 0 008.7-20.65s1.91 9.22-6.3 20.95zm22.81-24a3.44 3.44 0 00-4.7 1.25 3.52 3.52 0 001.27 4.77 3.41 3.41 0 002.4.39A32.73 32.73 0 0121.08 41s19.41-1.2 27.66-22.57v-.06A3.49 3.49 0 0047.27 14z" fill="#fff" fill-rule="evenodd" data-name="Layer 1"/></g></svg>